<?xml version="1.0" encoding="UTF-8"?>
<svg xmlns="http://www.w3.org/2000/svg" version="1.1" xmlns:xlink="http://www.w3.org/1999/xlink" viewBox="0 0 800 800">
  <defs>
    <style>
      .cls-1 {
        fill: #e7b686;
      }

      .cls-2 {
        fill: #29a686;
      }

      .cls-3 {
        fill: #497da7;
      }

      .cls-4, .cls-5 {
        fill: #010101;
      }

      .cls-6 {
        fill: #1a1a1a;
      }

      .cls-6, .cls-5, .cls-7, .cls-8, .cls-9, .cls-10 {
        fill-rule: evenodd;
      }

      .cls-11 {
        fill: #a86040;
      }

      .cls-12 {
        fill: #bf7959;
      }

      .cls-13 {
        fill: #72a2bd;
      }

      .cls-14 {
        fill: #7aadcb;
      }

      .cls-15 {
        fill: #eea161;
      }

      .cls-16 {
        fill: #696ab1;
      }

      .cls-17 {
        fill: #45bd9d;
      }

      .cls-18, .cls-7 {
        fill: #fff;
      }

      .cls-19 {
        fill: #f0c49a;
      }

      .cls-20 {
        fill: #5393c5;
      }

      .cls-21 {
        fill: #c0d4e5;
      }

      .cls-22 {
        fill: url(#radial-gradient-5);
      }

      .cls-23 {
        fill: url(#radial-gradient);
      }

      .cls-24 {
        fill: url(#radial-gradient-3);
      }

      .cls-25 {
        fill: #955536;
      }

      .cls-8 {
        fill: #dfdfde;
      }

      .cls-26 {
        fill: url(#radial-gradient-2);
      }

      .cls-27 {
        fill: #d78b49;
      }

      .cls-28 {
        fill: #6aa1c2;
      }

      .cls-29 {
        fill: #4e51a3;
      }

      .cls-30 {
        fill: url(#radial-gradient-4);
      }

      .cls-31 {
        fill: #1b7f64;
      }

      .cls-32 {
        fill: #464b52;
      }

      .cls-9 {
        fill: #0d0d0d;
      }

      .cls-33 {
        fill: #fed7b2;
      }

      .cls-34 {
        fill: #f06697;
      }

      .cls-35 {
        fill: #25a863;
      }

      .cls-36 {
        fill: #e8f4fc;
      }

      .cls-37 {
        fill: #5b93b4;
      }

      .cls-38 {
        fill: #3d3f42;
      }

      .cls-39 {
        fill: #ffcd05;
      }

      .cls-40 {
        fill: #354f63;
      }

      .cls-41 {
        fill: url(#radial-gradient-6);
      }

      .cls-42 {
        fill: #db845c;
      }

      .cls-43 {
        fill: #47ba7b;
      }

      .cls-10 {
        fill: #b9c2d7;
      }
    </style>
    <radialGradient id="radial-gradient" cx="-3909.7" cy="-13306.2" fx="-3909.7" fy="-13306.2" r="500.6" gradientTransform="translate(-1265.7 2066.7) scale(4.2 -4.2)" gradientUnits="userSpaceOnUse">
      <stop offset="0" stop-color="#010101" stop-opacity=".3"/>
      <stop offset="1" stop-color="#010101" stop-opacity="0"/>
    </radialGradient>
    <radialGradient id="radial-gradient-2" cx="-1666.1" cy="-15538.3" fx="-1666.1" fy="-15538.3" r="486.3" gradientTransform="translate(-1265.7 2066.7) scale(4.2 -4.2)" gradientUnits="userSpaceOnUse">
      <stop offset="0" stop-color="#010101" stop-opacity=".3"/>
      <stop offset="1" stop-color="#010101" stop-opacity="0"/>
    </radialGradient>
    <radialGradient id="radial-gradient-3" cx="7853.2" cy="-10448.5" fx="7853.2" fy="-10448.5" r="481.9" gradientTransform="translate(-1265.7 2066.7) scale(4.2 -4.2)" gradientUnits="userSpaceOnUse">
      <stop offset="0" stop-color="#010101" stop-opacity=".3"/>
      <stop offset="1" stop-color="#010101" stop-opacity="0"/>
    </radialGradient>
    <radialGradient id="radial-gradient-4" cx="-3487.6" cy="-5158.3" fx="-3487.6" fy="-5158.3" r="473.6" gradientTransform="translate(-1265.7 2066.7) scale(4.2 -4.2)" gradientUnits="userSpaceOnUse">
      <stop offset="0" stop-color="#010101" stop-opacity=".3"/>
      <stop offset="1" stop-color="#010101" stop-opacity="0"/>
    </radialGradient>
    <radialGradient id="radial-gradient-5" cx="-5974.9" cy="-6672" fx="-5974.9" fy="-6672" r="519.6" gradientTransform="translate(-1265.7 2066.7) scale(4.2 -4.2)" gradientUnits="userSpaceOnUse">
      <stop offset="0" stop-color="#010101" stop-opacity=".3"/>
      <stop offset="1" stop-color="#010101" stop-opacity="0"/>
    </radialGradient>
    <radialGradient id="radial-gradient-6" cx="-1514.9" cy="-6074.5" fx="-1514.9" fy="-6074.5" r="475.6" gradientTransform="translate(-1265.7 2066.7) scale(4.2 -4.2)" gradientUnits="userSpaceOnUse">
      <stop offset="0" stop-color="#010101" stop-opacity=".3"/>
      <stop offset="1" stop-color="#010101" stop-opacity="0"/>
    </radialGradient>
  </defs>
  <!-- Generator: Adobe Illustrator 28.6.0, SVG Export Plug-In . SVG Version: 1.2.0 Build 709)  -->
  <g>
    <g id="Layer_1">
      <g id="Layer_1-2" data-name="Layer_1">
        <g id="Layer_1-2">
          <g>
            <path class="cls-5" d="M453.2,320.4c14.9,9.1,27.3,22.8,36.7,40.6l13.6-12c24-21.8-11.4-59.8-37.7-39l-13,10.7h0l.3-.3Z"/>
            <path class="cls-6" d="M461.3,327.2c9.4,5.5,16.9,14,22.7,25l8.4-7.5c14.9-13.7-6.8-37-23.4-24l-8.1,6.5h.3Z"/>
            <path class="cls-5" d="M332.7,320.4c-14.9,9.1-27.3,22.8-36.7,40.6l-13.6-12c-24-21.8,11.4-59.8,37.4-39l13,10.7h0v-.3Z"/>
            <path class="cls-6" d="M324.6,327.2c-9.4,5.5-16.9,14-22.7,25l-8.4-7.5c-14.9-13.7,6.8-37,23.4-24l8.1,6.5h-.3Z"/>
            <path class="cls-10" d="M360,505c8.4,8.8,20.5,14,32.8,14s24.4-4.9,32.8-14c120.2-37.4,87.7-200.8-32.8-201.5-120.5.3-153,163.8-32.8,201.5h0Z"/>
            <path class="cls-8" d="M501,401.6c-3.6-49.7-42.9-97.8-108.2-97.8s-104.6,48.1-108.2,97.8c2.6,37.4,26.3,73.5,75.4,88.7,8.4,8.8,20.5,14,32.8,14s24.4-4.9,32.8-14c48.7-15.3,72.4-51.3,75.4-88.7h0Z"/>
            <path class="cls-9" d="M387.6,495.2c.6,2.3,3.2,3.9,5.5,3.9s4.9-1.6,5.5-3.9c1.9-7.8,8.4-13,16.6-18.5,2.9-2,6.8-5.2-1.6-11-9.1-5.8-32.2-5.8-41.2,0-8.4,5.8-4.5,9.1-1.6,11,8.1,5.8,14.9,10.7,16.9,18.5h0Z"/>
            <path class="cls-4" d="M389.5,494.6c0,.7.6,1.3,1.3,2,.6.3,1.3.7,2.3.7s1.6,0,2.3-.7c.6-.3,1-1,1.3-2,1-4.2,3.6-7.8,6.5-10.7s6.8-5.8,11-8.8c1-.7,2.3-1.6,2.6-2.9,0-1-1-2.6-4.2-4.9-4.2-2.9-11.7-4.2-19.5-4.2s-15.3,1.3-19.5,4.2c-3.6,2.3-4.5,3.9-4.2,4.9,0,1,1.6,2,2.6,2.9,4.2,2.9,8.1,5.8,11,8.8,3.2,3.2,5.5,6.5,6.5,10.7h0ZM388.6,499.8c-1.3-1-2.3-2.3-2.9-3.6h0c-1-3.6-2.9-6.5-5.5-9.4-2.9-2.9-6.5-5.5-10.4-8.5-1.9-1.3-3.9-2.9-4.2-5.5-.3-2.3,1-5.5,6.2-8.8,4.9-3.2,13.3-4.9,21.8-4.9s16.9,1.6,21.8,4.9c5.2,3.6,6.5,6.5,6.2,8.8-.3,2.6-2.6,4.2-4.2,5.5-3.9,2.9-7.5,5.5-10.4,8.5-2.6,2.6-4.5,5.5-5.5,9.1h0c-.6,2-1.6,3.2-2.9,3.9-1.3,1-2.9,1.6-4.5,1.6s-3.2-.7-4.5-1.6h-.6Z"/>
            <path class="cls-5" d="M345.4,451.7c-19.2-15.9-19.8-53.6,5.5-65.3,15.9-7.2,32.8,4.5,31.8,21.5-1,17.5-24.7,21.5-32.5,42.6-.3,1-1,1.6-2.3,2-1,0-1.9,0-2.9-.7h.3Z"/>
            <path class="cls-5" d="M443.8,451.7c19.2-15.9,20.1-53.6-5.5-65.3-15.9-7.2-32.8,4.5-31.8,21.5,1,17.5,24.7,21.5,32.5,42.6.3,1,1.3,1.6,2.3,2,1,0,1.9,0,2.9-.7h-.3Z"/>
            <path class="cls-7" d="M358,402c3.6,0,6.8,2.9,6.8,6.5s-3.2,6.5-6.8,6.5-6.8-2.9-6.8-6.5,2.9-6.5,6.8-6.5h0Z"/>
            <path class="cls-7" d="M431.1,402c-3.9,0-6.8,2.9-6.8,6.5s2.9,6.5,6.8,6.5,6.8-2.9,6.8-6.5-3.2-6.5-6.8-6.5h0Z"/>
            <path class="cls-9" d="M387.6,495.2c.6,2.3,3.2,3.9,5.5,3.9s4.9-1.6,5.5-3.9c1.9-7.8,8.4-13,16.6-18.5,2.9-2,6.8-5.2-1.6-11-9.1-5.8-32.2-5.8-41.2,0-8.4,5.8-4.5,9.1-1.6,11,8.1,5.8,14.9,10.7,16.9,18.5h0Z"/>
            <path class="cls-5" d="M387.6,495.2c.6,2.3,3.2,3.9,5.5,3.9s4.9-1.6,5.5-3.9c1.9-7.8,8.4-13,16.6-18.5.6-.3,1-.7,1.6-1-.6-1-1.6-1.6-3.2-2.6-9.1-5.8-32.2-5.8-41.2,0-1.3,1-2.3,1.6-3.2,2.6.6.3,1,.7,1.3,1,8.1,5.8,14.9,10.7,16.9,18.5h.3Z"/>
            <path class="cls-4" d="M375.3,505.6c-1,.3-2.3,0-2.6-1-.6-1,0-2.3,1-2.6,6.5-2.6,13-3.6,19.8-3.6s13.3,1.3,19.8,3.6c1,.3,1.6,1.6,1,2.6-.3,1-1.6,1.6-2.6,1-5.8-2.3-12-3.3-18.2-3.3s-12.3,1-18.2,3.3h0Z"/>
          </g>
          <g>
            <g id="legBend_0_Layer0_0_FILL">
              <path class="cls-29" d="M476.3,748.1c-3.6-4.9-7.5-9.1-11.7-12.7l-23.4,22.1c2.9,1.3,5.5,3.2,7.5,5.8l27.3-15.3h.3Z"/>
              <path class="cls-15" d="M500.3,761.7l-3.6-6.8-41.2,21.8,3.9,7.8,40.9-22.4h0v-.3Z"/>
              <path class="cls-18" d="M496.7,754.9l-20.5-6.8-27.3,15.3,6.8,13,41.2-21.8h0l-.3.3Z"/>
              <path class="cls-16" d="M415.5,731.8c-2.6,3.2-3.6,7.2-3.2,11.4.6,4.2,2.6,7.8,6.2,10.4,3.2,2.6,7.1,3.6,11.7,2.9,3.9-.7,7.5,0,10.7,1.3h0l23.4-22.1c-10.7-8.5-23.4-11.7-38.3-9.8-4.5.7-7.8,2.6-10.7,5.8h.3Z"/>
            </g>
            <g id="leg_0_Layer0_0_FILL">
              <path class="cls-29" d="M441.2,754.6h-13.3c0-.3,0,30.2,0,30.2h13.3c0,.3,0-30.2,0-30.2h0Z"/>
              <path class="cls-18" d="M457.1,739.6l-15.9,15v30.5l15.9.7v-46.2h0Z"/>
              <path class="cls-15" d="M464.9,740h-8.1v45.8h8.1c0,.3,0-45.8,0-45.8h0Z"/>
              <path class="cls-16" d="M403.5,753c-4.2,0-7.8,1.6-11,4.9-2.9,3.3-4.5,7.1-4.5,11.7s1.6,8.4,4.5,11.7c2.9,3.3,6.5,4.9,11,4.9l24.4-1.3v-30.9l-24.4-1.3h0v.3Z"/>
            </g>
            <g>
              <g id="arm_0_Layer0_0_FILL">
                <path class="cls-12" d="M424.9,670.7c-6.2,2.3-12,4.9-17.9,8.1,2.3,9.8,7.8,18.5,16.6,26.3,2.3-1.6,4.9-2.6,7.1-3.9,5.5-2.6,11.7-4.2,18.2-5.2,4.2-.3,7.8-2.3,10.4-5.5,2.6-3.2,3.9-7.2,3.6-11.4-.6-4.2-2.6-7.5-5.8-10.1-3.2-2.6-7.1-3.9-11.7-3.3-5.2.7-10.1,1.6-14.6,2.9-1.9.7-3.9,1-5.8,2h0Z"/>
                <path class="cls-36" d="M383.4,705.2c0,4.2,1.6,7.8,4.9,10.7s6.8,4.2,11,4.2,8.1-1.6,11-4.5c4.2-4.2,8.4-7.5,13-10.4-8.4-8.1-14-16.9-16.6-26.3-6.8,4.2-13.3,9.4-19.2,15.3-2.9,2.9-4.2,6.5-4.2,10.7h0v.3Z"/>
              </g>
              <g id="arm_0_Layer0_1_FILL">
                <path class="cls-21" d="M409.4,672.7l-9.4,5.2,19.8,33.5,9.4-5.2-19.8-33.5h0Z"/>
              </g>
            </g>
            <g>
              <g id="body_0_Layer0_0_FILL">
                <path class="cls-21" d="M428.8,728.2l-9.4-9.1-56.5,54.9,9.4,9.1,56.5-54.9h0Z"/>
                <path class="cls-16" d="M435.7,740.6c-.6-3.9-2.9-8.1-6.8-12.3l-56.5,54.9c4.2,3.9,8.4,6.2,12.7,6.8l50.7-49.4Z"/>
                <path class="cls-36" d="M399.9,688.6c-5.5-7.8-10.4-9.4-14.6-4.9l-58.8,57.2c-4.9,4.2-3.2,9.1,4.9,14.3l31.8,18.8,56.5-54.9-19.5-30.9h0l-.3.3Z"/>
              </g>
              <g id="body_0_Layer0_0_MEMBER_0_FILL">
                <path class="cls-11" d="M357.1,684c-7.1.7-13.3,3.9-18.8,9.1-5.5,5.2-8.8,11.4-9.4,18.5-.6,7.2,1.6,13,6.2,17.5l1,1c4.5,3.9,10.1,5.5,16.6,4.9,7.5-.7,13.6-3.6,19.2-8.8,5.5-5.2,8.4-11.7,9.1-18.8.6-6.5-1-11.7-5.2-16.2,0-.3-.6-.7-1-1-4.5-4.5-10.7-6.5-17.9-6.2h.3Z"/>
              </g>
              <g id="body_0_Layer0_0_MEMBER_1_FILL">
                <path class="cls-27" d="M386.6,752l-24,27.9c3.6,2.6,7.5,5.2,11.4,7.8l20.5-25.3c-2.3-3.3-4.9-6.8-7.8-10.4h0Z"/>
                <path class="cls-15" d="M386.6,752c-3.9-4.5-8.4-9.4-13.6-14.3-13.6,2.9-28.6,1.6-44.2-3.9l-10.1,6.8c1.9,7.2,16.9,20.2,44.2,39.7l24-28h0l-.3-.3Z"/>
              </g>
              <g id="body_0_Layer0_0_MEMBER_2_FILL">
                <path class="cls-27" d="M426.6,717.8l-28.9,23.4c3.6,2.9,7.1,5.5,10.7,7.5l26.3-20.2c-2.9-3.9-5.5-7.5-8.1-11h0v.3Z"/>
                <path class="cls-15" d="M383.1,727.9c4.9,5.2,9.7,9.4,14.6,13.3l28.9-23.4c-19.8-26.7-33.5-41-40.6-42.9l-6.8,9.8c5.8,15.3,7.1,29.6,4.2,43.2h-.3Z"/>
              </g>
              <g id="body_0_Layer0_0_MEMBER_3_FILL">
                <path class="cls-21" d="M330.4,733.5l2.9,10.4,39-10.1-2.9-10.4-38.6,10.1M379.5,685.7l-10.4,37.7,10.7,2.9,10.4-37.7-10.7-2.9h0Z"/>
                <path class="cls-36" d="M379.8,726.3l-10.7-2.9,2.9,10.4,7.8-7.5h0Z"/>
              </g>
            </g>
            <g id="shadow_0_Layer0_0_FILL">
              <path class="cls-23" d="M401.2,702.9c-10.4-6.8-23.1-10.1-37.7-10.1s-27.6,3.2-38.3,10.1c-10.4,6.8-15.6,15.3-15.6,24.7s5.2,17.5,15.6,24.4c10.7,6.8,23.4,10.4,38.3,10.4s27.3-3.6,37.7-10.4c10.7-6.8,15.9-15,15.9-24.4s-5.2-17.9-15.9-24.7Z"/>
            </g>
            <g>
              <g id="headShock_0_Layer0_0_FILL">
                <path class="cls-32" d="M359.3,615.5l-10.4-9.4c-25.7,4.2-48.7,11-69.8,19.8-11.7,4.9-15.9,11.7-12.3,21.1l1.6,4.2c0-6.2,4.5-11.4,13.3-15,21.1-8.8,44.2-15.3,69.8-19.8l7.5-1M389.2,619.7v-3.3c-1.6-9.8-7.8-14.3-18.8-13.7l-9.1,12.3,12-2c7.8-.7,13,1.6,15.9,6.2h0v.3Z"/>
                <path class="cls-38" d="M373,613.5l-12,2-1,1-1-1-7.5,1c-25.7,4.2-48.7,11-69.8,19.8-8.8,3.6-13.3,8.5-13.3,15l18.5,47.1c2.9,7.2,8.8,9.4,17.5,7.2l79.9-20.2c8.8-2.3,13-7.2,11.7-14.6l-7.1-51c-2.9-4.5-8.4-6.8-15.9-6.2h0Z"/>
              </g>
              <g id="headShock_0_Layer0_1_FILL">
                <path class="cls-12" d="M279.1,699.3c-2.9,4.9-3.9,10.1-2.3,15.9s4.9,9.8,9.7,12.7c5.2,2.9,10.7,3.9,16.2,2.6,5.5-1.3,10.1-4.5,13-9.8,2.9-4.9,3.6-10.1,2.3-15.6-1.6-5.5-4.9-9.8-9.7-12.7-5.2-2.9-10.7-3.9-16.2-2.6-5.5,1.3-9.7,4.5-13,9.8M291.1,720.5c-2.9-1.6-4.9-4.2-5.8-7.8-1-3.2-.3-6.5,1.3-9.4s4.2-4.9,7.8-5.5c3.6-1,6.8-.3,9.7,1.3,2.9,2,4.9,4.5,5.8,7.8,1,3.6.3,6.5-1.3,9.4s-4.5,4.9-7.8,5.8-6.5.3-9.4-1.6M387.3,665.5c-5.5,1.3-9.7,4.5-13,9.8-2.9,4.9-3.9,10.1-2.3,15.9s4.9,9.8,9.7,12.7c5.2,2.9,10.7,3.9,16.2,2.6,5.5-1.3,10.1-4.5,13-9.8,2.9-4.9,3.6-10.1,2.3-15.6-1.6-5.5-4.9-9.8-9.7-12.7-5.2-2.9-10.7-3.9-16.2-2.6M395.7,698c-3.2,1-6.5.3-9.4-1.6-3.2-1.6-5.2-4.2-6.2-7.8-1-3.2-.3-6.5,1.3-9.4s4.2-4.9,7.8-5.5c3.6-1,6.8-.3,9.7,1.3,2.9,2,4.9,4.5,5.8,7.8,1,3.6.3,6.5-1.3,9.4-1.9,2.9-4.5,4.9-7.8,5.8h0Z"/>
                <path class="cls-11" d="M285.3,713c1,3.6,2.9,5.8,5.8,7.8s6.2,2.3,9.4,1.6c3.6-1,6.2-2.9,7.8-5.8s2.3-6.2,1.3-9.4c-1-3.2-2.9-5.8-5.8-7.8-2.9-1.6-6.2-2.3-9.7-1.3-3.2,1-5.8,2.6-7.8,5.5-1.6,3.2-2.3,6.2-1.3,9.4M386.3,696.7c2.9,2,6.2,2.3,9.4,1.6,3.6-1,6.2-2.9,7.8-5.8s2.3-6.2,1.3-9.4-2.9-5.8-5.8-7.8c-3.2-1.6-6.5-2.3-9.7-1.3-3.2,1-5.8,2.6-7.8,5.5-1.9,3.3-2.3,6.2-1.3,9.4,1,3.6,2.9,5.8,6.2,7.8h0Z"/>
              </g>
              <g id="headShock_0_Layer0_2_FILL">
                <path class="cls-12" d="M385.3,723.7c9.1-3.6,13-9.8,11.7-18.5l-10.4-66.6-107.5,27,29.2,77.3,77-19.2h0Z"/>
              </g>
              <g id="headShock_0_Layer0_3_FILL">
                <path class="cls-18" d="M311.3,699.3c.6,2.9,2.3,5.2,4.9,6.8s5.5,2.3,8.8,1.3c2.9-.7,5.2-2.6,6.5-5.2,1.3-2.6,1.6-5.2,1-8.1s-2.3-5.2-4.9-6.8c-2.6-1.6-5.2-2.3-8.1-1.3-2.9.7-5.5,2.6-6.8,5.2-1.3,2.6-1.6,5.2-1,8.1M317.8,698v-.7c-.6-1.6-.3-3.6.3-4.9,1-1.6,2.3-2.6,3.9-3.2,1.9-.3,3.6,0,4.9,1s2.6,2.3,2.9,3.9v.7c.6,1.6,0,3.2-.3,4.9-1,1.6-2.3,2.6-3.9,3.2-1.6.3-3.2,0-4.9-1-1.3-1-2.3-2.3-2.9-3.9M359.7,695.1c2.6,1.6,5.5,2.3,8.8,1.3,2.9-.7,5.2-2.6,6.2-5.2,1.6-2.6,1.9-5.5,1.3-8.5s-2.6-5.2-5.2-6.8c-2.3-1.6-5.2-2.3-8.1-1.3-2.9.7-5.2,2.6-6.8,5.2-1.3,2.6-1.6,5.2-1,8.1s2.3,5.2,4.9,6.8M365.5,680.8c1.6,1,2.6,2.3,3.2,3.9v.7c.6,1.6,0,3.2-.6,4.9s-1.9,2.6-3.6,2.9-3.6,0-5.2-1c-1.3-1-2.3-2.3-2.9-3.9v-1c-.6-1.6-.3-3.2,0-4.5,1-1.6,2.3-2.6,4.2-3.3,1.6-.3,3.2,0,4.9,1h0v.3Z"/>
                <path class="cls-38" d="M317.8,697.4v.7c.6,1.6,1.6,2.9,3.2,3.9,1.6,1,3.2,1.3,4.9,1,1.9-.3,3.2-1.6,3.9-3.2s1-3.2.6-4.9v-.7c-.6-1.6-1.6-2.9-3.2-3.9-1.6-1-3.2-1.3-4.9-1s-2.9,1.6-3.9,3.2c-.6,1.6-1,3.2-.6,4.9M368.8,684.7c-.6-1.6-1.6-2.9-3.2-3.9-1.6-1-2.9-1.3-4.9-1-1.6.3-2.9,1.6-4.2,3.3-.6,1.6-1,2.9-.6,4.5v1c.6,1.6,1.6,2.9,2.9,3.9,1.6,1,3.6,1.3,5.2,1s2.9-1.3,3.6-2.9c1-1.6,1-3.3.6-4.9v-.7h0l.6-.3Z"/>
              </g>
              <g id="headShock_0_Layer0_3_MEMBER_0_FILL">
                <path class="cls-38" d="M301.5,682.4l2.6,7.2,26.3-9.8-2.6-7.2-26.6,9.8M345.7,662.6l1.3,7.5,28.3-4.9-1.3-7.2-28.3,4.5h0Z"/>
              </g>
              <g id="headShock_0_Layer0_3_MEMBER_1_FILL">
                <path class="cls-11" d="M348,709.1c-2.3.7-4.2,2-5.2,3.9-1,2-1.3,4.2-.6,6.2.6,2.3,1.9,3.9,3.9,5.2s4.2,1.6,6.5,1,3.9-2,5.2-3.9,1.6-3.9,1-6.2-1.9-3.9-3.9-5.2c-1.9-1-4.2-1.3-6.5-.7h0l-.3-.3Z"/>
              </g>
              <g id="headShock_0_Layer0_3_MEMBER_2_FILL">
                <path class="cls-38" d="M345.4,701c-6.2,1.6-11,3.9-14.6,7.5-3.2,3.2-4.9,6.2-4.5,9.4,0,.3,0,1,.3,1.3,0,.3.6.7,1,1s1,.3,1.3,0c7.8-.7,14.3-3.2,20.1-7.8,7.1,1,14.3,0,21.4-2.6.6,0,1-.7,1-1s.3-1,.3-1.3v-1.3c-1.3-2.9-4.2-4.9-8.8-6.2-4.9-1.3-10.4-1.3-16.2,0h-1.3v1Z"/>
              </g>
              <g id="headShock_0_Layer0_3_MEMBER_3_FILL">
                <path class="cls-25" d="M353.2,701.6c1.3-1.6,1.9-3.2,1.6-4.9s-1.6-2.6-3.6-3.6c-1.9-.7-4.2-.7-6.8,0-2.3.7-4.2,1.6-5.8,3.2-1.3,1.6-1.9,3.2-1.6,4.9s1.6,2.6,3.6,3.6c1.9,1,4.2,1,6.8.3,2.6-.7,4.5-1.6,5.8-3.6h0Z"/>
              </g>
              <g id="headShock_0_Layer0_4_FILL">
                <path class="cls-38" d="M281.4,666.5h0c-1.6.7-2.9,2-3.6,3.6s-1,3.3,0,4.5l15.6,38.7c.6,1.6,1.6,2.6,3.2,3.6,1.6.7,3.2.7,4.9,0h0c1.6-.7,2.9-1.6,3.6-3.2s.6-3.2,0-4.9l-15.6-38.7c-.6-1.6-1.9-2.9-3.6-3.6s-3.2-.7-4.9,0M380.8,642.8c-1,1.3-1.3,2.9-1.3,4.5l5.5,41c0,2,1,3.3,2.6,4.2,1.3,1,2.9,1.6,4.9,1.3h0c1.6,0,3.2-1,4.2-2.3,1.3-1.6,1.6-3.2,1.3-4.9l-5.8-41.3c0-1.6-1-2.9-2.6-3.9-1.6-1.3-3.2-1.6-4.9-1.3h0c-1.6.3-3.2,1.3-4.2,2.6h.3Z"/>
              </g>
              <g id="headShock_0_Layer0_5_FILL">
                <path class="cls-38" d="M374.3,652.2c10.1-6.2,14.6-11.4,13.3-15.9-1.3-4.5-7.5-6.8-19.5-6.8s-25,2-40.3,6.2c-15.3,4.2-27.9,9.8-38,15.9-10.1,6.2-14.3,11.7-13.3,15.9,1.3,4.5,7.5,6.8,19.2,6.8s25.3-2,40.3-6.2c15.3-4.2,27.9-9.4,38-15.9h.3Z"/>
              </g>
            </g>
            <g>
              <g id="arm_0_Layer0_0_FILL-2">
                <path class="cls-12" d="M342.5,782.8c-6.2-2.3-12-4.9-17.9-8.1,2.3-9.8,7.8-18.5,16.6-26.3,2.3,1.6,4.9,2.6,7.1,3.9,5.5,2.6,11.7,4.2,18.2,5.2,4.2.3,7.8,2.3,10.4,5.5,2.6,3.2,3.9,7.2,3.6,11.4-.6,4.2-2.6,7.5-5.8,10.1s-7.1,3.9-11.7,3.2c-5.2-.7-10.1-1.6-14.6-2.9-1.9-.7-3.9-1-5.8-1.9h0Z"/>
                <path class="cls-36" d="M300.9,748.1c0-4.2,1.6-7.8,4.9-10.7s6.8-4.2,11-4.2,8.1,1.6,11,4.5c4.2,4.2,8.4,7.5,13,10.4-8.4,8.1-14,16.9-16.6,26.3-6.8-4.2-13.3-9.4-19.2-15.3-2.9-2.9-4.2-6.5-4.2-10.7h0v-.3Z"/>
              </g>
              <g id="arm_0_Layer0_1_FILL-2">
                <path class="cls-21" d="M326.9,780.9l-9.4-5.2,19.8-33.5,9.4,5.2-19.8,33.5h0Z"/>
              </g>
            </g>
            <g id="hand_0_Layer0_0_FILL">
              <path class="cls-11" d="M468.1,706.5h-2.6c-11-.7-19.5-3.9-25.3-9.8,11.4,15,20.8,18.2,28.3,9.8h-.3Z"/>
              <path class="cls-12" d="M443.8,664.5c-2.3,0-3.6,1.3-3.6,3.9v28.3c6.2,5.5,14.6,9.1,25.7,9.8h13c2.6,0,4.2-2,4.9-5.5,1.3-5.5,1.9-10.7,1.6-15.9,0-14.6-13-21.5-39.3-20.5h-2.3,0Z"/>
            </g>
            <g id="hand_0_Layer0_0_FILL-2">
              <path class="cls-11" d="M388.6,747.4h-2.6c-11,.7-19.5,3.9-25.3,9.8,11.4-15,20.8-18.2,28.3-9.8h-.3Z"/>
              <path class="cls-12" d="M363.9,789c-2.3,0-3.6-1.3-3.6-3.9v-28.3c6.2-5.5,14.6-9.1,25.7-9.7h13c2.6,0,4.2,2,4.9,5.5,1.3,5.5,1.9,10.7,1.6,15.9,0,14.6-13,21.4-39.3,20.5h-2.3,0Z"/>
            </g>
          </g>
          <g>
            <g>
              <g id="arm_0_Layer0_0_FILL-3">
                <path class="cls-43" d="M580.5,561.5c6.5-4.2,13.6-7.8,21.8-10.4,3.9-1.3,7.8-1,11.7.7s6.5,4.5,8.1,8.5c1.3,3.9,1.3,7.8-.6,11.4-1.6,3.9-4.5,6.2-8.4,7.8-5.5,2-10.4,4.2-14.6,7.2-3.9-10.7-9.7-18.8-17.5-24.7h0l-.3-.3Z"/>
                <path class="cls-18" d="M562,578.1c1.3-1.6,2.6-2.9,3.9-4.5,4.2-4.5,9.1-8.5,14.6-12,7.8,5.8,13.6,14,17.5,24.7-2.3,1.6-4.5,2.9-6.5,4.9l-29.9-13h.3Z"/>
                <path class="cls-33" d="M591.6,591.1c-4.5,3.9-8.8,8.5-11.7,14-1.9,3.6-5.2,5.8-9.1,6.8-4.2,1-8.1.3-11.7-1.6s-5.8-5.2-6.8-9.1c-1.3-3.9-.6-7.8,1.6-11.4,2.6-4.2,5.5-8.1,8.4-11.7l29.9,13h-.6Z"/>
              </g>
              <g id="arm_0_Layer0_0_MEMBER_0_FILL">
                <path class="cls-35" d="M573.7,561.2l8.8-6.2,22.4,30.2-8.4,6.2-22.7-30.2h0Z"/>
              </g>
            </g>
            <g>
              <g id="arm_0_Layer0_0_FILL-4">
                <path class="cls-43" d="M687.1,510.2c-7.1,3.2-14,7.5-20.1,12.7-2.9,2.6-4.9,5.8-5.5,10.1-.3,4.2.6,7.8,3.2,11,2.6,3.2,6.2,4.9,10.4,5.2,4.2.3,7.8-.7,11-2.9,4.5-3.6,9.1-6.5,14-8.5-7.5-8.8-11.7-17.9-13-27.3h0v-.3Z"/>
                <path class="cls-18" d="M711.1,503c-1.9,0-3.9.7-5.8,1-6.2,1.3-12,3.6-18.2,6.2,1.3,9.4,5.5,18.5,13,27.3,2.6-1.3,4.9-2.3,7.5-2.9l3.6-31.5h0Z"/>
                <path class="cls-33" d="M707.5,534.5c5.8-2,11.7-2.9,18.2-2.9s7.8-1.3,10.7-4.2c2.9-2.9,4.5-6.5,4.5-10.7s-1.6-7.5-4.5-10.4c-2.9-2.9-6.5-4.5-10.7-4.5s-9.7.3-14.6,1.3l-3.6,31.5h0Z"/>
              </g>
              <g id="arm_0_Layer0_0_MEMBER_0_FILL-2">
                <path class="cls-35" d="M690,504.3l-9.7,4.2,15.6,34.1,9.7-3.9-15.3-34.5h-.3Z"/>
              </g>
            </g>
            <g id="legBend_0_Layer0_0_FILL-2">
              <path class="cls-27" d="M731.2,575.2c-5.2-2.9-10.4-5.2-15.6-6.5l-11.4,28.6c2.9,0,6.2.7,9.4,2.3l17.5-24.4h0Z"/>
              <path class="cls-12" d="M752,572.9l-20.8,2.3-17.5,24.4,17.9,14,26.6-36.1-6.2-4.5h0Z"/>
              <path class="cls-15" d="M670.8,584.6c-1,3.9,0,7.8,1.9,11,2.3,3.6,5.5,5.8,9.7,6.8,4.2,1,7.8,0,11.7-2,3.2-2,6.5-2.9,10.1-3.3l11.4-28.6c-13-3.2-25.7-1-38,6.5-3.6,2.3-5.8,5.2-6.8,9.4h0Z"/>
            </g>
            <g id="legBend_0_Layer0_0_FILL-3">
              <path class="cls-27" d="M627.9,635.6c5.8-1.6,11-3.6,15.6-6.2l-12.7-28.3c-2.3,2-4.9,3.6-8.1,4.9l5.2,29.6Z"/>
              <path class="cls-12" d="M615,651.9l13-15.9-5.2-29.6-22.7,2.6,7.1,43.9,7.8-1h0Z"/>
              <path class="cls-15" d="M663.7,587.5c-2.3-3.6-5.5-5.5-9.4-6.5-4.2-1-8.1,0-11.7,2-3.6,2.3-5.8,5.2-6.8,9.4-1,3.6-2.6,6.8-4.9,9.1l12.7,28.3c11.4-6.5,18.8-16.9,22.1-30.5,1-4.2.3-7.8-1.9-11.4h0v-.3Z"/>
            </g>
            <g>
              <g id="body_0_Layer0_0_FILL-2">
                <path class="cls-12" d="M694.9,570.3l-65.3,41,6.8,10.4,65.3-41-6.8-10.4h0Z"/>
                <path class="cls-15" d="M636.7,621.3c3.2,4.5,6.8,7.5,10.4,8.8l58.8-36.7c0-3.9-1-8.1-3.9-13l-65.3,41h0Z"/>
                <path class="cls-43" d="M694.9,570.3l-12-33.2c-3.6-8.5-7.8-11-13-7.5l-67.9,42.6c-5.5,2.9-4.9,7.8,1.6,14.6l26,24.4,65.3-41h0Z"/>
              </g>
              <g id="body_0_Layer0_1_FILL">
                <path class="cls-12" d="M621.4,607.7l12.7-3.9-12-36.1-11.4,7.2,10.7,32.8M688.7,569.7l8.8-9.4-26-23.1-11.4,7.2,28.9,25.3h-.3Z"/>
              </g>
              <g id="body_0_Layer0_2_FILL">
                <path class="cls-19" d="M657.2,534.5c-3.6-5.2-8.8-8.5-15.6-9.4-6.8-.7-13.3.7-19.8,4.9-6.2,3.9-10.4,9.1-12.7,15.6-1.9,6.5-1,12.3,2.3,17.9,0,.3.6.7.6,1,3.2,4.5,8.1,7.5,14.6,8.1,7.1,1,13.6-.7,19.8-4.5,6.2-3.9,10.4-9.1,12.3-15.9,1.9-5.8,1.3-11.4-1.6-16.2,0-.3-.3-.7-.6-1h0l.6-.3Z"/>
              </g>
              <g id="body_0_Layer0_3_FILL">
                <path class="cls-35" d="M607.2,566.1l.6,10.4,39-1.6-.6-10.4-39,2M664,530.3l-17.9,33.8,9.4,4.9,17.9-33.8-9.4-4.9h0Z"/>
                <path class="cls-43" d="M655.9,569l-9.4-4.9.6,10.4,8.8-5.5h0Z"/>
              </g>
            </g>
            <g id="shadow_0_Layer0_0_FILL-2">
              <path class="cls-26" d="M678,545.9c-9.7-4.2-21.4-6.2-34.8-5.5-13.3.6-25,3.6-34.4,8.8s-13.6,11.4-13.3,17.9c.3,6.5,5.5,12,15.3,16.2,10.1,4.2,21.8,6.2,35.4,5.5,13.6-.6,25-3.6,34.1-8.8,9.4-5.2,14-11,13.6-17.9-.3-6.8-5.5-12-15.6-16.6h0l-.3.3Z"/>
            </g>
            <g id="hand_0_Layer0_0_FILL-3">
              <path class="cls-19" d="M748.8,531.6l-2.3,1c-10.4,2.3-19.2,2-26.6-1.6,15.3,10.4,24.7,10.7,28.9,1h0v-.3Z"/>
              <path class="cls-33" d="M713.4,500.1c-2.3.7-2.9,2.3-2.3,4.5l8.8,26c7.1,3.6,16.2,4.2,26.6,1.6l2.3-1h0c2.6-.7,5.5-1.6,8.4-2.6h1c2.3-1,3.2-3.3,2.6-6.8-.6-5.5-1.6-10.4-3.2-15.3-4.5-13.7-18.8-15.9-42.5-7.8l-2.3.7h0l.6.6Z"/>
            </g>
            <g>
              <g id="headFocus_0_Layer0_0_FILL">
                <path class="cls-33" d="M566.9,513.8c-3.9,4.2-5.5,9.1-5.2,14.6,0,5.5,2.6,10.4,6.8,14,4.2,3.9,9.4,5.5,14.9,5.2,5.5,0,10.4-2.6,14.3-6.8,3.9-4.2,5.5-9.1,5.2-14.6s-2.6-10.4-6.5-14c-4.2-3.9-9.4-5.8-14.9-5.5-5.5,0-10.4,2.6-14.3,6.8M574,536.5c-2.6-2.3-3.9-5.2-3.9-8.5s1-6.2,3.2-8.8c2.3-2.6,4.9-3.9,8.4-3.9s6.5,1,9.1,2.9c2.6,2.3,3.9,5.2,3.9,8.5s-1,6.5-3.2,8.8c-2.3,2.6-5.2,3.9-8.8,3.9s-6.5-1-8.8-3.2M676.7,502.4c-5.5,0-10.4,2.6-14.3,6.8-3.9,4.2-5.5,9.1-5.2,14.6.3,5.5,2.6,10.4,6.8,14,4.2,3.9,9.4,5.5,14.9,5.2,5.5,0,10.4-2.6,14.3-6.8,3.9-4.2,5.5-9.1,5.2-14.6-.3-5.5-2.6-10.4-6.5-14-4.2-3.9-9.4-5.8-14.9-5.5M678.3,535.2c-3.6,0-6.5-1-8.8-3.2-2.6-2.3-3.9-5.2-4.2-8.5,0-3.2,1-6.2,3.2-8.8,2.3-2.6,4.9-3.9,8.4-3.9s6.5,1,9.1,2.9c2.6,2.3,3.9,5.2,3.9,8.5s-1,6.5-3.2,8.8c-2.3,2.6-5.2,3.9-8.8,3.9l.3.3Z"/>
                <path class="cls-1" d="M569.8,527.7c0,3.6,1.6,6.2,3.9,8.5,2.6,2.3,5.5,3.2,8.8,3.2s6.5-1.6,8.8-3.9c2.3-2.6,3.2-5.5,3.2-8.8s-1.6-6.2-3.9-8.5c-2.6-2.3-5.5-3.3-9.1-2.9-3.6,0-6.2,1.6-8.4,3.9-2.3,2.6-3.2,5.5-3.2,8.8M669.5,532c2.6,2.3,5.5,3.2,8.8,3.2s6.5-1.6,8.8-3.9c2.3-2.6,3.2-5.5,3.2-8.8s-1.6-6.2-3.9-8.5c-2.6-2.3-5.5-3.2-9.1-2.9-3.6,0-6.2,1.6-8.4,3.9-2.3,2.6-3.6,5.5-3.2,8.8,0,3.6,1.6,6.2,4.2,8.5h0l-.3-.3Z"/>
              </g>
              <g id="headFocus_0_Layer0_1_FILL">
                <path class="cls-33" d="M663,557.6c9.1-1.6,14.3-6.8,14.9-15.3l3.6-66-108.2,5.2,12.3,80,77.3-3.6v-.3Z"/>
              </g>
              <g id="headFocus_0_Layer0_2_FILL">
                <path class="cls-12" d="M677.6,425l-30.9,31.8c-29.9-9.4-59.1-3.6-88,16.9l22.1,28-.6-13c1.3,0,2.6-.7,4.2-1h.6c9.1,3.6,20.1,4.9,33.1,4.2,12.7-.7,23.7-3.2,32.5-7.5,2.3-1.3,4.5-2.3,6.2-3.6,8.1.3,15.9,1.3,24,2.6l.6,14.3,11.7-24.7c2.9-7.8,4.5-15,5.2-22.1-1.9-10.1-9.1-19.2-20.8-27h0v1Z"/>
                <path class="cls-42" d="M646.8,457.2l30.9-31.8c11.7,7.8,18.5,16.9,20.8,27,1-17.9-6.2-33.2-21.8-46.2l-30.5,39.7c-31.2-12.3-61.7-4.5-91.3,23.4l3.9,4.9c28.6-20.5,58.1-26.3,88-16.9h0Z"/>
              </g>
              <g id="headFocus_0_Layer0_3_FILL">
                <path class="cls-18" d="M597.7,522.5c0,2.9,1.3,5.5,3.2,7.5,2.3,2,4.9,2.9,7.8,2.9s5.2-1.3,7.1-3.6,2.9-4.9,2.6-7.8c0-2.9-1.3-5.5-3.6-7.5-1.9-2-4.5-2.9-7.5-2.9s-5.5,1.3-7.5,3.6c-1.6,2.3-2.6,4.9-2.6,7.8M614.3,515.4c1.3,1.6,1.9,3.9,2.3,6.2,0,2.6-.3,4.5-1.6,6.5-1,2-2.6,2.9-4.2,2.9s-3.2-.7-4.5-2.6c-1.3-1.6-1.9-3.6-2.3-6.2,0-2.3.3-4.5,1.6-6.5,1-2,2.6-2.6,4.2-2.9,1.9,0,3.2.7,4.5,2.3M651.3,509.2c-2.9,0-5.5,1.3-7.5,3.6-1.6,2.3-2.6,4.9-2.6,7.8s1.3,5.5,3.2,7.5c2.3,2,4.9,2.9,7.8,2.9s5.5-1.3,7.1-3.6c1.9-2.3,2.9-4.9,2.9-7.8s-1.3-5.5-3.6-7.5c-1.9-2-4.5-2.9-7.5-2.9M642.9,520.2c0-2.3.3-4.5,1.3-6.5,1.3-2,2.6-2.9,4.2-2.9s3.2.7,4.2,2.3c1.3,1.6,2.3,3.9,2.3,6.2s-.3,4.5-1.6,6.5c-1,2-2.3,2.9-4.2,2.9s-3.2-.7-4.5-2.6c-1.3-1.6-1.9-3.6-1.9-6.2h0l.3.3Z"/>
                <path class="cls-12" d="M616.6,521.5c0-2.3-1-4.5-2.3-6.2-1.3-1.6-2.9-2.6-4.5-2.3-1.6,0-3.2,1-4.2,2.9s-1.6,3.9-1.6,6.5,1,4.5,2.3,6.2c1.3,1.6,2.9,2.6,4.5,2.6s3.2-1,4.2-2.9c1-1.6,1.6-3.9,1.6-6.5M644.2,514.1c-1,2-1.6,3.9-1.3,6.5,0,2.6.6,4.5,1.9,6.2,1.6,1.6,2.9,2.6,4.5,2.6s3.2-1,4.2-2.9c1.3-1.6,1.6-3.9,1.6-6.5s-1-4.5-2.3-6.2c-1.3-1.6-2.6-2.6-4.2-2.3-1.6,0-3.2,1-4.2,2.9h0l-.3-.3Z"/>
                <path class="cls-1" d="M639.3,528.4c0-1.6-1-2.9-2.9-4.2-1.6-1-3.9-1.3-6.5-1.3s-4.5.7-6.2,2-2.3,2.9-2.3,4.2,1,2.9,2.6,3.9c1.6,1.3,3.9,1.6,6.2,1.6s4.5-1,6.2-2.3c1.6-1.3,2.6-2.6,2.6-4.2h0l.3.3Z"/>
              </g>
              <g id="headFocus_0_Layer0_3_MEMBER_0_FILL">
                <path class="cls-12" d="M597.7,499.8l-1.9,8.8,23.7,4.9,2.3-8.8-23.7-4.9h-.3Z"/>
              </g>
              <g id="headFocus_0_Layer0_3_MEMBER_1_FILL">
                <path class="cls-12" d="M665.9,505l-1.6-8.8-24,4.5,1.9,8.8,23.7-4.5h0Z"/>
              </g>
              <g id="headFocus_0_Layer0_3_MEMBER_2_FILL">
                <path class="cls-12" d="M634.1,550.5l1-4.9-19.8-4.2-1,4.9,19.8,4.2Z"/>
              </g>
              <g id="headFocus_0_Layer0_4_FILL">
                <path class="cls-12" d="M570.5,490.3l6.8,39.7c0,1.6,1.3,2.9,2.6,4.2,1.3,1,2.9,1.3,4.5,1h0c1.6,0,2.9-1,3.9-2.6,1-1.6,1.3-2.9,1-4.5l-6.8-39.7c-.3-1.6-1.3-2.9-2.6-3.9-1.3-1-2.9-1.3-4.5-1.3h0c-1.6.3-2.9,1.3-3.9,2.6-1,1.3-1.3,2.9-1,4.5M675,479.6c-1.3,1-1.9,2.6-2.3,4.2l-2.9,40c0,1.6.3,3.2,1.6,4.5,1,1.3,2.3,2,4.2,2h0c1.6,0,3.2,0,4.5-1.3s2.3-2.6,2.3-4.2l2.9-40c0-1.6-.3-3.2-1.6-4.5s-2.6-2.3-4.2-2.3h0c-1.6,0-3.2.7-4.5,1.6h0Z"/>
              </g>
            </g>
            <g id="hand_0_Layer0_0_FILL-4">
              <path class="cls-19" d="M576.3,627.2l1.3-2c5.2-9.1,6.8-17.5,5.2-25.3,6.5,16.9,4.2,26-6.5,27.6h0s0,0,0,0v-.3Z"/>
              <path class="cls-33" d="M553.9,585.6c1.3-2,2.9-2.3,5.2-.7l23.7,15c1.6,7.8,0,16.2-5.2,25.3l-1.3,2h0c-1.6,2.6-3.2,4.9-4.9,7.5l-.6,1c-1.3,2-3.6,2.3-7.1,1-5.2-2-10.1-4.2-14.3-6.8-12.3-7.8-11-21.8,3.2-41.9l1.3-2h0v-.3Z"/>
            </g>
          </g>
          <g>
            <g id="back_FL_FL_FL_FL_FL_FL_FL_FL_FL_FL_FL_FL_FL_FL">
              <g id="Symbol_1_0_Layer0_0_MEMBER_0_FILL">
                <path class="cls-32" d="M134.3,495.2l8.4-.7c1,0,1.6,0,2.6,1s1.3,1.6,1.3,2.6c.6,11.7,4.9,22.1,13,30.9.6.7,1,1.3,1,2.6s0,2.3-.6,2.9h0c-11.7-11-19.8-23.4-23.7-37,0-1-.6-1.6-1.3-2.3h-.6Z"/>
                <path class="cls-38" d="M110.6,496.8l24-1.6c.6.7,1,1.6,1.3,2.3,3.9,13.3,12,25.7,23.7,37h0c-.6.7-1.6,1.3-2.3,1.3-25.3,2.9-41.9-8.5-50.3-33.8v-2.6c0-1,.6-1.6,1.3-2,.6-.7,1.3-1,2.3-1h0v.3Z"/>
              </g>
              <g id="Symbol_1_0_Layer0_0_MEMBER_1_FILL">
                <path class="cls-38" d="M57.6,497.8c0-1,.6-1.6,1.3-2.3l24,1.6c.6,0,1.6.3,2.3,1,.6.7,1,1.3,1.3,2v2.6c-8.1,25.7-25,36.7-50.3,33.8-1,0-1.6-.7-2.3-1.3h0c11.7-11,19.8-23.4,23.7-37h0v-.3Z"/>
                <path class="cls-32" d="M46.9,498.5c0-1,.6-2,1.3-2.6s1.6-1,2.6-1l8.4.7c-.6.7-1,1.6-1.3,2.3-3.9,13.3-12,25.7-23.7,37h0c-.6-1-1-2-.6-2.9,0-1,.3-2,1-2.6,8.1-8.8,12.3-19.2,13-30.9h-.6Z"/>
              </g>
            </g>
            <g id="legBend_0_Layer0_0_FILL-4">
              <path class="cls-21" d="M15.7,620.7c8.1,0,13.3-3.9,15.3-11.7l26.6,6.5-2.3,14.6-39.6-9.1v-.3Z"/>
              <path class="cls-18" d="M14.4,628.2l1.3-7.5,39.6,9.1-1.3,7.5-39.6-9.1Z"/>
              <path class="cls-16" d="M59.6,606.4l-22.4-12.3c6.5-10.7,16.2-17.2,28.9-19.5,3.9-.7,7.1,0,10.4,2.6,2.9,2.3,4.9,5.5,5.5,9.4.6,3.6,0,6.8-1.3,9.8-10.7,0-17.5,3.2-20.8,10.4h0l-.3-.3Z"/>
              <path class="cls-12" d="M30.7,609c1.6-5.5,3.9-10.4,6.2-15l22.4,12.3c-1.3,2.6-1.9,5.5-2.3,9.1l-26.6-6.5h.3Z"/>
            </g>
            <g id="leg_0_Layer0_0_FILL-2">
              <path class="cls-18" d="M90.4,658l-1.3-7.5h34.4l1,7.5h-34.1Z"/>
              <path class="cls-21" d="M89.1,650.6c7.1-2.3,10.7-7.2,11-15h21.1l2.3,15h-34.4Z"/>
              <path class="cls-12" d="M100.2,635.6h0l-2.3-12.3h21.4l1.9,12.3h-21.1Z"/>
              <path class="cls-16" d="M93.3,600.2c-.6-3.9.3-7.5,2.9-10.1,2.3-2.9,5.5-4.2,9.7-4.2s7.8,1.3,11,4.2c3.2,2.9,5.2,6.2,5.8,10.1-3.9,3.9-5.2,11.7-3.6,22.8h-21.4l-4.5-22.8h0Z"/>
            </g>
            <g id="arm_0_Layer0_0_FILL-5">
              <path class="cls-12" d="M161.5,585.6c3.6,4.5,6.2,8.1,8.1,10.7s4.2,3.2,7.1,1.6c2.9-1.6,4.9-3.9,5.8-7.2s1-6.5,0-9.4c-2.9-6.8-6.5-12.7-11-17.5l-13.6,17.9c1.6,1.3,2.6,2.6,3.9,3.9h-.3Z"/>
              <path class="cls-43" d="M142.7,572.6c2.9,1.3,5.5,2.6,8.1,3.9l13.6-19.5c-2.6-2.3-5.8-4.2-9.1-5.8-6.5-3.6-14-6.2-22.4-8.1-3.2-.7-6.2,0-8.8,2-2.9,2-4.5,4.5-5.2,7.8-1,3.2-.3,6.5,1.3,9.4s4.2,4.5,7.1,5.2c5.5,1.3,10.7,2.9,14.9,5.5h0l.3-.3Z"/>
              <path class="cls-35" d="M171.3,563.5l1.6-2.3-6.8-7.2-1.9,2.9-13.6,19.5-1.3,2,6.5,5.8,1.9-2.6,13.6-17.9v-.3Z"/>
            </g>
            <g id="arm_0_Layer0_0_FILL-6">
              <path class="cls-12" d="M43,497.8c-1.6-5.8-2.9-10.1-3.6-13.3s-2.9-4.5-6.2-4.5-5.8,1.6-8.1,4.2-3.2,5.5-3.2,8.8c0,7.5,1.6,14.3,3.9,20.8l19.2-10.7c-1-2-1.6-3.6-1.9-5.2h0Z"/>
              <path class="cls-43" d="M55.7,517.7c-2.3-2.6-4.2-4.9-5.8-7.2l-19.5,12.3c1.6,3.2,3.9,6.2,6.2,9.4,4.5,6.2,10.7,11.7,17.5,16.9,2.6,2,5.5,2.6,8.8,2,3.2-.7,5.8-2.3,7.5-5.2,1.9-2.6,2.6-5.8,2.3-9.1-.6-3.2-2.3-5.8-4.9-7.8-4.9-3.6-8.8-7.5-12-11.4h0Z"/>
              <path class="cls-35" d="M26.1,513.8l-2.3,1.3,3.6,9.4,2.9-1.6,19.5-12.3,1.9-1.3-3.9-8.1-2.9,1.6-19.2,10.7h0l.3.3Z"/>
            </g>
            <g>
              <g id="body_0_Layer0_0_FILL-3">
                <path class="cls-16" d="M122.9,602.5c-.6,3.6-1.6,7.2-3.2,10.7l-57.2-10.7c-.3-4.2,0-7.8.3-11.4l59.8,11.4h.3Z"/>
                <path class="cls-35" d="M125.2,590.5l-6.8-1.3c0-7.2,4.5-13,13.3-17.5l-.6,2c-2.6,5.2-4.5,10.7-6.2,16.9M64.4,560.9v-2c6.8,7.8,9.1,15,6.8,21.5l-6.8-1.3c.6-6.5.3-12.3,0-18.2M75.5,561.8c0-1.3,2.6-2.3,7.1-2.6,4.5,0,10.1.7,16.2,2s11.4,2.6,15.9,4.2c4.2,2,6.2,3.6,5.8,4.9,0,1.3-2.6,2-6.8,2s-10.1,0-16.2-1.3-11.4-2.6-15.9-4.5c-4.2-1.6-6.2-3.2-5.8-4.5h-.3Z"/>
                <path class="cls-38" d="M61.8,578.4l2.6.7,6.8,1.3,47.4,9.1,6.8,1.3,2.6.7-3.6,11.7h-1.3l-59.8-11.7h-1.3v-12.7h0l-.3-.3Z"/>
                <path class="cls-43" d="M59.2,541.7c0-8.5,1.9-12.7,6.8-12h1l70.8,13.3c5.5.7,6.8,5.5,3.9,14-4.2,4.5-7.8,9.8-10.7,15.9l.6-2c-9.1,4.5-13.3,10.4-13.3,17.5l-47.4-9.1c2.3-6.8,0-14-7.1-21.5v2c-.6-6.8-2.3-13.3-4.9-18.8M82.6,559.2c-4.5,0-6.8,1-7.1,2.6,0,1.3,1.6,2.9,5.8,4.5,4.2,2,9.4,3.6,15.9,4.5,6.2,1.3,11.7,1.6,16.2,1.3,4.5,0,6.8-.7,6.8-2s-1.6-2.9-5.8-4.9c-4.2-1.6-9.7-2.9-15.9-4.2s-11.7-2-16.2-2h.3Z"/>
              </g>
              <g id="body_0_Layer0_1_FILL-2">
                <path class="cls-18" d="M79,532c-.3,5.2,1.3,10.1,4.5,14.6,3.9,5.2,9.4,8.5,15.9,9.8s12.7,0,18.2-3.2c4.5-2.9,7.5-6.8,8.8-12,.6,2.3.6,4.5,0,6.5v1.3c-1,4.9-4.2,8.8-9.1,11.4-5.5,2.9-11.7,3.9-18.8,2.6-6.8-1.3-12.7-4.5-16.9-9.4-3.9-4.2-5.5-9.1-4.9-14.3v-1.3c.3-2.3,1.3-4.5,2.3-6.5h0v.7Z"/>
                <path class="cls-12" d="M79,529.7c1-6.2,4.2-10.7,9.4-14.3,5.5-3.3,11.4-4.2,18.2-2.9,6.5,1.3,12,4.5,15.9,9.4,3.9,5.2,5.2,11,4.2,16.9v2.3c-1.3,5.2-4.2,9.1-8.8,12-5.5,3.6-11.4,4.5-18.2,3.2-6.5-1.3-12-4.5-15.9-9.8-3.6-4.5-4.9-9.4-4.5-14.6v-2h0l-.3-.3Z"/>
              </g>
            </g>
            <g id="shadow_0_Layer0_0_FILL-3">
              <path class="cls-24" d="M66.7,502c8.1-6.5,17.5-9.8,28.9-9.8s21.1,3.2,29.2,9.8,12,14.6,12,23.7-3.9,16.9-12,23.4c-8.1,6.5-17.9,10.1-29.2,10.1s-21.1-3.2-28.9-10.1c-8.1-6.5-12.3-14.3-12.3-23.4s4.2-17.2,12.3-23.7h0Z"/>
            </g>
            <g>
              <g id="headFocus_0_Layer0_0_FILL-2">
                <path class="cls-38" d="M41,473.8c1-12,6.5-22.1,16.9-30.9,11-9.4,24.7-14,40.3-13.7,15.6,0,28.9,5.2,39.9,15,10.1,8.8,15.3,19.2,15.9,31.2-1,13.7-6.5,25-16.9,34.8-11.4,10.7-24.7,15.9-40.3,15.6-15.6,0-28.9-5.8-39.9-16.6-10.1-10.1-15.3-21.8-16.2-35.1h0l.3-.3Z"/>
                <path class="cls-32" d="M41,470.2c0-15,5.8-28,17.2-38.7,11.4-10.4,24.7-15.6,40.3-15.3,15.6,0,28.9,5.8,39.9,16.6,10.7,11,16.2,24,15.9,39v3.6c-.6-12-6.2-22.4-15.9-31.2-11-9.8-24.4-14.6-39.9-15-15.6,0-29.2,4.2-40.3,13.7-10.4,8.5-15.9,18.8-16.9,30.9v-3.6h-.3Z"/>
              </g>
              <g id="headFocus_0_Layer0_1_FILL-2">
                <path class="cls-12" d="M151.8,479.3c3.6,3.9,5.2,8.8,5.2,14.3s-1.9,10.1-5.5,14c-3.6,3.9-8.1,5.8-13,5.8s-9.4-2.3-13-6.2c-3.6-3.9-5.2-8.8-5.2-14s1.9-10.4,5.5-14.3c3.6-3.9,8.1-5.8,13-5.8s9.4,2.3,13,6.2M146.6,502c2.3-2.3,3.2-5.2,3.2-8.5s-1-6.2-3.2-8.8c-2.3-2.3-4.5-3.6-7.8-3.6s-5.8,1-7.8,3.2c-2.3,2.6-3.2,5.5-3.2,8.8s1,6.2,3.2,8.5c1.9,2.3,4.5,3.6,7.8,3.6s5.5-1,7.8-3.6M66.7,506.6c-3.6,3.9-8.1,5.8-13,5.8s-9.4-2.3-13-6.2c-3.6-3.9-5.2-8.8-5.2-14s1.9-10.4,5.5-14.3c3.6-3.9,8.1-5.8,13-5.8s9.4,2.3,13,6.2c3.6,3.9,5.2,8.8,5.2,14.3s-1.9,10.1-5.5,14M61.8,483.8c-2.3-2.3-4.5-3.6-7.8-3.6s-5.5,1-7.8,3.2c-2.3,2.6-3.2,5.5-3.2,8.8s1,6.2,3.2,8.5,4.5,3.6,7.8,3.6,5.5-1,7.8-3.6c2.3-2.3,3.2-5.2,3.2-8.5s-1-6.2-3.2-8.8h0v.3Z"/>
                <path class="cls-11" d="M149.9,493.6c0,3.2-1.3,6.2-3.2,8.5-2.3,2.3-4.9,3.6-7.8,3.6s-5.8-1.3-7.8-3.6c-2.3-2.3-3.2-5.2-3.2-8.5s1.3-6.2,3.2-8.8c1.9-2.3,4.5-3.6,7.8-3.2,2.9,0,5.5,1.3,7.8,3.6,1.9,2.6,3.2,5.5,3.2,8.8M54,480.3c2.9,0,5.5,1.3,7.8,3.6,1.9,2.6,3.2,5.5,3.2,8.8s-1.3,6.2-3.2,8.5c-2.3,2.3-4.9,3.6-7.8,3.6s-5.5-1.3-7.8-3.6c-2.3-2.3-3.2-5.2-3.2-8.5s1.3-6.2,3.2-8.8c2.3-2.3,4.9-3.6,7.8-3.2h0v-.3Z"/>
              </g>
              <g id="headFocus_0_Layer0_2_FILL-2">
                <path class="cls-12" d="M53.4,511.2l-4.5-56.2,95.8,1.3-5.8,55.9c-3.2,12.3-11.4,20.8-24,25.3-6.5,2.3-12.7,3.3-18.8,3.3s-12.3-1-18.8-3.6c-12.7-4.9-20.8-13.7-23.7-26h0Z"/>
              </g>
              <g id="headFocus_0_Layer0_3_FILL-2">
                <path class="cls-38" d="M125.2,498.5v-1c0-2.9-1-5.5-2.6-7.5-1.3-1.6-3.2-2.6-5.2-3.2h13.3c-3.2,2.9-5.2,6.5-5.5,11.7M109.9,503.3c-1-1.6-1.6-3.9-1.6-6.2s.6-4.5,1.6-6.2,2.6-2.6,3.9-2.6,2.9,1,3.9,2.6c1,1.6,1.6,3.9,1.6,6.2s-.6,4.5-1.6,6.2-2.3,2.6-3.9,2.6-2.9-1-3.9-2.6M67.7,496.5v1c0-4.9-1.9-8.8-4.9-11.4h13c-1.9.7-3.9,1.6-5.2,3.2-1.6,2-2.6,4.5-2.6,7.5M84.6,496.8c0,2.6-.6,4.5-1.6,6.2s-2.3,2.6-3.9,2.6-2.9-1-3.9-2.6c-1-1.6-1.6-3.9-1.6-6.2s.6-4.5,1.6-6.2,2.3-2.6,3.9-2.6,2.9,1,3.9,2.6c1,1.6,1.6,3.9,1.6,6.2h0Z"/>
                <path class="cls-18" d="M116.4,486.8h1c1.9.3,3.9,1.6,5.2,3.2,1.6,2,2.6,4.5,2.6,7.5v1c0,2.6-1,4.5-2.6,6.5-1.9,2.3-4.2,3.3-6.8,3.3s-4.9-1.3-6.5-3.3c-1.9-2-2.6-4.5-2.6-7.5s1-5.5,2.9-7.5c1.6-2.3,3.9-3.2,6.5-3.2h.6M108.3,497.2c0,2.6.3,4.5,1.6,6.2,1,1.6,2.3,2.6,3.9,2.6s2.9-1,3.9-2.6c1-1.6,1.6-3.6,1.6-6.2s-.3-4.5-1.6-6.2c-1-1.6-2.3-2.6-3.9-2.6s-2.9,1-3.9,2.6c-1,1.6-1.6,3.9-1.6,6.2M75.5,486.1h1.6c2.6,0,4.9,1.3,6.5,3.2,1.9,2,2.6,4.5,2.6,7.5s-1,5.5-2.9,7.5c-1.6,2.3-3.9,3.2-6.5,3.2s-4.9-1.3-6.8-3.2c-1.6-2-2.3-4.2-2.6-6.5v-1c0-2.9,1-5.5,2.6-7.5,1.6-1.6,3.2-2.6,5.2-2.9M82.6,503c1-1.6,1.6-3.6,1.6-6.2s-.3-4.5-1.6-6.2c-1-1.6-2.3-2.6-3.9-2.6s-2.9,1-3.9,2.6c-1,1.6-1.6,3.9-1.6,6.2s.3,4.5,1.6,6.2c1,1.6,2.3,2.6,3.9,2.6s2.9-1,3.9-2.6Z"/>
              </g>
              <g id="headFocus_0_Layer0_4_FILL-2">
                <path class="cls-25" d="M75.5,517.7c4.5-3.9,8.8-5.2,13-3.9s7.1,4.5,9.1,10.4l-22.1-6.5Z"/>
              </g>
              <g id="headFocus_0_Layer0_5_FILL">
                <path class="cls-25" d="M90.7,508.5c-1.6-1.3-2.3-2.6-2.3-3.9s1-2.9,2.6-4.2c1.6-1,3.6-1.6,5.5-1.6s3.9.7,5.5,1.6c1.6,1.3,2.3,2.6,2.3,4.2s-.6,2.9-2.3,3.9c-1.6,1.3-3.2,2-5.5,2s-4.2-.7-5.5-2h-.3Z"/>
              </g>
              <g id="headFocus_0_Layer0_6_FILL">
                <path class="cls-38" d="M49.5,476.4l-1.9-20.8h1.3v-2l97.8,1.3-1.6,18.8c-16.6-.7-28.6-4.2-36.4-10.7-8.1,10.7-16.6,15.9-25.7,15.9l-3.2-7.8c-10.4,3.9-20.5,5.5-30.2,5.2h0Z"/>
              </g>
              <g id="headFocus_0_Layer0_7_FILL">
                <path class="cls-13" d="M56.6,453.3c1.3-2,2.9-3.6,4.5-5.2,8.4-7.8,20.5-11.4,36.1-11,15.3,0,27.3,4.2,35.4,12,.6.3,1,1,1.6,1.6,1.3,1.3,2.3,2.6,3.2,3.9,1,1.3,1,2.9,0,4.9-9.7-6.2-23.4-9.4-40.6-9.8-17.2,0-30.5,2.6-40.6,8.5-.6-2-.6-3.3,0-4.9h.3Z"/>
              </g>
              <g id="headFocus_0_Layer0_8_FILL">
                <path class="cls-38" d="M133.3,490c-1-1.3-1.3-2.9-1-4.5l1.6-14h11.4l-1.9,15.6c0,1.6-1,2.9-2.3,4.2-1.3,1-2.6,1.3-4.2,1h0c-1.6,0-2.6-1-3.6-2.3h0Z"/>
              </g>
              <g id="headFocus_0_Layer0_9_FILL">
                <path class="cls-38" d="M61.2,484.5c0,1.6,0,3.2-1.3,4.5-1,1.3-2.3,2-3.6,2.3h0c-1.6,0-2.9,0-4.2-1.3s-1.9-2.6-2.3-4.2l-1.6-15.6h11.4l1.3,14.3h.3Z"/>
              </g>
              <g id="headFocus_0_Layer0_10_MEMBER_0_FILL">
                <path class="cls-38" d="M64.8,483.2l1.3-5.8,21.4,3.6-1.3,4.9-21.4-2.6h0Z"/>
              </g>
              <g id="headFocus_0_Layer0_10_MEMBER_1_FILL">
                <path class="cls-38" d="M125.8,478.3l1.9,5.8-21.4,4.5-1.6-4.9,21.1-5.2h0v-.3Z"/>
              </g>
              <g id="headFocus_0_Layer0_11_FILL">
                <path class="cls-15" d="M49.5,500.8c.6,1.3.6,2.3.3,3.6l-2.3,9.4c0,1.3-1,2-1.9,2.6-1,.7-1.9.7-3.2.3h0c-1-.3-1.9-1-2.6-2.3-.6-1.3-.6-2.3-.3-3.6l2.3-9.4c0-1.3,1-2,1.9-2.6,1-.7,1.9-.7,3.2-.3h0c1.3.3,1.9,1,2.6,2.3h0Z"/>
              </g>
              <g id="headFocus_0_Layer0_12_FILL">
                <path class="cls-15" d="M142.7,502c.6-1,1.3-1.6,2.6-2h0c1,0,2.3,0,3.2.3,1,.7,1.6,1.6,1.9,2.9l1.9,9.4c0,1.3,0,2.6-.6,3.6-.6,1-1.3,1.6-2.3,2h0c-1.3,0-2.3,0-3.2-.3-1-.7-1.6-1.6-1.9-2.9l-2.3-9.8c0-1.3,0-2.3.6-3.6v.3Z"/>
              </g>
            </g>
            <g id="hand_0_Layer0_0_FILL-5">
              <path class="cls-11" d="M38.8,464.7l1.3,2c4.2,9.4,4.9,18.2,1.9,26.7,7.5-17.2,6.5-26.7-2.9-28.6h-.3Z"/>
              <path class="cls-12" d="M26.1,503l15.9-10.1c2.9-8.5,2.3-17.2-1.9-26.7l-1.3-2h0c-1.3-2.6-2.6-5.2-4.2-7.8v-.7c-1.6-2-3.6-2.6-6.5-1.3-4.5,1.6-8.8,3.6-12.7,6.2-9.7,6.2-6.2,20.2,10.4,42.2h.3Z"/>
            </g>
            <g id="hand_0_Layer0_0_FILL-6">
              <path class="cls-11" d="M164.1,613.2l-1.3-2c-4.2-9.4-4.9-18.2-1.9-26.7-7.5,17.2-6.5,26.7,2.9,28.6h.3Z"/>
              <path class="cls-12" d="M176.8,574.8l-15.9,10.1c-2.9,8.5-2.3,17.2,1.9,26.7l1.3,2h0c1.3,2.6,2.6,5.2,4.2,7.8v.7c1.6,2,3.6,2.6,6.5,1.3,4.5-1.6,8.8-3.6,12.7-6.2,9.7-6.2,6.2-20.2-10.4-42.2h-.3Z"/>
            </g>
          </g>
          <g>
            <g id="back_FL_FL_FL_FL_FL_FL_FL_FL_FL_FL_FL_FL_FL_FL_FL_FL_FL_FL_FL_FL_FL_FL_FL_FL_FL_FL_FL_FL_FL_FL_FL_FL_FL_FL">
              <g id="Symbol_1_0_Layer0_0_FILL">
                <path class="cls-12" d="M455.8,38.3c-13-10.1-28.9-15-47.4-15s-34.1,4.9-47.4,15c-5.2,3.9-9.1,8.1-12.3,12.7-1.9,5.8-3.2,12.3-3.2,19.2h0v1.6c0,4.2.3,8.5,1,12.7l1.9,29.6v2.9c.6,5.8,1.9,11.4,4.2,16.6,2.9,6.8,7.1,13,13,18.8,11.7,11.4,25.7,17.2,42.2,17.2s30.5-5.8,42.2-17.2c6.2-6.2,10.7-12.3,14-19.2,1-2.6,1.9-5.2,2.6-7.8,3.2-13.7,4.9-27,4.5-40v-15h0c0-7.2-1-13.3-3.2-19.5-3.2-4.5-7.5-8.8-12.3-12.7h.3Z"/>
                <path class="cls-42" d="M408.7,23.3c18.5,0,34.1,4.9,47.4,15,5.2,3.9,9.1,8.1,12.3,12.7-2.9-8.8-8.1-16.2-15.3-23.4-12.3-11.7-27-17.5-44.5-17.5s-32.2,5.8-44.5,17.5c-7.1,7.2-12.3,14.6-15.3,23.4,3.2-4.5,7.1-8.8,12.3-12.7,13.3-10.1,28.9-15,47.4-15h0Z"/>
              </g>
            </g>
            <g id="leg_0_Layer0_0_FILL-3">
              <path class="cls-33" d="M355.8,202.1l6.5-10.4,20.8,11.4-6.8,10.1-20.5-11.4h0v.3Z"/>
              <path class="cls-12" d="M331.4,213.1l3.9-6.2c8.4,2.3,15.3.3,20.8-5.2l20.5,11.4-12,18.2-33.1-18.2h0Z"/>
              <path class="cls-15" d="M373.6,172.5c2.3-3.2,5.5-5.2,9.7-5.8,4.2-.7,8.4,0,12.3,2.3,3.9,2.3,6.5,5.2,7.8,9.1,1.3,3.9,1,7.5-1.3,10.7-6.5,1-13,5.8-19.2,15l-20.8-11.4,11.4-19.2h0v-.7Z"/>
            </g>
            <g>
              <g id="arm_0_Layer0_0_FILL-7">
                <path class="cls-33" d="M340.8,151.7c-3.2,1-5.8,2.3-8.1,3.6-4.9,3.2-8.8,6.2-11.4,8.1s-5.2,2-8.1-.3c-2.6-2.3-4.2-5.2-4.5-8.5,0-3.2.6-6.2,2.9-8.8,5.5-6.8,12.3-12,20.1-15.6l9.1,21.8h0v-.3Z"/>
                <path class="cls-14" d="M332.1,129.9c4.9-2.3,10.4-4.2,16.2-5.5,7.8-1.6,16.6-2.3,26-1.6,3.6,0,6.5,1.6,8.8,4.2s3.6,5.5,3.6,8.8-1.3,6.2-3.9,8.5c-2.6,2.3-5.5,3.2-9.1,3.2-6.2-.3-12,0-17.2,1-5.8.7-10.7,1.6-14.9,3.3l-9.1-21.8h-.3Z"/>
              </g>
              <g id="arm_0_Layer0_1_FILL-3">
                <path class="cls-37" d="M347.3,152.3l-8.4,3.6-12.3-26.3,9.1-4.9,11.7,27.6h0Z"/>
              </g>
            </g>
            <g>
              <g id="arm_0_Layer0_0_FILL-8">
                <path class="cls-33" d="M475.6,144.5c3.2.7,6.2,1.6,8.4,3.3,5.2,2.9,9.1,5.5,12,7.2,2.6,2,5.2,1.6,7.8-1,2.6-2.3,3.9-5.2,3.9-8.8s-1.3-6.2-3.6-8.8c-6.2-6.2-13.3-11-21.4-14.3l-7.5,22.1h0l.3.3Z"/>
                <path class="cls-14" d="M483.1,122.5c-5.2-2-10.7-3.6-16.6-4.2-7.8-1-16.6-1-26,0-3.6.7-6.2,2.3-8.4,4.9s-3.2,5.8-2.9,9.1c0,3.2,1.9,6.2,4.5,8.1s5.8,2.9,9.4,2.6c6.2-1,12-1,17.2,0,5.8,0,11,1,15.3,2.3l7.5-22.1h0v-.7Z"/>
              </g>
              <g id="arm_0_Layer0_1_FILL-4">
                <path class="cls-37" d="M469.1,145.5l8.4,2.9,10.1-27.3-9.4-4.2-9.4,28.3h0l.3.3Z"/>
              </g>
            </g>
            <g id="leg_0_Layer0_0_FILL-4">
              <path class="cls-33" d="M461.7,202.1l-6.5-10.4-20.8,11.4,6.8,10.1,20.5-11.4h0v.3Z"/>
              <path class="cls-12" d="M486.3,213.1l-3.9-6.2c-8.4,2.3-15.3.3-20.8-5.2l-20.5,11.4,12,18.2,33.1-18.2h0Z"/>
              <path class="cls-15" d="M443.8,172.5c-2.3-3.2-5.5-5.2-9.7-5.8-4.2-.7-8.4,0-12.3,2.3-3.9,2.3-6.5,5.2-7.8,9.1-1.3,3.9-1,7.5,1.3,10.7,6.5,1,13,5.8,19.2,15l20.8-11.4-11.4-19.2h0v-.7Z"/>
            </g>
            <g>
              <g id="body_0_Layer0_0_FILL-4">
                <path class="cls-37" d="M368.8,155l.6,2c2.9,8.8,3.9,18.5,3.9,29.6,10.7-11.4,9.4-22.1-4.5-31.5M443.5,156.9l.6-2c-14,9.4-15.3,19.8-4.5,31.5,0-11,1-20.8,3.9-29.6h0Z"/>
                <path class="cls-15" d="M438.3,197.5c1-3.9,1.6-7.8,1.6-11.4h-66.6c0,3.6.3,7.5,1.6,11.4h63.7-.3Z"/>
                <path class="cls-14" d="M444.1,155l-.6,2c1.9-6.5,4.9-12.3,8.4-17.5,1.6-8.1,0-12.3-5.2-12.7h-79.9c-6.2-.3-8.4,3.9-6.5,12.7,3.6,5.2,6.5,11,8.8,17.5l-.6-2c14,9.4,15.3,19.8,4.5,31.5h66.6c-10.7-11.4-9.4-22.1,4.5-31.5M431.4,155.9c0,1.3-2.3,2.3-7.1,3.2s-10.7,1.6-17.9,1.6-12.7-.7-17.5-1.6-7.1-2-7.1-3.2,2.3-2.6,7.1-3.6c4.9-1,10.7-1.3,17.5-1.3s13,.3,17.9,1.3,7.1,2.3,7.1,3.6Z"/>
                <path class="cls-28" d="M424.3,158.8c4.9-1,7.1-2,7.1-3.2s-2.3-2.6-7.1-3.6c-4.9-1-10.7-1.3-17.9-1.3s-12.7.3-17.5,1.3-7.1,2.3-7.1,3.6,2.3,2.3,7.1,3.2,10.7,1.6,17.5,1.6,13-.7,17.9-1.6h0Z"/>
              </g>
              <g id="body_0_Layer0_1_FILL-3">
                <path class="cls-12" d="M442.8,190v-12.3h-70.2v12.3h70.2Z"/>
              </g>
              <g id="body_0_Layer0_2_FILL-2">
                <path class="cls-12" d="M439.6,209.2h0c1.6,0,2.9-.7,4.2-1.6,1-1.3,1.6-2.6,1-4.2l-2.3-13.7h-12.7l2.3,13.7c.3,1.6,1.3,2.9,2.6,4.2s2.9,1.6,4.9,1.6h0Z"/>
              </g>
              <g id="body_0_Layer0_3_FILL-2">
                <path class="cls-19" d="M432.7,124.1c0-6.2-2.6-11.4-7.8-15.6-5.2-4.2-11.4-6.2-18.8-6.2s-13.6,2-18.8,6.2c-5.2,4.5-7.8,9.8-7.8,15.6s0,1,0,1.3c0,5.5,2.9,10.4,7.5,14.3,5.2,4.5,11.4,6.5,18.8,6.5s13.6-2.3,18.8-6.5c4.9-3.9,7.1-8.8,7.5-14.3v-1.3h.6Z"/>
              </g>
              <g id="body_0_Layer0_4_FILL">
                <path class="cls-12" d="M377.9,116.9l-10.4,9.1c15.9,24.7,35.7,45.5,60.1,61.8l10.1-9.1c-22.1-15.6-42.2-36.1-60.1-61.7h.3Z"/>
              </g>
            </g>
            <g id="hand_0_Layer0_0_FILL-7">
              <path class="cls-19" d="M505.2,166h-2.3c-9.7-3.9-16.6-9.4-20.5-17.5,6.5,17.5,14,23.4,22.7,17.5h0Z"/>
              <path class="cls-33" d="M487.6,129.6l-5.2,18.8c3.9,7.8,10.7,13.7,20.5,16.9h2.3v.7c2.6.7,5.5,1.6,8.8,2.3h1c2.3,1,4.2-.3,5.8-3.6,2.3-4.5,4.2-9.1,5.2-13.7,3.2-11.7-9.7-18.8-38.3-21.5h0Z"/>
            </g>
            <g id="hand_0_Layer0_0_FILL-8">
              <path class="cls-19" d="M315.2,179.3l2.3-1c8.4-5.8,13.6-13,15.3-21.5-1.6,18.5-7.5,26.3-17.5,22.7h0v-.3Z"/>
              <path class="cls-33" d="M322.6,140l10.1,16.9c-1.6,8.5-6.5,15.6-15.3,21.5l-2.3,1h0c-2.3,1.6-4.9,2.9-7.8,4.5h-.6c-1.9,1.6-4.2,1-6.5-1.6-3.6-3.9-6.5-7.8-8.8-12-6.2-10.4,4.2-20.5,31.2-30.2h0Z"/>
            </g>
            <g id="shadow_0_Layer0_0_FILL-4">
              <path class="cls-30" d="M445.7,111.1c-9.7-6.5-21.8-9.4-35.7-9.4s-26,3.2-36.1,9.4c-9.7,6.5-14.6,14.3-14.6,23.4s4.9,16.6,14.6,23.1c10.1,6.5,22.1,9.8,36.1,9.8s26-3.2,35.7-9.8c10.1-6.5,15.3-14,15.3-23.1s-5.2-16.9-15.3-23.4Z"/>
            </g>
            <g>
              <g id="headShock_0_Layer0_0_MEMBER_0_FILL">
                <path class="cls-33" d="M441.2,98.7c4.2,3.9,8.8,5.5,14.3,5.2,5.5-.3,10.1-2.3,14-6.5,3.9-4.2,5.5-8.8,5.2-14.3-.3-5.5-2.3-10.1-6.5-13.7-4.2-3.9-8.8-5.5-14.3-5.2-5.5,0-10.1,2.3-14,6.5-3.9,4.2-5.5,8.8-5.2,14.3,0,5.5,2.3,10.1,6.5,13.7M446.1,76c2.3-2.6,4.9-3.9,8.4-3.9s6.2,1,8.8,3.2c2.3,2.3,3.6,5.2,3.9,8.1,0,3.3-1,6.2-2.9,8.5-2.3,2.6-5.2,3.9-8.4,3.9s-6.2-1-8.8-3.2c-2.6-2.3-3.9-4.9-3.9-8.1s1-6.2,3.2-8.5h-.3Z"/>
                <path class="cls-1" d="M454.2,72.1c-3.2,0-6.2,1.3-8.4,3.9-2.3,2.6-3.2,5.5-3.2,8.5s1.3,6.2,3.9,8.1c2.6,2.3,5.2,3.3,8.8,3.3s6.2-1.3,8.4-3.9c2.3-2.3,3.2-5.2,2.9-8.5,0-3.2-1.3-5.8-3.9-8.1-2.6-2.3-5.5-3.2-8.8-3.2h.3Z"/>
              </g>
              <g id="headShock_0_Layer0_0_MEMBER_1_FILL">
                <path class="cls-33" d="M342.1,89c0,5.5,2.3,10.1,6.5,13.7,4.2,3.9,8.8,5.5,14.3,5.2,5.5,0,10.1-2.3,14-6.5,3.9-4.2,5.5-8.8,5.2-14.3s-2.3-10.1-6.5-13.7-9.1-5.5-14.3-5.2c-5.5,0-10.1,2.3-14,6.5-3.9,4.2-5.5,8.8-5.2,14.3M350.2,88.7c0-3.3,1-6.2,2.9-8.5,2.3-2.6,4.9-3.9,8.4-3.9s6.2,1,8.8,3.2c2.6,2.3,3.9,5.2,3.9,8.1s-1,6.2-3.2,8.5c-2.3,2.6-4.9,3.9-8.4,3.9s-6.2-1-8.8-3.2c-2.3-2.3-3.6-4.9-3.9-8.1h.3Z"/>
                <path class="cls-1" d="M353.2,79.9c-2.3,2.6-3.2,5.5-2.9,8.5,0,3.2,1.3,6.2,3.9,8.1,2.6,2.3,5.2,3.3,8.8,3.3s6.2-1.3,8.4-3.9c2.3-2.3,3.2-5.2,3.2-8.5s-1.3-5.8-3.9-8.1c-2.3-2.3-5.2-3.3-8.8-3.3s-6.2,1.3-8.4,3.9h-.3Z"/>
              </g>
              <g id="headShock_0_Layer0_0_MEMBER_2_FILL">
                <path class="cls-33" d="M455.8,102.6l3.2-55.6-104.9,4.5,8.1,55.2c3.9,12,13,20.2,27.3,24,7.1,2.3,14,2.9,20.5,2.6,6.8,0,13.6-1.6,20.5-4.2,14-5.2,22.1-14,25-26.3h0l.3-.3Z"/>
              </g>
              <g id="headShock_0_Layer0_0_MEMBER_3_FILL">
                <path class="cls-1" d="M415.2,101.7c1.6-1.3,2.6-2.6,2.6-4.2s-1-2.9-2.9-3.9c-1.6-1-3.9-1.3-6.2-1.3s-4.2.7-5.8,2-2.3,2.6-2.3,4.2,1,2.9,2.6,3.9c1.6,1.3,3.6,1.6,5.8,1.6s4.5-.7,6.2-2h0v-.3Z"/>
              </g>
              <g id="headShock_0_Layer0_0_MEMBER_3_MEMBER_0_MEMBER_0_FILL">
                <path class="cls-12" d="M377.2,92.2v-1c0-2.9.6-5.5,2.6-7.5s3.2-2.6,5.5-3.3l-14.3.7c3.6,2.6,5.8,6.2,6.2,11M394.1,96.8c1-1.6,1.6-3.6,1.6-6.2s-.6-4.5-1.9-6.2-2.6-2.6-4.5-2.3c-1.6,0-2.9,1-3.9,2.6-1,1.6-1.6,3.9-1.6,6.2s.6,4.5,1.9,6.2,2.6,2.6,4.2,2.6,3.2-1,4.2-2.9h0Z"/>
                <path class="cls-18" d="M386.3,80.5h-1c-2.3.3-4.2,1.6-5.5,3.3-1.9,2.3-2.6,4.5-2.6,7.5v1c0,2.3,1.3,4.5,3.2,6.5s4.5,3.2,7.8,2.9c2.6,0,5.2-1.3,6.8-3.6,1.9-2.3,2.9-4.5,2.6-7.5,0-2.9-1.3-5.5-3.2-7.5-1.9-2-4.5-2.9-7.1-2.6h-.6M395.4,90.6c0,2.6-.3,4.5-1.6,6.2-1,2-2.6,2.9-4.2,2.9s-2.9-.7-4.2-2.6c-1.3-1.6-1.9-3.6-1.9-6.2s.3-4.5,1.6-6.2c1-1.6,2.3-2.6,3.9-2.6s3.2.7,4.5,2.3,1.9,3.6,1.9,6.2h0Z"/>
              </g>
              <g id="headShock_0_Layer0_0_MEMBER_3_MEMBER_0_MEMBER_1_FILL">
                <path class="cls-12" d="M440.2,89v1c0-4.9,1.9-8.8,5.2-11.4l-14.3.7c2.3,0,4.2,1,5.8,2.6s2.9,4.5,3.2,7.5M421.7,89.6c0,2.6.6,4.5,1.9,6.2s2.6,2.6,4.2,2.6,2.9-1,4.2-2.9c1-1.6,1.6-3.6,1.6-6.2s-.6-4.5-1.9-6.2-2.6-2.6-4.2-2.3c-1.6,0-2.9,1-4.2,2.6s-1.6,3.9-1.6,6.2h0Z"/>
                <path class="cls-18" d="M431.1,78.9h-1.6c-2.6,0-5.2,1.3-6.8,3.2-1.9,2.3-2.9,4.5-2.6,7.5,0,2.9,1.3,5.2,3.2,7.2,1.9,2.3,4.5,3.2,7.1,2.9,2.9,0,5.5-1.3,7.5-3.6,1.6-2,2.6-4.2,2.6-6.5v-1c0-2.9-1.3-5.5-3.2-7.5-1.6-1.6-3.6-2.6-5.8-2.6M423.7,95.8c-1.3-1.6-1.9-3.6-1.9-6.2s.3-4.5,1.6-6.2c1-1.6,2.6-2.6,4.2-2.6s3.2.7,4.2,2.3,1.9,3.6,1.9,6.2-.3,4.5-1.6,6.2c-1,2-2.6,2.9-4.2,2.9s-3.2-.7-4.2-2.6h0Z"/>
              </g>
              <g id="headShock_0_Layer0_0_MEMBER_3_MEMBER_1_FILL">
                <path class="cls-12" d="M444.4,71.4v-5.8l-23.7-1.6v4.9l23.7,2.6h0Z"/>
              </g>
              <g id="headShock_0_Layer0_0_MEMBER_3_MEMBER_2_FILL">
                <path class="cls-12" d="M371,70.8l1.9,5.8,21.4-10.4-1.6-4.9-21.4,9.4h-.3Z"/>
              </g>
              <g id="headShock_0_Layer0_0_MEMBER_3_MEMBER_3_FILL">
                <path class="cls-12" d="M409.7,107.8c-2.3,0-4.2,1-5.5,2.6-1.3,1.6-2.3,3.2-2.3,5.5h0c0,2.3,1,3.9,2.6,5.5s3.6,2.3,5.8,2,4.2-1,5.5-2.6c1.6-1.6,2.3-3.6,2.3-5.8h0c0-2-1-3.9-2.6-5.2-1.6-1.6-3.6-2.3-5.8-2h0Z"/>
              </g>
              <g id="headShock_0_Layer0_1_FILL-2">
                <path class="cls-42" d="M457.4,90.9l1.9-23.1c-19.5,1.6-39.9-4.2-62-17.5,9.1,23.1,28.9,36.4,60.1,40.6Z"/>
                <path class="cls-12" d="M459.4,68.2l1.9-22.7-108.8,4.5,2.6,18.8c17.9-1,32.2-7.2,42.5-18.2,22.1,13.7,42.5,19.5,62,17.5h-.3Z"/>
              </g>
              <g id="headShock_0_Layer0_2_FILL-2">
                <path class="cls-13" d="M450.9,45.8c-1.3-1.6-3.2-3.2-5.2-4.9-9.7-7.2-22.7-10.4-39.6-9.8-16.9.7-29.6,4.9-38.6,13-.6.3-1,1-1.3,1.6-1.3,1.3-2.6,2.6-3.6,3.9-1,1.3-1,2.9,0,4.9,10.4-6.5,25.3-10.1,44.2-11,18.8-.7,33.8,1.6,44.8,7.2.6-2,.6-3.2-.3-4.5h0l-.3-.3Z"/>
              </g>
            </g>
          </g>
          <g>
            <g id="arm_0_Layer0_0_FILL-9">
              <path class="cls-29" d="M203.1,252.8l5.8,1c-4.5-2.9-7.5-6.5-9.1-10.7-3.2-7.5-7.1-15-12.3-22.1-2.6-3.2-6.2-5.5-10.4-6.5-4.5-.7-8.4,0-12.3,2.6-3.6,2.6-5.8,6.2-6.5,10.4-1,4.2,0,8.1,2.6,11.7,3.6,4.9,6.5,9.8,8.4,15,2.3,4.5,2.9,9.4,1.6,14.3l1.9-2.9,5.2-8.1c3.9,3.2,7.8,5.5,11.4,6.2,2.6-3.2,3.9-7.5,4.5-12.7l9.4,1.6h0l-.3.3Z"/>
              <path class="cls-17" d="M205.4,262.2c0-.7,0-1.6-.3-2.3l-31.2,12.7v8.8c-.3,4.2,1,8.1,3.9,11.4,2.9,3.3,6.8,5.2,11.4,5.5,4.5,0,8.4-1,11.7-3.9,3.6-2.6,5.2-6.5,5.8-10.7.3-5.2,0-10.4,0-15.3s-.3-4.2-.6-6.2h-.6Z"/>
              <path class="cls-2" d="M204.7,259.9c-.3-2.6-1-4.9-1.6-7.2l-9.4-1.6c-.6,5.2-2.3,9.4-4.5,12.7-3.6-.7-7.1-2.6-11.4-6.2l-5.2,8.1c.3,2.3.6,4.5,1,6.8l31.2-12.7h0Z"/>
            </g>
            <g id="legBend_0_Layer0_0_FILL-5">
              <path class="cls-38" d="M56,321.3l20.1-5.2,15.6-28-18.2-12-23.7,41.3,6.2,3.9h0Z"/>
              <path class="cls-17" d="M91.7,321l4.5-15.9c-6.2-2.9-7.5-8.8-4.5-16.9l-15.6,28c5.2,2.3,10.4,3.9,15.6,4.5h0v.3Z"/>
              <path class="cls-15" d="M134.3,298c.6-4.2,0-8.1-2.6-11.4s-5.8-5.2-9.7-5.5-7.8,1-11,3.6c-2.9,2.6-6.2,4.2-9.7,4.5-2.9.3-6.2,0-9.1-1-2.9,8.1-1.6,14,4.5,16.9l-4.5,15.9c12.7,1.6,25-2.6,36.4-12,3.6-2.9,5.5-6.5,6.2-10.7h0l-.3-.3Z"/>
            </g>
            <g id="arm_0_Layer0_0_FILL-10">
              <path class="cls-29" d="M52.1,249.5h-6.2c4.9-2.3,8.8-4.9,11.7-8.5,4.9-6.5,11-12.7,17.9-18.2,3.6-2.6,7.5-3.9,12-3.6,4.5.3,8.1,2.3,11,5.5,2.9,3.6,3.9,7.2,3.6,11.7-.3,4.2-2.3,7.8-5.5,10.7-4.9,3.9-8.8,7.8-12,12.3-3.6,3.9-5.2,8.5-5.5,13.3l-1-3.3-2.6-9.1c-4.9,2.3-9.1,3.2-12.7,3.2-1.6-3.9-1.9-8.5-1.3-13.3l-9.7-.7h0l.3-.3Z"/>
              <path class="cls-17" d="M47.5,258.3c.3-.7.6-1.3,1-2l27,19.8c-1,2.6-1.6,5.5-2.3,8.5-.6,4.2-2.9,7.5-6.8,10.1-3.9,2.3-7.8,3.2-12.3,2.6-4.2-1-7.8-3.3-10.4-6.8-2.6-3.6-3.6-7.5-2.6-12,1-5.2,2.3-10.1,4.2-14.6.6-2,1.6-3.9,2.3-5.8h0v.3Z"/>
              <path class="cls-2" d="M48.5,256c1-2.3,2.3-4.5,3.6-6.5l9.7.7c-.6,5.2-.3,9.4,1.3,13.3,3.6,0,7.8-1,12.7-3.2l2.6,9.1c-1,2-1.9,4.2-2.6,6.5l-27-19.8h-.3Z"/>
            </g>
            <g>
              <g id="body_0_Layer0_0_FILL-5">
                <path class="cls-15" d="M171,289.8l-7.5.7-12.3-11-11.4,13-51.3,4.2c.6,5.8,2.6,10.4,5.5,13.7l74.4-6.2c2.3-3.6,3.2-8.5,2.9-14.3h-.3Z"/>
                <path class="cls-16" d="M175.5,239.5c1-9.8-1.6-14.3-8.4-13.3l-85.7,7.2c-6.8,0-8.8,5.2-5.8,14.6l12.3,35.8,1.3,13.3,51.3-4.2,11.4-13,12.3,11,7.5-.7-1.3-13.3,5.5-37h0l-.3-.3Z"/>
              </g>
              <g id="body_0_Layer0_0_MEMBER_0_FILL-2">
                <path class="cls-2" d="M144.3,207.9c-6.2-3.9-13.3-5.8-21.4-5.2-8.1.7-14.6,3.6-20.1,8.5-5.2,5.2-7.5,11.4-6.8,17.9v1.3c1,6.2,4.2,11,9.7,14.6,6.2,4.2,13.3,6.2,21.4,5.5s14.6-3.6,20.1-9.1c4.9-4.9,7.1-10.1,7.1-16.2v-1.3c-.6-6.8-3.9-12-10.1-16.6h0v.6Z"/>
              </g>
              <g id="body_0_Layer0_0_MEMBER_1_FILL-2">
                <path class="cls-29" d="M89.1,230l-4.9,10.1,37.7,17.2,4.9-10.1-37.7-17.2M161.2,223.8l-34.1,23.1,6.5,9.4,34.1-23.4-6.5-9.1h0Z"/>
                <path class="cls-16" d="M133.6,256.3l-6.5-9.4-4.9,10.1,11.4-1v.3Z"/>
              </g>
              <g id="body_0_Layer0_0_MEMBER_2_FILL-2">
                <path class="cls-17" d="M131,263.2h-.6c-2.3,1-5.8,3.6-9.7,8.5h0c-3.9,4.9-6.2,8.5-6.8,10.7v.7s0,.3.6.7h.6c2.3-1,5.8-3.6,10.1-8.1h0c3.9-4.9,6.2-8.8,6.5-11v-.7s0-.3-.3-.7h-.3Z"/>
              </g>
              <g id="body_0_Layer0_0_MEMBER_3_FILL-2">
                <path class="cls-17" d="M91.4,252.1v.7c0,2.6,2.3,6.2,5.8,11.4h0c3.9,5.2,6.8,8.1,8.8,9.4h.6c.3,0,.6,0,.6-.3v-.7c0-2.6-2.3-6.5-5.5-11.7-3.9-4.9-7.1-7.8-9.4-9.1h-.6s-.3,0-.6.3h.3Z"/>
              </g>
            </g>
            <g id="hand_0_Layer0_0_FILL-9">
              <path class="cls-2" d="M90.7,297l-.6-2.6c-4.5-10.1-11-16.9-18.8-20.8,19.2,5.5,25.7,13.3,19.8,23.4h-.3Z"/>
              <path class="cls-17" d="M40.4,288.2c-.6-2.3,0-3.9,2.6-4.9l28.6-9.8c7.8,3.6,14,10.7,18.8,20.8l.6,2.6h0c1,2.9,2.3,5.8,3.2,8.8v1c1.3,2.3,0,4.5-3.6,6.5-4.9,2.9-10.1,5.5-15.3,7.2-14.6,4.9-26.3-4.9-34.4-29.9l-1-2.3h.3Z"/>
            </g>
            <g id="leg_0_Layer0_0_FILL-5">
              <path class="cls-17" d="M164.5,301.5v-11.7c.3,0-15.9,0-15.9,0-3.2,5.2-8.8,7.8-16.6,8.1v3.6h32.8-.3Z"/>
              <path class="cls-38" d="M179.7,322.7v-7.2l-15.6-14h-32.8l-1,21.1h49.4,0Z"/>
              <path class="cls-15" d="M166.1,268.4c0-3.6-1.6-6.8-5.2-9.4-3.2-2.6-7.5-3.9-12.7-3.9s-9.1,1.3-12.7,3.9c-3.6,2.6-5.2,5.8-5.2,9.4l1.6,21.5v8.1c7.8,0,13.3-2.9,16.2-8.1h16.2l1.3-21.5h.3Z"/>
            </g>
            <g id="hand_0_Layer0_0_FILL-10">
              <path class="cls-2" d="M152.8,274.9l2.3-1.3c10.4-4.9,19.8-6.2,28.3-3.9-18.2-7.8-28.6-5.8-30.5,5.5h0v-.3Z"/>
              <path class="cls-17" d="M197.3,300.2c1.9-1.3,2.6-2.9,1.3-5.2l-15.3-25.3c-8.4-2-17.9-.7-28.3,3.9l-2.3,1.3h0c-2.6,1.3-5.5,2.9-8.4,4.5l-1,.7c-2.3,1.3-2.6,3.6-1.3,7.5,1.6,5.5,4.2,10.4,6.8,15.3,7.8,13,23.4,12.7,46.1-1.3l2.3-1.3h0Z"/>
            </g>
            <g id="shadow_0_Layer0_0_FILL-5">
              <path class="cls-22" d="M173.6,215.7c-10.7-6.8-24-10.4-39.3-10.4s-28.6,3.6-39.6,10.4c-10.7,7.2-16.2,15.6-16.2,25.7s5.5,18.5,16.2,25.3c11,7.2,24.4,10.7,39.6,10.7s28.6-3.6,39.3-10.7c11-6.8,16.6-15.3,16.6-25.3s-5.5-18.5-16.6-25.7h0Z"/>
            </g>
            <g>
              <g id="headFocus_0_Layer0_0_FILL-3">
                <path class="cls-17" d="M62.5,185.5c-4.5,3.9-7.1,8.8-7.8,15-.6,5.8,1.3,11,5.2,15.6s9.1,7.2,14.9,7.8c6.2.7,11.4-1.3,16.2-5.2,4.5-3.9,7.1-8.8,7.8-14.6.6-6.2-1.3-11.4-5.2-15.9s-9.1-7.2-14.9-7.8c-5.8-.6-11.4,1.3-16.2,5.2M66.7,210.2c-2.3-2.6-3.2-5.8-2.9-9.4,0-3.6,1.9-6.5,4.5-9.1,2.9-2.3,5.8-3.2,9.7-2.9,3.9,0,6.8,2,9.1,4.5,2.3,2.9,3.2,6.2,2.9,9.8,0,3.6-1.9,6.5-4.5,8.8-2.9,2.6-6.2,3.6-9.7,3.2-3.6,0-6.5-2-9.1-4.9M181,188.4c-6.2-.7-11.4,1.3-16.2,5.2-4.5,3.9-7.1,8.8-7.8,15-.6,5.8,1.3,11,5.2,15.6s9.1,7.2,14.9,7.8,11.4-1.3,16.2-5.2c4.5-3.9,7.1-8.8,7.8-14.6.6-6.2-1.3-11.4-5.2-15.9s-9.1-7.2-14.9-7.8M178.1,223.5c-3.6,0-6.5-2-9.1-4.9-2.6-2.6-3.6-5.8-3.2-9.4,0-3.6,1.9-6.5,4.9-9.1,2.9-2.3,5.8-3.2,9.7-2.9,3.6,0,6.8,2,9.1,4.5,2.3,2.9,3.2,6.2,2.9,9.8,0,3.6-1.9,6.5-4.5,8.8-2.9,2.6-6.2,3.6-9.7,3.2h0Z"/>
                <path class="cls-2" d="M63.8,201.1c0,3.6.6,6.8,2.9,9.4,2.3,2.9,5.2,4.5,9.1,4.9,3.9,0,7.1-.7,9.7-3.2,2.9-2.3,4.2-5.2,4.5-8.8,0-3.6-.6-6.8-2.9-9.8-2.3-2.6-5.5-4.2-9.1-4.5-3.6,0-6.8.7-9.7,2.9-2.9,2.6-4.2,5.5-4.5,9.1M169,218.7c2.3,2.9,5.2,4.5,9.1,4.9,3.6,0,6.8-.7,9.7-3.2,2.9-2.3,4.2-5.2,4.5-8.8,0-3.6-.6-6.8-2.9-9.8-2.6-2.6-5.5-4.2-9.1-4.5-3.6,0-6.8.7-9.7,2.9-2.9,2.6-4.5,5.5-4.9,9.1,0,3.6.6,6.8,3.2,9.4h0Z"/>
              </g>
              <g id="headFocus_0_Layer0_1_FILL-3">
                <path class="cls-17" d="M158,245c9.7-.3,15.9-5.2,18.2-14.3l13.3-69.9-115.3-9.4,1.6,86.8,82.5,6.5h0l-.3.3Z"/>
              </g>
              <g id="headFocus_0_Layer0_2_FILL-3">
                <path class="cls-32" d="M209,129.9c-.6-5.5-2.3-11.4-5.2-16.9l-29.6,1.6c-8.8,0-18.2-5.8-28.6-18.2-3.2-4.5-6.5-4.5-9.4-.7-8.1,12.7-18.8,22.1-32.2,28.3-7.1,2.3-15.3,1.6-25-2,8.1,6.5,15.9,11.7,24,15.3,12-7.5,23.4-17.2,33.5-29.2,3.6-3.9,6.8-3.6,10.1,1.3,6.8,8.8,13.6,15,20.5,17.9,4.5,3.6,4.9,13,.6,28.6,13.6-4.9,21.8-14,24.4-27h15.9s0,.7.3,1h.6Z"/>
                <path class="cls-38" d="M205.4,155.3c1.3-2.9,1.9-5.5,2.6-8.5h0c1-5.8,1.3-11.4.6-16.9,0-.3,0-.7-.3-1h-15.9c-2.6,13-10.7,22.1-24.4,27,4.2-15.6,3.9-25-.6-28.6-6.8-2.9-13.3-8.8-20.5-17.9-3.2-4.5-6.5-5.2-10.1-1.3-10.1,12-21.4,21.8-33.5,29.2-8.1-3.6-16.2-8.8-24-15.3-3.9,7.2-6.2,11-6.5,11.7-2.6,6.2-3.9,12.3-3.9,18.5s0,4.5.3,7.2l9.4,15.9,1.3-13.7c1.6,0,2.9,0,4.5-.3,0,0,.6,0,.6.3,9.4,4.9,20.8,7.8,34.8,9.1,13.6,1,25.7,0,35.7-3.2,2.6-1,5.2-2,7.1-2.9,8.4,1.6,16.9,3.9,25.3,6.2l-1.3,15.6,3.9-6.2c9.1-14.3,14-22.1,14.9-24h0l-.3-1Z"/>
              </g>
              <g id="headFocus_0_Layer0_3_FILL-3">
                <path class="cls-2" d="M134.3,215.1c1.9-1,3.2-2.6,3.2-3.9s-.6-3.2-2.6-4.5c-1.6-1.3-3.9-2-6.5-2.3-2.6,0-4.9,0-6.8,1.3s-2.9,2.6-3.2,4.2.6,3.2,2.3,4.5c1.6,1.6,3.9,2.3,6.5,2.6,2.6,0,4.9,0,6.8-1.3h0l.3-.6Z"/>
              </g>
              <g id="headFocus_0_Layer0_3_MEMBER_0_MEMBER_0_FILL">
                <path class="cls-2" d="M174.2,213.1c.3-4.5-.6-8.5-3.6-12s-6.8-5.5-11.4-5.8c-4.5-.3-8.4,1-11.7,3.9-3.6,2.9-5.5,6.8-5.8,11.4-.3,4.5,1,8.5,3.9,12,2.6,3.6,6.5,5.5,10.7,5.8,4.5.3,8.8-1,12.3-3.9,3.2-2.9,5.2-6.8,5.5-11.4h0Z"/>
              </g>
              <g id="headFocus_0_Layer0_3_MEMBER_0_MEMBER_1_FILL">
                <path class="cls-39" d="M148.6,207.3c0,2.6.6,4.9,2.3,6.8s3.6,3.2,6.2,3.2,5.2-.7,6.8-2.3c1.9-1.6,2.9-3.9,3.2-6.2,0-2.6-.3-4.9-1.9-6.8s-3.9-2.9-6.5-3.3c-2.6,0-4.9.7-6.5,2.3s-3.2,3.9-3.2,6.5h0l-.3-.3Z"/>
              </g>
              <g id="headFocus_0_Layer0_3_MEMBER_1_FILL-2">
                <path class="cls-2" d="M113.5,209.5c3.6-2.9,5.5-6.8,5.8-11.4s-1-8.5-3.9-12c-2.6-3.6-6.5-5.2-10.7-5.8-4.5-.3-8.8,1-12.3,3.9-3.2,2.9-5.2,6.8-5.5,11s.6,8.5,3.6,12,6.8,5.5,11.4,5.8c4.5.3,8.4-1,11.7-3.9h0v.3Z"/>
              </g>
              <g id="headFocus_0_Layer0_3_MEMBER_2_FILL-2">
                <path class="cls-32" d="M96.6,168.9l-3.2,9.1,24.4,8.5,3.2-9.1-24.4-8.5h0Z"/>
              </g>
              <g id="headFocus_0_Layer0_3_MEMBER_3_FILL">
                <path class="cls-32" d="M171.3,194.9l-.6-9.8-26,1.3,1,9.8,26-1.6h0l-.3.3Z"/>
              </g>
              <g id="headFocus_0_Layer0_3_MEMBER_4_FILL">
                <path class="cls-39" d="M109.9,200.5c1.9-1.6,3.2-3.9,3.2-6.5s-.6-4.9-2.3-6.8-3.6-2.9-6.2-3.2c-2.6,0-5.2.3-6.8,2.3-1.9,1.6-2.9,3.9-3.2,6.2,0,2.6.3,4.9,1.9,6.8s3.9,3.2,6.5,3.2,4.9-.7,6.5-2.3h0l.3.3Z"/>
              </g>
              <g id="headFocus_0_Layer0_3_MEMBER_5_FILL">
                <path class="cls-31" d="M116.4,222.9l1,5.2,21.1-3.9-1-5.2-21.1,3.9Z"/>
              </g>
              <g id="headFocus_0_Layer0_4_FILL-3">
                <path class="cls-38" d="M76.4,154h0c-1.9,0-3.6,1-4.9,2.3-1.3,1.3-1.9,2.9-1.6,4.5l1.3,28.6c0,1.6.6,3.3,2.3,4.5,1.3,1.3,2.9,2,4.9,1.6h0c1.9,0,3.2-.7,4.5-2.3,1.3-1.3,1.9-2.9,1.6-4.5l-1.3-28.3c0-2-1-3.6-2.3-4.9-1.3-1.3-2.9-2-4.5-2M182.7,164c-1.6,1-2.6,2.6-2.9,4.2l-6.8,31.5c-.3,1.6,0,3.6,1,5.2s2.3,2.3,4.2,2.6h0c1.9.3,3.6,0,5.2-.7,1.6-1,2.6-2.6,2.9-4.2l6.8-31.5c.3-1.6,0-3.2-1-4.9s-2.6-2.6-4.2-2.9h0c-1.9,0-3.6,0-4.9,1h0l-.3-.3Z"/>
              </g>
            </g>
          </g>
          <g>
            <g id="leg_0_Layer0_0_FILL-6">
              <path class="cls-40" d="M611.1,142.3l17.9,10.7,14-3.6,2.9,10.4c.6,2,1.6,3.6,3.6,4.5s3.9,1.3,5.8.7h0c1.9-.7,3.6-1.6,4.5-3.6s1-2,1-2.9v-2.9l-8.1-31.8-43.5,11.4,1.6,7.2M654.3,160.5c-1,0-1.9,0-2.9-.3s-1.6-1.3-1.6-2.3,0-2,.3-2.9,1.3-1.6,2.3-1.6,1.9,0,2.9.3c1,.7,1.6,1.3,1.6,2.3s0,2-.3,2.9c-.6,1-1.3,1.6-2.3,1.6Z"/>
              <path class="cls-3" d="M651.3,160.2c1,.7,1.9.7,2.9.3,1,0,1.6-1,2.3-1.6s.6-2,.3-2.9c0-1-1-1.6-1.6-2.3s-1.9-.7-2.9-.3c-1,0-1.6,1-2.3,1.6s-.6,2-.3,2.9c0,1,1,1.6,1.6,2.3M636.7,186.8c1,3.9,3.6,6.5,7.1,8.5,3.9,2,7.8,2.3,12.3,1.3,4.2-1,7.5-3.6,10.1-6.8s2.9-7.2,1.9-11l-6.8-20.2c0,1-.6,2-1,2.9-1,2-2.6,2.9-4.5,3.6h0c-1.9.7-3.9,0-5.8-.7s-2.9-2.6-3.6-4.5l-2.9-10.4-14,3.6h0l7.8,34.1h0l-.6-.3Z"/>
            </g>
            <g id="legBend_0_Layer0_0_FILL-6">
              <path class="cls-40" d="M716,187.1h0c-1.9,0-3.9-1.3-5.2-2.9-.6-1-1-1.6-1.3-2.6v-2.9l1.3-9.8,1.6-22.1,44.5,4.9-.6,7.5-15.3,13.3-14.3-1.6-1.6,10.4c-.3,2-1.3,3.6-3.2,4.9-1.6,1.3-3.6,1.6-5.5,1.3M720.8,179.7c0-1,0-2-.6-2.6-.6-.7-1.6-1.3-2.6-1.3s-1.9,0-2.9.7-1.3,1.3-1.6,2.3c0,1,0,2,.6,2.6.6,1,1.3,1.3,2.6,1.6s1.9,0,2.9-.7c.6-.7,1.3-1.6,1.3-2.6h.3Z"/>
              <path class="cls-3" d="M720.2,177c.6,1,.6,1.6.6,2.6s-.6,1.6-1.3,2.6c-1,.7-1.9,1-2.9.7-1,0-1.9-.7-2.6-1.6-.6-1-1-1.6-.6-2.6s.6-1.6,1.6-2.3,1.6-.7,2.9-.7,1.9.7,2.6,1.3M693.9,208.3c-3.6-2-5.8-4.9-7.1-8.8-1-3.9-.6-7.8,1.3-11,1.9-3.6,4.9-5.8,9.1-6.8,3.6-1,6.5-2.6,9.1-4.9h0c1.9-2.3,3.2-4.9,4.2-7.8l-1.3,9.8v2.9c0,1,.6,2,1.3,2.6,1.3,1.6,2.9,2.6,5.2,2.9h0c1.9,0,3.9,0,5.5-1.3s2.9-2.9,3.2-4.9l1.6-10.4,14.3,1.6c-1.3,5.5-3.2,10.7-5.5,15.3-6.2,11-15.9,18.5-29.9,22.4-3.9,1.3-7.8.7-11.4-1.3h0l.3-.3Z"/>
            </g>
            <g id="arm_0_Layer0_0_FILL-11">
              <path class="cls-3" d="M755.3,289.8c-1.9.7-4.2,1-6.2,1,2.9,3.9,5.2,8.1,7.5,13,1,2.3,2.9,4.2,5.5,5.2,2.6,1,5.2,1,7.8,0,2.6-1,4.5-2.9,5.8-5.5,1-2.6,1-4.9,0-7.5-2.9-6.8-6.5-13-10.7-18.2,0,1.6-.6,3.2-1.3,4.9-1.6,3.6-4.5,5.8-8.1,7.2M745.2,264.2c1.6-.7,3.2-1,4.9-1-7.5-5.2-15.9-9.1-25.3-11.4-2.9-.7-5.5-.3-8.1,1s-4.2,3.2-4.9,5.8c-1,2.6-.6,5.2.6,7.5,1.3,2.3,3.6,3.9,6.2,4.5,6.2,1.6,11.7,3.9,16.9,7.2,0-2,.3-4.2,1.3-6.2,1.6-3.6,4.5-6.2,8.4-7.5M745.2,273.6c0,.3-.3,1-.3,1.3v3.9c.6,1.6,1.9,2.9,3.6,3.9,1.9.7,3.6.7,5.5,0,1.3-.7,2.6-1.3,3.2-2.3,0-.3.3-1,.6-1.3.3-.7.6-1.3,1-2,0-1,0-2.3-.3-3.2-.6-1.6-1.9-2.9-3.9-3.6-1.6-.7-3.6-.7-5.5,0-1.3.3-1.9,1-2.9,2-.6.7-1,1.3-1.3,2h0l.3-.7Z"/>
              <path class="cls-40" d="M765,277.8c0-2,0-3.9-.6-5.8-1.3-3.6-3.9-6.2-7.8-7.5-1.9-1-4.2-1.3-6.5-1.3s-3.2.3-4.9,1c-3.9,1.3-6.5,3.9-8.4,7.5-1,2-1.3,4.2-1.3,6.2s.3,2.9,1,4.5c1.3,3.6,3.9,6.2,7.5,7.8,1.6.7,3.2,1,4.9,1s4.2,0,6.2-1c3.9-1.3,6.5-3.9,8.1-7.2.6-1.6,1.3-3.3,1.3-4.9M744.9,274.9c0-.3,0-1,.3-1.3.3-.7.6-1.3,1.3-2,.6-.7,1.6-1.3,2.9-2,1.9-.7,3.6-.7,5.5,0s3.2,2,3.9,3.6c.3,1,.6,2.3.3,3.3,0,.7-.3,1.3-1,2,0,.3-.3,1-.6,1.3-1,1-1.9,2-3.2,2.3-1.9.7-3.6.7-5.5,0-1.6-.7-2.9-2-3.6-3.9-.6-1.3-.6-2.6,0-3.9h0l-.3.7Z"/>
            </g>
            <g id="arm_0_Layer0_0_FILL-12">
              <path class="cls-3" d="M590.6,281.7c1.6,1.3,3.6,2,5.8,2.6-3.9,2.9-7.5,6.5-10.7,10.7-1.6,2-3.9,3.2-6.8,3.6-2.6,0-5.2-.3-7.5-2-2.3-1.6-3.6-3.9-4.2-6.5,0-2.6.3-5.2,1.9-7.2,4.9-5.8,9.7-10.7,15.3-15-.3,1.6-.3,3.2,0,5.2.6,3.9,2.6,6.8,5.8,9.1M607.5,259.6c-1.3-1-2.9-1.6-4.2-2.3,8.4-3.3,17.5-4.9,27.6-4.5,2.9,0,5.5,1,7.5,2.9,1.9,2,3.2,4.2,3.2,6.8s-.6,5.2-2.6,7.2c-1.9,2-4.5,2.6-7.1,2.9-6.5,0-12.3,1-18.2,2.9.6-2,.6-4.2.3-6.5-.6-3.9-2.9-6.8-6.2-9.1M604.9,268.7v1.3c0,1.3-.3,2.6-1.3,3.6-1,1.6-2.6,2.3-4.5,2.6-1.9,0-3.9,0-5.5-1.3-1.3-1-2.3-2-2.6-3.2v-3.6c0-1,.6-2,1.3-2.9,1-1.6,2.6-2.3,4.9-2.6,1.9,0,3.6,0,5.2,1.3,1,.7,1.6,1.6,2.3,2.6.3.7.6,1.3.6,2h0l-.3.3Z"/>
              <path class="cls-40" d="M584.7,267.7c0-2,1-3.6,2.3-5.2,2.3-2.9,5.5-4.9,9.4-5.5,2.3,0,4.5,0,6.5.7,1.6.3,2.9,1.3,4.2,2.3,3.2,2.3,5.2,5.5,6.2,9.1.3,2.3,0,4.5-.3,6.5-.3,1.3-1,2.6-1.9,3.9-2.3,2.9-5.5,4.9-9.4,5.5h-5.2c-1.9-.3-3.9-1.3-5.8-2.6-3.2-2.3-5.2-5.2-5.8-9.1v-5.2M604.9,270v-1.3c0-.7-.3-1.3-.6-2-.3-1-1.3-1.6-2.3-2.6-1.6-1.3-3.2-1.6-5.2-1.3-1.9,0-3.6,1-4.9,2.6-.6,1-1,2-1.3,2.9v3.6c.6,1.3,1.3,2.3,2.6,3.3,1.6,1.3,3.6,1.6,5.5,1.3,1.9,0,3.2-1.3,4.5-2.6s1.3-2.3,1.3-3.6h0l.3-.3Z"/>
            </g>
            <g>
              <g id="body_0_Layer0_0_FILL-6">
                <path class="cls-40" d="M641.9,231.7c3.2,3.2,4.9,6.8,4.9,11.4s-1.6,8.1-4.9,11.4c-3.2,3.2-7.1,4.5-11.7,4.5s-8.4-1.6-11.4-4.5-4.9-6.8-4.9-11.4,1.6-8.1,4.9-11.4,6.8-4.5,11.4-4.5,8.4,1.6,11.7,4.5M727.7,231.7c3.2,3.2,4.9,6.8,4.9,11.4s-1.6,8.1-4.9,11.4-7.1,4.5-11.7,4.5-8.4-1.6-11.4-4.5-4.9-6.8-4.9-11.4,1.6-8.1,4.9-11.4,6.8-4.5,11.4-4.5,8.4,1.6,11.7,4.5Z"/>
              </g>
              <g id="body_0_Layer0_1_FILL-4">
                <path class="cls-20" d="M706.9,175.4c2.3,3.2,3.6,7.5,3.9,13h-75.4c0-5.5,1.3-9.8,3.9-13h67.9-.3Z"/>
                <path class="cls-40" d="M693.9,200.8c2.3,3.6,3.2,7.8,3.2,12.3,0,6.5-2.3,12-7.1,16.9-4.9,4.5-10.4,7.2-17.2,7.2s-12.3-2.3-17.2-7.2-7.1-10.4-7.1-16.9,1.3-8.8,3.6-12.3h-16.9v-12.3h75.4v12.3h-16.9M685.8,216.7l-4.2-13c0-.3,0-.7-.6-1s-.6-.3-1-.3h-13.3c-.3,0-.6,0-1,.3-.3,0-.6.7-.6,1l-4.2,13v1.3c0,.3.3.7.6,1l10.7,7.8s.6.3,1,.3.6,0,1-.3l10.7-7.8c0-.3.3-.7.6-1v-1.3h.3Z"/>
                <path class="cls-34" d="M681.5,204l4.2,13v1.3c0,.3-.3.7-.6,1l-10.7,7.8c-.3,0-.6.3-1,.3s-.6,0-1-.3l-10.7-7.8c-.3-.3-.6-.7-.6-1v-1.3l4.2-13c0-.3.3-.7.6-1,.3,0,.6-.3,1-.3h13.3c.3,0,.6,0,1,.3.3,0,.6.7.6,1h-.3Z"/>
                <path class="cls-3" d="M718.9,234.6c1.9,8.1,0,12.3-5.5,13h-13.6v2c0,6.2-2.6,11.4-7.8,15.9-5.2,4.2-11.7,6.2-19.2,6.2s-13.6-2-19.2-6.2c-5.2-4.5-7.8-9.8-7.8-15.9s0-1,0-1.3v-.7h-13c-6.2.3-8.4-3.9-6.5-13l8.1-33.8h16.9c-2.3,3.6-3.6,7.8-3.6,12.3,0,6.5,2.3,12,7.1,16.9s10.4,7.2,17.2,7.2,12.3-2.3,17.2-7.2,7.1-10.4,7.1-16.9-1-8.8-3.2-12.3h16.9l8.1,33.8h.6Z"/>
              </g>
            </g>
            <g id="shadow_0_Layer0_0_FILL-6">
              <path class="cls-41" d="M709.8,202.1c-7.8-6.5-17.5-9.4-28.9-9.4s-21.1,3.3-29.2,9.4c-7.8,6.5-12,14.3-12,23.4s3.9,16.9,12,23.1c8.1,6.5,17.9,9.7,29.2,9.7s20.8-3.2,28.9-9.7c8.1-6.5,12.3-14,12.3-23.1s-4.2-16.9-12.3-23.4h0Z"/>
            </g>
            <g>
              <g id="headShock_0_Layer0_0_FILL-2">
                <path class="cls-21" d="M696.8,303.2c10.7-5.8,17.5-14.6,20.5-26,3.2-11.4,1.6-22.4-4.5-32.5-6.2-10.4-14.9-16.9-27-20.2s-23.1-1.6-33.5,4.2c-10.4,5.8-17.5,14.6-20.8,26s-1.6,22.4,4.5,32.5c6.2,10.4,14.9,17.2,27,20.2,11.7,2.9,23.1,1.6,33.5-4.5M698.7,272.3c-1.6,6.5-5.5,11.4-11.7,14.6-6.2,3.2-12.3,4.2-19.2,2.6-6.5-1.6-11.7-5.5-15.3-11.4-3.6-5.8-4.5-12-2.6-18.5s5.8-11.4,11.7-14.6c5.8-3.6,12.3-4.2,18.8-2.6s11.7,5.5,15.3,11.4c3.6,5.8,4.2,12,2.6,18.5h.3Z"/>
                <path class="cls-18" d="M687.1,287.2c5.8-3.2,9.7-8.1,11.7-14.6s1-12.7-2.6-18.5c-3.6-5.8-8.4-9.7-15.3-11.4-6.5-1.6-13-1-18.8,2.6-6.2,3.2-10.1,8.1-11.7,14.6s-1,12.7,2.6,18.5c3.6,5.8,8.4,9.8,15.3,11.4,6.5,1.6,13,1,19.2-2.6h-.3Z"/>
              </g>
              <g id="headShock_0_Layer0_1_FILL-3">
                <path class="cls-3" d="M644.2,230c-1.6.3-3.2,1.6-4.2,3.2l-10.7,18.2c-1,1.6-1.3,3.2-.6,5.2.6,1.6,1.9,3.2,3.6,4.2h0c1.6,1,3.2,1.3,5.2,1,1.9-.7,3.2-1.6,4.2-3.3l10.7-18.2c1-1.6,1.3-3.2.6-5.2-.3-2-1.6-3.2-2.9-4.2h0c-1.6-1-3.6-1.3-5.5-.7h0l-.3-.3Z"/>
              </g>
              <g id="headShock_0_Layer0_2_FILL-3">
                <path class="cls-3" d="M721.8,254.7c0-2-.6-3.6-1.9-4.5-1.6-1.3-3.2-2.3-5.2-2h0c-1.9,0-3.6.7-4.9,2s-1.9,2.9-1.9,4.9v20.8c0,2,.6,3.6,1.9,4.9s2.9,2,4.9,2h0c1.9,0,3.6-.7,4.9-2s1.9-2.9,1.9-4.9v-20.8h0l.3-.3Z"/>
              </g>
              <g id="headShock_0_Layer0_3_FILL-2">
                <path class="cls-20" d="M610.4,270.7c-4.9,2.6-8.1,6.8-9.4,12-1.3,5.2-.6,10.1,1.9,14.6,2.9,4.9,6.8,7.8,12.3,9.4,5.2,1.3,10.4.7,15.6-2,4.9-2.6,7.8-6.5,9.4-11.7s.6-10.1-1.9-15c-2.9-4.9-6.8-7.8-12.3-9.4-5.2-1.3-10.4-.7-15.3,2M610.1,293.7c-1.6-2.9-1.9-5.8-1.3-9.1,1-2.9,2.6-5.5,5.5-7.2,2.9-1.6,5.8-2,9.1-1.3,3.2,1,5.8,2.6,7.5,5.5,1.6,2.9,1.9,5.8,1.3,9.1-1,3.2-2.6,5.5-5.5,7.2-2.9,1.6-6.2,2.3-9.4,1.3-3.2-1-5.5-2.6-7.1-5.5M716,292.1c-5.2-1.3-10.4-.7-15.3,2-4.9,2.6-8.1,6.8-9.4,12-1.3,5.2-.6,10.1,1.9,14.6,2.9,4.9,6.8,7.8,12.3,9.4,5.2,1.3,10.4.7,15.6-2,4.9-2.6,7.8-6.5,9.4-11.7s.6-10.1-1.9-15c-2.9-4.9-6.8-7.8-12.3-9.4M707.5,322.7c-3.2-1-5.5-2.6-7.1-5.5-1.6-2.9-2.3-5.8-1.3-9.1,1-2.9,2.9-5.5,5.8-7.2,2.9-1.6,5.8-2,9.1-1.3,3.2,1,5.8,2.6,7.5,5.5,1.6,2.9,1.9,5.8,1.3,9.1-1,3.2-2.6,5.5-5.5,7.2-2.9,1.6-6.2,2-9.4,1.3h-.3Z"/>
                <path class="cls-3" d="M608.8,284.6c-1,3.2-.3,6.2,1.3,9.1s3.9,4.9,7.1,5.5c3.2,1,6.5.3,9.4-1.3s4.9-3.9,5.5-7.2c1-2.9.3-6.2-1.3-9.1s-4.2-4.5-7.5-5.5c-3.2-1-6.2-.3-9.1,1.3s-4.9,4.2-5.5,7.2M700.4,317.1c1.6,2.9,3.9,4.9,7.1,5.5,3.2,1,6.5.3,9.4-1.3s4.9-3.9,5.5-7.2c1-2.9.3-6.2-1.3-9.1-1.6-2.9-4.2-4.5-7.5-5.5-3.2-1-6.2-.3-9.1,1.3-2.9,1.6-4.9,3.9-5.8,7.2s-.3,6.2,1.3,9.1h.3Z"/>
              </g>
              <g id="headShock_0_Layer0_4_FILL-2">
                <path class="cls-40" d="M613.7,320l19.5,5.2c4.2-15.6-.6-27.6-14.3-36.1l-5.2,30.9M686.4,338.9c9.1,1.3,15.3-2,18.5-9.8l7.8-20.2c-16.6,3.6-27.6,13-32.5,28.3l5.8,1.6h.3Z"/>
                <path class="cls-20" d="M713,309l15.3-39-102-26.7-7.5,45.5c13.6,8.5,18.5,20.5,14.3,36.1l47.4,12.3c4.9-15.3,15.6-24.7,32.5-28.3h0Z"/>
              </g>
              <g id="headShock_0_Layer0_5_FILL-2">
                <path class="cls-3" d="M679.6,305.1c4.9-2.6,8.1-6.8,9.4-12s.6-10.4-1.9-15c-2.9-4.5-6.8-7.8-12.3-9.1-5.5-1.3-10.4-.7-15.3,2-4.9,2.6-7.8,6.5-9.4,12-1.6,5.5-.6,10.1,1.9,15,2.6,4.5,6.8,7.8,12.3,9.1,5.2,1.3,10.4.7,15.3-2M682.5,291.5c-1,3.6-2.9,6.2-6.5,7.8-3.2,2-6.5,2.3-10.1,1.3-3.6-1-6.5-2.9-8.4-6.2-1.9-3.2-2.3-6.5-1.3-9.8,1-3.6,2.9-6.2,6.2-8.1,3.2-1.6,6.8-2,10.4-1,3.6,1,6.2,2.9,8.1,5.8,1.9,3.2,2.3,6.5,1.3,10.1h.3Z"/>
                <path class="cls-39" d="M676,299.2c3.2-1.6,5.5-4.5,6.5-7.8,1-3.6.6-6.8-1.3-10.1-1.9-2.9-4.5-4.9-8.1-5.8-3.6-1-7.1-.7-10.4,1-3.2,2-5.2,4.5-6.2,8.1s-.6,6.8,1.3,9.8c1.9,3.2,4.5,5.2,8.4,6.2,3.6,1,6.8.3,10.1-1.3M677,290.2c-.3,1.3-1.3,2.6-2.6,3.3s-2.6,1-3.9.7c-1.3-.3-2.6-1.3-3.2-2.6s-1-2.6-.3-3.9,1.3-2.6,2.6-3.2,2.6-1,4.2-.3c1.3.3,2.6,1.3,3.2,2.3.6,1.3,1,2.6.6,4.2h0l-.6-.3Z"/>
                <path class="cls-18" d="M674.4,293.1c1.3-.7,2.3-1.6,2.6-3.2s0-2.9-.6-4.2-1.6-2-3.2-2.3c-1.3-.3-2.9,0-4.2.3-1.3.7-1.9,2-2.6,3.2-.3,1.3,0,2.6.3,3.9.6,1.3,1.9,2.3,3.2,2.6,1.3.3,2.9,0,3.9-.7h0l.6.3Z"/>
              </g>
              <g id="headShock_0_Layer0_6_FILL">
                <path class="cls-3" d="M705.2,303.5c1.9-1,2.9-2.3,3.6-4.2.6-2,0-3.9-1-5.5s-2.6-2.9-4.5-3.3-3.9,0-5.5.7c-1.6,1-2.9,2.6-3.6,4.5s0,3.6.6,5.5c1,1.6,2.6,2.9,4.5,3.3s3.9,0,5.5-.7h0l.3-.3Z"/>
              </g>
              <g id="headShock_0_Layer0_7_FILL">
                <path class="cls-3" d="M640.3,286.6c1.9-1,2.9-2.3,3.6-4.2.6-2,0-3.9-1-5.5s-2.6-2.9-4.2-3.2c-1.9-.7-3.9,0-5.5.7-1.6,1-2.9,2.6-3.6,4.5s0,3.6.6,5.5c1,1.6,2.6,2.9,4.5,3.2s3.6,0,5.5-.7h0v-.3Z"/>
              </g>
              <g id="headShock_0_Layer0_8_FILL">
                <path class="cls-40" d="M642.2,309c-1.6,1-2.6,2.3-3.2,4.2-.6,2,0,3.6.6,5.2,0,.3.6.7,1,1h0c1.9-1,3.2-2.6,3.9-4.9.6-2,0-4.2-1-6.2-.6,0-1.3.3-1.6.7M682.2,324.3c.6-2,0-3.6-.6-5.2-.3-.7-.6-1-1.3-1.3-1.9,1.3-3.2,2.9-3.6,4.9-.6,2.3,0,4.2,1,6.2h0c.3,0,1,0,1.3-.7,1.6-1,2.6-2.3,3.2-4.2h0v.3Z"/>
                <path class="cls-18" d="M680.2,317.8c-1-.7-1.9-1.3-2.9-1.6l-29.6-7.8c-1.3,0-2.3-.3-3.6,0,1,2,1.3,3.9,1,6.2-.6,2.3-1.9,3.9-3.9,4.9h0c1,1,1.9,1.6,3.2,2l29.6,7.8c1.3.3,2.6,0,3.9,0h0c-1-2-1.3-3.9-1-6.2.6-2,1.9-3.6,3.6-4.9h0l-.3-.3Z"/>
              </g>
            </g>
            <g id="hand_0_Layer0_0_FILL-11">
              <path class="cls-21" d="M775.4,321.3h0v1l4.5,7.5s.3.3,1,.7h.6c3.9-2.3,6.8-5.8,7.8-10.4h0c1.3-4.9.6-9.4-1.6-13.7-2.6-4.2-6.2-7.2-10.7-8.5h-.6c.3.7.6,1.6,1,2.6,1,3.2.6,6.2-1,9.1,1,.7,1.6,1.3,1.9,2.3,1,1.6,1,3.6.6,5.2h0c-.3,1.6-1.6,3.2-3.2,4.2M751.4,303.2c-.6.3-1,1-1.6,1.6-3.6,3.2-5.5,7.5-5.5,12.3s1.6,9.1,5.2,12.7h0c3.2,3.3,7.5,4.9,12,5.2h.6v-9.4c.3,0,.3-.3.3-.7,0,0-.6-.3-1-.3-1.9,0-3.2-1-4.9-2.3h0c-1.3-1.3-1.9-2.9-1.9-4.9s.3-2.9,1.3-3.9c-2.3-2-3.6-4.2-4.5-6.8,0-1-.3-2.3-.3-3.2h0l.3-.3Z"/>
              <path class="cls-20" d="M771.2,292.4c-2.9-2-6.2-2.3-9.7-1.6-3.6.7-6.2,2.6-8.1,5.8-1.3,2-1.9,4.2-1.9,6.5s0,2.3.3,3.2c1,2.6,2.3,5.2,4.5,6.8.3.3,1,.7,1.6,1,2.9,1.6,6.5,2.3,9.7,1.3,3.6-1,6.2-2.9,7.8-5.8v-.7c1.6-2.9,1.9-5.8,1-9.1,0-1-.6-1.6-1-2.6-1-2.3-2.6-3.9-4.9-5.2h0l.6.3Z"/>
            </g>
            <g id="hand_0_Layer0_0_FILL-12">
              <path class="cls-21" d="M563.6,306.4v.3s0,.7-.3,1l-6.2,6.2s-.6,0-1,.3c0,0-.3,0-.6-.3-3.2-3.2-4.9-7.2-4.9-12h0c0-4.9,1.6-9.1,5.2-12.7s7.8-5.5,12.7-5.5h.6c-.6.7-1.3,1.3-1.6,2.3-1.6,2.9-1.9,5.8-1.3,8.8-1,.3-1.6,1-2.6,1.6-1.3,1.3-1.9,2.9-2.3,4.9v.3c0,2,.6,3.2,1.9,4.9M591.6,295c.3.7.6,1.3,1.3,2,2.6,3.9,3.2,8.5,1.9,13.3-1.3,4.9-4.2,8.5-8.4,11h0c-4.2,2.3-8.4,2.9-13,2,0,0-.6,0-.6-.3v-.7l1.9-8.8v-.7h1c1.6.3,3.6,0,5.2-1h0c1.6-1,2.6-2.3,3.2-4.2.3-1.6.3-2.9,0-4.2,2.6-1.3,4.5-3.2,6.2-5.5.6-1,1-2,1.3-2.9h0Z"/>
              <path class="cls-20" d="M575.3,279.8c3.2-1,6.8-.7,9.7,1,3.2,1.6,5.2,4.2,6.2,7.5.6,2.3.6,4.5,0,6.8-.3,1-.6,2-1.3,2.9-1.6,2.6-3.6,4.2-6.2,5.5-.6,0-1,.3-1.6.7-3.6,1-6.8.7-9.7-1-3.2-1.6-5.2-4.2-6.2-7.5v-.7c-.6-3.2,0-6.2,1.3-8.8.3-1,1-1.6,1.6-2.3,1.6-2,3.6-3.3,6.2-3.9h0v-.3Z"/>
            </g>
          </g>
        </g>
      </g>
    </g>
  </g>
</svg>