<?xml version="1.0" encoding="iso-8859-1"?>
<!-- Uploaded to: SVG Repo, www.svgrepo.com, Generator: SVG Repo Mixer Tools -->
<svg height="800px" width="800px" version="1.1" id="Layer_1" xmlns="http://www.w3.org/2000/svg" xmlns:xlink="http://www.w3.org/1999/xlink"
	 viewBox="0 0 512 512" xml:space="preserve">
<path style="fill:#D25459;" d="M309.101,455.326c-16.332,0-32.37-6.018-46.385-17.403c-0.734-0.598-3.08-1.724-6.716-1.724
	c-3.635,0-5.98,1.127-6.716,1.723c-14.015,11.385-30.055,17.405-46.39,17.405c-30.848,0-56.381-21.046-65.049-53.616
	c-0.85-3.188-6.645-7.895-10.725-7.895l-0.139,0.003c-1.573,0.085-3.161,0.128-4.716,0.128
	c-24.412,0.002-45.648-10.537-58.255-28.915c-12.76-18.597-14.913-42.655-5.905-66.011c1.31-3.393-1.093-10.795-4.148-12.771
	c-21.636-14-34.045-35.354-34.045-58.587s12.409-44.586,34.045-58.588c3.055-1.975,5.458-9.377,4.148-12.771
	c-9.007-23.352-6.854-47.411,5.905-66.008c12.608-18.378,33.84-28.918,58.251-28.918c1.558,0,3.144,0.042,4.721,0.129l0.141,0.003
	c3.482,0,9.727-4.158,10.723-7.894C146.515,21.046,172.048,0,202.895,0c16.334,0,32.375,6.019,46.39,17.406
	c0.733,0.594,3.078,1.722,6.716,1.722c3.634,0,5.98-1.127,6.716-1.723C276.731,6.019,292.771,0,309.106,0
	c30.848,0,56.378,21.046,65.051,53.616c0.848,3.188,6.641,7.894,10.721,7.894l0.139-0.003c1.578-0.087,3.164-0.129,4.722-0.129
	c24.411,0,45.643,10.54,58.251,28.918c12.76,18.597,14.912,42.655,5.903,66.009c-1.31,3.394,1.095,10.796,4.15,12.772
	c21.634,14,34.045,35.355,34.045,58.587c0,23.233-12.41,44.586-34.045,58.587c-3.054,1.976-5.458,9.378-4.15,12.772
	c9.007,23.352,6.853,47.41-5.903,66.006c-12.608,18.379-33.84,28.919-58.251,28.919c-1.556,0-3.144-0.043-4.721-0.128l-0.139-0.003
	c-3.484,0-9.729,4.158-10.725,7.895c-8.669,32.565-34.2,53.612-65.046,53.616C309.108,455.326,309.104,455.326,309.101,455.326z"/>
<path style="fill:#FFFFFF;" d="M222.757,50.057c18.285,14.853,48.202,14.853,66.486,0c18.283-14.854,38.201-8.381,44.26,14.381
	c6.06,22.762,30.264,40.348,53.786,39.077c23.519-1.272,35.831,15.672,27.354,37.65c-8.476,21.978,0.771,50.43,20.545,63.228
	c19.775,12.798,19.775,33.74,0,46.537c-19.775,12.798-29.021,41.252-20.545,63.229c8.477,21.978-3.835,38.92-27.354,37.649
	c-23.521-1.269-47.726,16.316-53.786,39.077c-6.059,22.764-25.977,29.235-44.26,14.382c-18.283-14.854-48.2-14.854-66.486,0
	c-18.281,14.853-38.199,8.381-44.258-14.382c-6.059-22.762-30.264-40.347-53.786-39.077c-23.523,1.27-35.833-15.672-27.356-37.649
	c8.476-21.978-0.768-50.431-20.543-63.229c-19.775-12.797-19.775-33.739,0-46.537c19.775-12.798,29.019-41.251,20.543-63.228
	c-8.477-21.978,3.832-38.922,27.356-37.65c23.521,1.269,47.726-16.316,53.786-39.077C184.558,41.675,204.476,35.203,222.757,50.057z
	"/>
<g>
	<path style="fill:#0071CE;" d="M230.877,93.44c13.819,11.224,36.427,11.224,50.245,0c13.82-11.227,28.871-6.335,33.45,10.867
		c4.581,17.203,22.872,30.492,40.646,29.532c17.777-0.96,27.079,11.845,20.675,28.454c-6.408,16.61,0.581,38.113,15.524,47.784
		c14.947,9.672,14.947,25.497,0,35.169c-14.943,9.672-21.933,31.175-15.524,47.785c6.403,16.61-2.899,29.413-20.675,28.454
		c-17.774-0.96-36.065,12.329-40.646,29.532c-4.58,17.203-19.631,22.094-33.45,10.868c-13.817-11.225-36.425-11.225-50.245,0
		c-13.818,11.226-28.871,6.335-33.45-10.868c-4.579-17.203-22.872-30.492-40.646-29.532c-17.777,0.96-27.079-11.845-20.673-28.454
		c6.408-16.61-0.581-38.113-15.526-47.785c-14.947-9.673-14.947-25.497,0-35.169c14.945-9.673,21.935-31.175,15.526-47.784
		c-6.405-16.61,2.897-29.414,20.673-28.454c17.774,0.96,36.067-12.329,40.646-29.532C202.007,87.105,217.06,82.213,230.877,93.44z"
		/>
	<polygon style="fill:#0071CE;" points="322.447,270.277 189.56,270.277 189.56,512 256.003,485.173 322.447,512 	"/>
</g>
<circle style="opacity:0.1;enable-background:new    ;" cx="255.998" cy="247.884" r="115.564"/>
<polygon style="fill:#0071CE;" points="322.447,270.277 189.56,270.277 189.56,512 256.003,485.173 322.447,512 "/>
<polygon style="fill:#FFFFFF;" points="233.533,270.277 233.533,494.246 256.003,485.173 278.474,494.246 278.474,270.277 "/>
<circle style="fill:#F9BE00;" cx="255.998" cy="227.66" r="109.057"/>
<circle style="opacity:0.15;enable-background:new    ;" cx="255.998" cy="227.66" r="74.596"/>
<path style="opacity:0.1;enable-background:new    ;" d="M256.003,153.066c-41.198,0-74.596,33.398-74.596,74.598
	c0,41.199,33.399,74.596,74.596,74.596s74.596-33.398,74.596-74.596S297.201,153.066,256.003,153.066z M256.003,287.278
	c-32.924,0-59.615-26.691-59.615-59.615s26.691-59.616,59.615-59.616s59.615,26.692,59.615,59.616S288.927,287.278,256.003,287.278z
	"/>
<g style="opacity:0.3;">
	<path d="M250.945,204.914l-6.427,1.667c-0.952,0.238-2.261,0.476-3.214,0.476c-4.285,0-7.974-3.57-7.974-7.855
		c0-3.689,2.38-6.784,6.071-7.855l11.783-3.451c3.451-0.952,6.07-1.547,8.57-1.547h0.238c4.998,0,9.045,4.046,9.045,9.045v67.128
		c0,4.998-4.047,9.045-9.045,9.045c-4.998,0-9.045-4.046-9.045-9.045v-57.607H250.945z"/>
</g>
<circle style="fill:#FFFFFF;" cx="309.8" cy="175.994" r="16.991"/>
</svg>