<?xml version="1.0" encoding="UTF-8"?>
<svg xmlns="http://www.w3.org/2000/svg" version="1.1" xmlns:xlink="http://www.w3.org/1999/xlink" viewBox="0 0 300 300">
  <defs>
    <style>
      .cls-1 {
        fill: #e7f3fc;
      }

      .cls-2 {
        fill: #71a2be;
      }

      .cls-3 {
        fill: #454a51;
      }

      .cls-4 {
        fill: #fff;
      }

      .cls-5 {
        fill: #4c4eaa;
      }

      .cls-6 {
        fill: url(#radial-gradient);
      }

      .cls-7 {
        fill: #a8603f;
      }

      .cls-8 {
        fill: #3dbf7b;
      }

      .cls-9 {
        fill: url(#radial-gradient-2);
      }

      .cls-10 {
        fill: #d78b49;
      }

      .cls-11 {
        fill: #bfd4e5;
      }

      .cls-12 {
        fill: #955435;
      }

      .cls-13 {
        fill: #bf7958;
      }

      .cls-14 {
        display: none;
      }

      .cls-15 {
        fill: #25a863;
      }

      .cls-16 {
        fill: #3c3e41;
      }

      .cls-17 {
        fill: #676ac6;
      }

      .cls-18 {
        fill: #eea160;
      }
    </style>
    <radialGradient id="radial-gradient" cx="-260.5" cy="74.4" fx="-260.5" fy="74.4" r="41.5" gradientTransform="translate(509 147.5) scale(1.4 .7)" gradientUnits="userSpaceOnUse">
      <stop offset="0" stop-color="#000" stop-opacity=".3"/>
      <stop offset="1" stop-color="#000" stop-opacity="0"/>
    </radialGradient>
    <radialGradient id="radial-gradient-2" cx="-450.8" cy="-154.2" fx="-450.8" fy="-154.2" r="40.3" gradientTransform="translate(828.7 308.1) scale(1.5 1)" xlink:href="#radial-gradient"/>
  </defs>
  <!-- Generator: Adobe Illustrator 28.6.0, SVG Export Plug-In . SVG Version: 1.2.0 Build 709)  -->
  <g>
    <g id="Layer_1">
      <g class="cls-14">
        <g id="back_FL_FL_FL_FL_FL_FL_FL_FL_FL_FL_FL_FL_FL_FL_FL_FL_FL_FL_FL_FL">
          <g id="Symbol_1_0_Layer0_0_MEMBER_0_FILL-21">
            <path class="cls-3" d="M101.7,107.3l-11-.6c-1.2,0-2.4,0-3.3,1.2-.9.9-1.5,2.1-1.5,3.4-.6,14.3-6.3,26.8-16.7,37.8-.9.6-1.2,1.8-1.2,3.1s0,2.7.9,3.7h.3c15.5-13.7,25.6-29,31-45.5.3-.9.9-2.1,1.8-3.1h-.3Z"/>
            <path class="cls-16" d="M132.9,109.1l-31-1.8c-.9.9-1.5,1.8-1.8,3.1-5.4,16.5-15.5,31.7-31,45.5l-.3.3c.9.9,1.8,1.5,3.3,1.5,32.7,3.7,54.5-10.4,65.2-41.5,0-1.2.3-2.1,0-3.1,0-.9-.9-1.8-1.8-2.4-.9-.9-1.8-1.2-2.7-1.2v-.3Z"/>
          </g>
          <g id="Symbol_1_0_Layer0_0_MEMBER_1_FILL-21">
            <path class="cls-16" d="M201.1,110c-.3-.9-.9-2.1-1.5-3.1l-31.3,1.8c-.9,0-2.1.3-2.7,1.2-.9.6-1.5,1.5-1.8,2.4v3.1c10.7,31.4,32.4,45.2,65.2,41.5,1.2,0,2.1-.6,3-1.5h-.3c-15.5-14-25.6-29.3-31-45.8l.3.3Z"/>
            <path class="cls-3" d="M215.4,111.2c0-1.2-.6-2.4-1.5-3.4-.9-.9-2.1-1.2-3.3-1.2l-11,.6c.9.9,1.2,1.8,1.5,3.1,5.4,16.5,15.5,31.7,31,45.5h.3c0,.3,0,0,0,0,.9-.9,1.2-2.1,1.2-3.7s-.6-2.4-1.5-3.1c-10.4-11-16.1-23.5-16.7-37.8h0Z"/>
          </g>
        </g>
        <g id="leg_0_Layer0_0_FILL-55">
          <path class="cls-4" d="M208,290v-9.2c.3,0-44.1,0-44.1,0v9.2h44.1Z"/>
          <path class="cls-11" d="M208.3,280.8c-9.5-2.7-15.5-8.8-17.3-18.3h-27.4v18.3h44.7Z"/>
          <path class="cls-13" d="M191,262.5h0v-15.3c.3,0-27.7,0-27.7,0v15.3h27.7Z"/>
          <path class="cls-17" d="M193.1,219.2c0-4.9-1.8-9.2-5.7-12.5-3.6-3.4-8-5.2-13.7-5.2s-9.8,1.8-13.4,5.2c-3.9,3.4-5.7,7.6-5.7,12.5,6,4.9,8.9,14.3,8.9,28.1h28l1.5-28.1Z"/>
        </g>
        <g id="leg_0_Layer0_0_FILL-56">
          <path class="cls-4" d="M95.4,290v-9.2c-.3,0,44.1,0,44.1,0v9.2h-44.1Z"/>
          <path class="cls-11" d="M95.1,280.8c9.5-2.7,15.5-8.8,17.3-18.3h27.4v18.3h-44.7Z"/>
          <path class="cls-13" d="M112.4,262.5h0v-15.3c-.3,0,27.7,0,27.7,0v15.3h-27.7Z"/>
          <path class="cls-17" d="M110.3,219.2c0-4.9,1.8-9.2,5.7-12.5,3.6-3.4,8-5.2,13.7-5.2s9.8,1.8,13.4,5.2c3.9,3.4,5.7,7.6,5.7,12.5-6,4.9-8.9,14.3-8.9,28.1h-28l-1.5-28.1Z"/>
        </g>
        <g id="arm_0_Layer0_0_FILL-89">
          <path class="cls-13" d="M209.2,107.3c.6-7.3.9-12.8,1.2-17.1s2.4-6.4,6.5-7.3c4.2-.6,7.7,0,11,2.7,3.3,2.4,5.4,5.8,6.3,9.8,1.5,8.8,1.8,17.7.3,26.2l-26.8-7.3c.6-2.4,1.2-4.6,1.2-6.7l.3-.3Z"/>
          <path class="cls-8" d="M197.8,134.7c2.1-3.7,4.2-7,5.7-10.1l28,9.2c-1.5,4.3-3.3,8.5-5.4,12.8-4.5,8.5-10.4,17.1-18.2,25.3-3,3.1-6.5,4.9-10.7,4.9s-7.7-1.2-10.7-4c-3.3-2.7-5.1-6.1-5.1-10.4s1.2-7.6,4.2-10.7c5.1-5.5,9.2-11.3,12.2-16.8v-.3Z"/>
          <path class="cls-15" d="M234.5,121.6l3.3,1.2-2.1,12.2-3.9-1.2-28-9.2-2.7-.9,3-10.7,3.9,1.2,26.8,7.3h-.3Z"/>
        </g>
        <g id="arm_0_Layer0_0_FILL-90">
          <path class="cls-13" d="M97.2,115.8c-1.2-7.3-2.1-12.8-2.7-16.8s-3-6.1-7.1-6.4-7.7.9-11,3.7c-3.3,2.7-5.1,6.1-5.4,10.1-.9,9.2,0,17.7,2.1,26.2l26.2-9.8c-.9-2.4-1.5-4.6-2.1-6.7v-.3Z"/>
          <path class="cls-8" d="M110.6,142c-2.4-3.4-4.8-6.4-6.5-9.5l-27.1,11.6c1.8,4.3,3.9,8.2,6.5,12.5,5.1,8.2,11.9,15.9,20.2,23.5,3.3,2.7,6.8,4.3,11,4,4.2,0,7.7-1.8,10.4-5.2,3-3.1,4.5-6.4,4.2-10.7,0-4.3-1.8-7.6-5.1-10.4-5.7-5.2-10.1-10.4-13.7-15.9h0Z"/>
          <path class="cls-15" d="M73.1,132.6l-3.3,1.2,3.3,11.9,3.9-1.8,27.1-11.6,2.7-1.2-3.9-10.4-3.9,1.5-26.2,9.8.3.6Z"/>
        </g>
        <g>
          <g id="body_0_Layer0_0_FILL-41">
            <path class="cls-17" d="M110.6,229c0,4.3.6,9.2,1.8,13.7h75.3c1.2-4.9,1.8-9.5,1.8-13.7h-78.9Z"/>
            <path class="cls-15" d="M110.3,213.7h8.6c1.5-8.5-3-16.8-13.7-24.4l.6,2.4c2.1,6.7,3.6,14,4.2,22M194.3,191.8l.6-2.4c-10.4,7.6-14.9,15.9-13.4,24.4h8.6c.6-7.9,2.1-15.3,4.2-22M179.7,190.5c0-1.8-2.7-3.4-8.3-4.6-6-.9-12.8-1.5-21.1-1.5s-15.2.6-21.1,1.5c-5.7,1.2-8.3,2.7-8.3,4.6s2.7,3.1,8.3,4.3c6,1.2,12.8,2.1,21.1,2.1s15.2-.6,21.1-2.1c5.7-.9,8.3-2.4,8.3-4.3Z"/>
            <path class="cls-16" d="M193.7,213.7h-86.9l2.4,15.3h82.5l2.4-15.3h-.3Z"/>
            <path class="cls-8" d="M204.7,170.1c2.1-10.4,0-15.6-6.3-15.9h-94.7c-7.1-.3-9.8,4.9-7.7,15.9,4.5,6.4,7.7,13.7,10.1,22l-.6-2.4c10.4,7.6,15.2,15.9,13.7,24.4h62.2c-1.5-8.5,3-16.8,13.4-24.4l-.6,2.4c2.4-8.2,6-15.6,10.1-22M171.4,186c5.7,1.2,8.3,2.7,8.3,4.6s-2.7,3.1-8.3,4.3c-6,1.2-12.8,2.1-21.1,2.1s-15.2-.6-21.1-2.1c-5.7-.9-8.3-2.4-8.3-4.3s2.7-3.4,8.3-4.6c6-.9,12.8-1.5,21.1-1.5s15.2.6,21.1,1.5Z"/>
          </g>
          <g id="body_0_Layer0_1_FILL-41">
            <path class="cls-4" d="M181.8,153.6c-.6,6.4-3.6,12.2-8.9,16.8-6.3,5.5-13.7,7.9-22.6,7.9s-16.4-2.7-22.6-7.9c-5.4-4.6-8.3-10.1-8.6-16.5-1.2,2.4-1.8,5.2-1.8,7.9s0,.9,0,1.5c0,6.4,3.3,11.6,9.2,15.9,6.5,4.9,14.3,7.3,23.5,7.3s17-2.4,23.5-7.3c6-4.3,8.9-9.8,9.5-15.9v-1.5c0-2.7-.6-5.5-1.8-8.2h.6Z"/>
            <path class="cls-13" d="M181.8,151.2c0-7.6-3-14-9.2-19.5-6.3-5.2-13.7-7.6-22.6-7.6s-16.4,2.7-22.6,7.6c-6,5.5-9.2,11.9-9.2,19.5v2.7c.6,6.4,3.6,11.9,8.6,16.5,6.3,5.5,13.7,7.9,22.6,7.9s16.4-2.7,22.6-7.9c5.4-4.6,8.3-10.4,8.9-16.8v-2.4h.9Z"/>
          </g>
        </g>
        <g id="hand_0_Layer0_0_FILL-87">
          <path class="cls-7" d="M236.2,52h-2.7c-12.2.9-21.7,5.5-28.6,14,13.1-19.2,23.5-23.8,31.6-14h-.3Z"/>
          <path class="cls-13" d="M205,90.2v-24.4c6.8-8.2,16.4-13.1,28.6-14h14c3,0,4.8,2.1,5.7,6.1,1.2,6.4,1.8,12.5,1.8,18.3,0,14.9-17,19.5-50.6,14h.6Z"/>
        </g>
        <g id="hand_0_Layer0_0_FILL-88">
          <path class="cls-7" d="M66.3,65.1h2.7c12.2,2.7,21.1,8.5,26.8,17.7-10.7-20.7-20.5-26.5-29.8-18h0l.3.3Z"/>
          <path class="cls-13" d="M93.1,107.3l3-24.1c-5.7-9.2-14.9-14.9-26.8-17.4h-2.7v-.3c-3.3-.6-6.8-.9-10.4-1.2h-.9c-3-.6-5.1,1.2-6.3,5.5-2.1,6.1-3.3,12.2-3.9,18-1.8,14.9,14.6,21.7,48.5,20.1l-.6-.6Z"/>
        </g>
        <g id="shadow_0_Layer0_0_FILL-50">
          <path class="cls-6" d="M193.7,142.9c-11-5.8-24.4-8.5-39.9-8.5s-29.2,2.7-40.2,8.5c-11,5.8-16.4,12.8-16.4,21.1s5.4,14.9,16.4,20.7c11.3,5.8,24.7,8.8,40.2,8.8s28.9-3.1,39.9-8.8c11.3-5.8,17-12.5,17-20.7s-5.7-15.3-17-21.1Z"/>
        </g>
        <g>
          <g id="headFocus_0_Layer0_0_FILL-21">
            <path class="cls-16" d="M220.5,70.9c-3-14.3-11.9-25.9-26.5-34.5-15.8-9.5-33.9-12.8-53.9-9.8-19.9,3.1-36.6,11.3-49.1,24.7-11.6,12.5-16.7,25.9-15.8,40.6,3.3,16.2,12.2,29.3,26.8,39.4,16.1,11,34.2,14.9,54.2,12.2,20.2-3.1,36.3-11.9,48.8-27.2,11.3-13.7,16.7-29,15.5-45.5h0Z"/>
            <path class="cls-3" d="M220.2,66.7c-2.4-18.3-11.9-32.9-28-43.9-16.1-10.7-34.2-14.6-54.2-11.9s-36.3,11.9-48.8,26.8c-12.2,15.3-17.3,31.7-14.6,50.3,2.7,18.6.6,3.1.9,4.3-.9-14.6,4.5-28.1,15.8-40.6,12.5-13.7,29.2-22,49.1-24.7,19.9-2.7,38.1.3,53.9,9.8,14.6,8.5,23.2,20.1,26.5,34.5,0-1.5,0-2.7-.6-4.3v-.3Z"/>
          </g>
          <g id="headFocus_0_Layer0_1_FILL-21">
            <path class="cls-13" d="M78.5,96.6c-3.9,5.5-5.4,11.6-4.5,18.3s3.9,11.9,9.2,16.2c5.4,4.3,11.3,5.8,17.6,4.9s11.6-4.3,15.8-9.8c3.9-5.5,5.4-11.3,4.5-18-.9-6.7-4.2-12.2-9.2-16.5-5.4-4.3-11.3-5.8-17.6-4.9-6.3.9-11.6,4.3-15.8,9.8M88.9,123.1c-3.3-2.4-5.1-5.8-5.7-9.8-.6-4,.3-7.6,2.7-11.3,2.4-3.4,5.7-5.2,9.5-5.8s7.4.3,10.7,2.7c3.3,2.7,5.1,6.1,5.7,10.1s-.3,7.6-2.7,11-5.4,5.2-9.5,5.8-7.4-.3-10.7-3.1M192.5,115.2c5.4,4.3,11.3,5.8,17.6,4.9s11.6-4.3,15.8-9.8c3.9-5.5,5.4-11.3,4.5-18-.9-6.7-4.2-12.2-9.2-16.5-5.4-4.3-11.3-5.8-17.6-4.9s-11.6,4.3-15.8,9.8c-3.9,5.5-5.4,11.6-4.5,18.3.9,6.7,3.9,11.9,9.2,16.2M195.2,86.5c2.4-3.4,5.7-5.2,9.5-5.8s7.4.3,10.7,2.7c3.3,2.7,5.1,6.1,5.7,10.1.6,4-.3,7.6-2.7,11-2.4,3.4-5.4,5.2-9.5,5.8s-7.4-.3-10.7-3.1c-3.3-2.4-5.1-5.8-5.7-9.8-.6-4,.3-7.6,2.7-11.3v.3Z"/>
            <path class="cls-7" d="M83.5,113.4c.6,4,2.4,7.3,5.7,9.8,3.3,2.4,6.5,3.4,10.7,3.1s7.1-2.4,9.5-5.8c2.4-3.4,3.3-6.7,2.7-11s-2.4-7.3-5.7-10.1c-3-2.4-6.5-3.4-10.7-2.7s-7.1,2.4-9.5,5.8c-2.4,3.7-3.3,7.3-2.7,11.3M204.7,80.7c-3.9.6-7.1,2.4-9.5,5.8-2.4,3.7-3.3,7.3-2.7,11.3s2.4,7.3,5.7,9.8c3.3,2.4,6.5,3.4,10.7,3.1s7.1-2.4,9.5-5.8c2.4-3.4,3.3-6.7,2.7-11-.6-4-2.4-7.3-5.7-10.1-3.3-2.4-6.5-3.4-10.7-2.7v-.3Z"/>
          </g>
          <g id="headFocus_0_Layer0_2_FILL-21">
            <path class="cls-13" d="M210,118.5l-2.7-69-123.2,18,16.1,67.1c6,14.3,17.9,23.2,34.8,26.5,8.6,1.8,17,1.8,24.7.6,8-.9,15.8-3.4,23.5-7.6,15.8-8.2,24.4-20.1,26.5-35.7h.3Z"/>
          </g>
          <g id="headFocus_0_Layer0_3_FILL-21">
            <path class="cls-16" d="M115.7,114.9v-.9c-.6-3.7,0-6.7,2.1-9.5,1.5-2.1,3.6-4,6.3-4.9l-17,2.4c4.5,2.7,7.4,7,8.6,12.8M136.2,118.5c1.2-2.1,1.5-4.9.9-7.9s-1.5-5.2-3-7.3c-1.8-1.8-3.6-2.7-5.7-2.4-2.1,0-3.6,1.5-4.5,4-1.2,2.4-1.5,4.9-.9,7.9s1.5,5.5,3,7.3,3.3,2.7,5.4,2.4,3.6-1.5,4.8-4M189.8,103.3v.9c0-6.1,1.2-11,4.8-14.9l-16.7,2.4c2.7,0,5.1.9,7.4,2.7,2.7,2.1,4.2,5.2,4.8,8.5M168.1,106.3c.3,3.1,1.5,5.5,3,7.3s3.3,2.7,5.4,2.4,3.6-1.5,4.5-4c1.2-2.1,1.5-4.9.9-7.9s-1.5-5.2-3-7.3c-1.8-1.8-3.6-2.7-5.4-2.4-2.1,0-3.6,1.5-4.5,4-1.2,2.4-1.5,4.9-.9,7.9Z"/>
            <path class="cls-4" d="M125.2,99.3c-.3,0-.9,0-1.2.3-2.7.9-4.8,2.4-6.3,4.9-1.8,2.7-2.7,6.1-2.1,9.5v.9c.6,3.1,2.1,5.5,4.5,7.6,2.7,2.1,5.7,3.1,9.2,2.7s6-2.1,7.7-5.2c2.1-2.7,2.7-6.1,2.4-9.5s-2.1-6.4-4.8-8.5c-2.7-2.4-5.7-3.1-8.9-2.7h-.6M137.4,110.6c.3,3.1,0,5.5-.9,7.9-1.2,2.4-2.7,3.7-4.8,4s-3.9-.6-5.4-2.4c-1.8-1.8-2.7-4.3-3-7.3s0-5.5.9-7.9c.9-2.4,2.4-3.7,4.5-4,2.1,0,3.9.6,5.7,2.4,1.8,1.8,2.7,4.3,3,7.3M177.9,91.7h-2.1c-3.3.6-6,2.1-7.7,5.2-2.1,2.7-2.7,6.1-2.4,9.5.6,3.7,2.1,6.4,4.8,8.5,2.4,2.4,5.4,3.4,8.9,2.7s6.3-2.1,8.3-5.2c1.8-2.7,2.4-5.5,2.4-8.5v-.9c-.6-3.7-2.1-6.4-4.8-8.5-2.1-1.8-4.5-2.7-7.4-2.7M171.4,113.7c-1.8-1.8-2.7-4.3-3-7.3s0-5.5.9-7.9c.9-2.4,2.4-3.7,4.5-4,2.1,0,3.9.6,5.4,2.4,1.8,1.8,2.7,4.3,3,7.3.3,3.1,0,5.5-.9,7.9-1.2,2.4-2.7,3.7-4.5,4s-3.9-.6-5.4-2.4Z"/>
          </g>
          <g id="headFocus_0_Layer0_4_FILL-21">
            <path class="cls-12" d="M182.7,129.8c-6.3-4-11.9-4.9-17.3-2.4-5.4,2.1-8.6,7-9.8,14.3l27.1-11.9h0Z"/>
          </g>
          <g id="headFocus_0_Layer0_5_FILL-21">
            <path class="cls-12" d="M161.8,121.6c1.8-1.8,2.7-3.4,2.4-5.2,0-1.8-1.5-3.4-3.9-4.6-2.1-.9-4.8-1.2-7.4-.9s-4.8,1.2-6.5,3.1-2.4,3.7-2.4,5.5,1.5,3.4,3.6,4.3c2.1,1.2,4.5,1.5,7.1,1.2s5.1-1.5,6.8-3.4h.3Z"/>
          </g>
          <g id="headFocus_0_Layer0_6_FILL-21">
            <path class="cls-16" d="M210,75.2l-.6-25.9h-1.5l-.3-2.4-125.9,18.3,5.1,22.9c21.1-3.4,36-9.8,45.2-19.2,11.9,11.6,23.8,16.5,35.4,15.3l3-10.1c14,3.1,27.1,3.4,39.9.9l-.3.3Z"/>
          </g>
          <g id="headFocus_0_Layer0_7_FILL-21">
            <path class="cls-2" d="M197.5,48.4c-1.8-2.1-4.2-4-6.8-5.5-12.2-7.9-28.3-10.4-47.9-7.6-19.6,2.7-34.2,9.8-43.8,20.7-.6.6-1.2,1.2-1.8,2.1-1.5,1.5-2.7,3.4-3.6,5.5-.9,1.8-.9,3.7.3,6.1,11.6-9.2,28.6-15.6,50.9-18.6,22-3.1,39.9-2.1,53.6,3.4.6-2.4,0-4.3-1.2-5.8l.3-.3Z"/>
          </g>
          <g id="headFocus_0_Layer0_8_FILL-21">
            <path class="cls-16" d="M104.1,106.3c.9-1.8,1.2-3.7.6-5.8l-4.2-16.8-14.6,2.1,4.8,18.6c.6,2.1,1.8,3.7,3.6,4.9,1.8.9,3.6,1.2,5.4.6h0c2.1-.6,3.3-1.5,4.2-3.4l.3-.3Z"/>
          </g>
          <g id="headFocus_0_Layer0_9_FILL-21">
            <path class="cls-16" d="M196.1,87.4c0,2.1.9,4,2.4,5.5s3,2.1,5.1,2.1h0c2.1,0,3.6-.6,5.1-2.1s2.1-3.4,2.1-5.5v-19.2c-.3,0-15.2,2.1-15.2,2.1v17.4l.6-.3Z"/>
          </g>
          <g id="headFocus_0_Layer0_10_MEMBER_0_FILL-21">
            <path class="cls-16" d="M191.6,86.5l-2.7-6.7-26.8,7.9,2.4,5.8,27.1-6.7v-.3Z"/>
          </g>
          <g id="headFocus_0_Layer0_10_MEMBER_1_FILL-21">
            <path class="cls-16" d="M111.8,90.8l-1.8,7.3,28.3,1.8,1.5-6.1-28-2.7v-.3Z"/>
          </g>
          <g id="headFocus_0_Layer0_11_FILL-21">
            <path class="cls-18" d="M213.6,105.1c-.6,1.5-.6,3.1,0,4.3l4.5,11.3c.6,1.2,1.5,2.4,3,3.1s2.7.6,4.2,0h0c1.2-.6,2.4-1.5,3-3.1s.6-3.1,0-4.6l-4.5-11c-.6-1.2-1.5-2.4-3-3.1s-2.7-.6-4.2,0h0c-1.5.6-2.4,1.5-3,3.1Z"/>
          </g>
          <g id="headFocus_0_Layer0_12_FILL-21">
            <path class="cls-18" d="M93.7,122.5c-.9-1.2-2.1-1.8-3.6-2.1h0c-1.5,0-2.7,0-4.2,1.2-1.2.9-2.1,2.1-2.1,3.7l-1.2,11.9c0,1.5,0,3.1,1.2,4.3.9,1.2,2.1,1.8,3.6,2.1h0c1.5,0,3,0,4.2-1.2,1.2-.9,2.1-2.1,2.1-3.7l1.5-12.2c0-1.5,0-2.7-1.2-4.3l-.3.3Z"/>
          </g>
        </g>
      </g>
      <g>
        <g id="leg_0_Layer0_0_FILL-38">
          <path class="cls-5" d="M190.8,263.3v-14.8c.3,0-35,0-35,0l-.6,14.8h35.6Z"/>
          <path class="cls-4" d="M207.7,281.1l-17.2-17.8h-35l-.6,17.8h52.8Z"/>
          <path class="cls-18" d="M207.4,290v-8.9c.3,0-52.5,0-52.5,0l-.6,8.9h53.1Z"/>
          <path class="cls-17" d="M192.6,221.2c0-4.7-1.8-8.9-5.6-12.2-3.6-3.3-8-5-13.6-5s-9.8,1.8-13.3,5c-3.9,3.3-5.6,7.4-5.6,12.2l1.8,27.3h35.3l1.5-27.3h-.3Z"/>
        </g>
        <g id="leg_0_Layer0_0_FILL-39">
          <path class="cls-5" d="M111.9,263.3v-14.8c-.3,0,35,0,35,0l.6,14.8h-35.6Z"/>
          <path class="cls-4" d="M95,281.1l17.2-17.8h35l.6,17.8h-52.8Z"/>
          <path class="cls-18" d="M95.3,290v-8.9c-.3,0,52.5,0,52.5,0l.6,8.9h-53.1Z"/>
          <path class="cls-17" d="M110.1,221.2c0-4.7,1.8-8.9,5.6-12.2,3.6-3.3,8-5,13.6-5s9.8,1.8,13.3,5c3.9,3.3,5.6,7.4,5.6,12.2l-1.8,27.3h-35.3l-1.5-27.3h.3Z"/>
        </g>
        <g>
          <g id="arm_0_Layer0_0_FILL-64">
            <path class="cls-13" d="M216.9,210.5c-5.9-4.2-11.6-8.9-16.6-14.2,5.3-10.1,13.9-18.1,25.5-24.6,2.1,2.4,4.4,4.4,6.8,6.5,5.3,4.7,11.3,8.3,18.4,11,4.4,1.8,7.7,4.7,9.8,9.2,1.8,4.4,2.1,8.9.3,13.6-1.8,4.4-5,7.7-9.5,9.5-4.4,2.1-8.9,2.1-13.3.3-5.3-2.1-10.4-4.7-15.1-7.4-2.1-1.2-4.2-2.4-5.9-3.9h-.3Z"/>
            <path class="cls-1" d="M182.5,160.4c1.5-4.7,4.2-8.3,8.3-10.7,4.4-2.4,8.6-2.7,13.3-1.5,4.7,1.2,8.3,3.9,10.7,8,3.3,5.6,6.8,11,11,15.1-11.6,6.5-20.2,14.5-25.5,24.6-6.2-6.5-11.6-14.2-16.3-22.5-2.1-4.2-2.7-8.6-1.5-13.3v.3Z"/>
          </g>
          <g id="arm_0_Layer0_1_FILL-64">
            <path class="cls-11" d="M200.9,204l-8.6-8.6,31.4-31.1,8.6,8.6-31.1,31.4-.3-.3Z"/>
          </g>
        </g>
        <g>
          <g id="arm_0_Layer0_0_FILL-65">
            <path class="cls-13" d="M77.8,203.7c6.8-2.4,13.3-5.6,19.9-9.5-2.7-11-8.9-21.1-18.4-30.3-2.7,1.8-5.3,3.3-8,4.4-6.2,3-13.1,5-20.5,5.6-4.7.6-8.6,2.7-11.6,6.2-3,3.9-4.2,8.3-3.9,13.1.6,4.7,2.7,8.6,6.5,11.6,3.6,3,8,4.4,12.8,3.9,5.6-.6,11.3-1.8,16.3-3.3,2.4-.6,4.4-1.2,6.5-2.1l.3.3Z"/>
            <path class="cls-1" d="M123.8,164.2c0-4.7-1.8-8.9-5.3-12.5-3.6-3.3-7.7-5-12.5-4.7-4.7,0-8.9,1.8-12.2,5-4.4,4.7-9.5,8.6-14.5,11.9,9.5,9.2,15.7,19.3,18.4,30.3,7.7-4.7,14.8-10.7,21.4-17.5,3.3-3.6,4.7-7.7,4.7-12.5Z"/>
          </g>
          <g id="arm_0_Layer0_1_FILL-65">
            <path class="cls-11" d="M95,201.6l10.7-5.9-22.2-38.3-10.4,5.9,21.9,38.3Z"/>
          </g>
        </g>
        <g>
          <g id="body_0_Layer0_0_FILL-28">
            <path class="cls-11" d="M194.6,221.2v-14.8h-89.3v14.8h89.3Z"/>
            <path class="cls-17" d="M190.2,236.6c2.7-3.9,4.2-8.9,4.4-15.4h-89.3c0,6.5,1.8,11.6,4.4,15.4h80.4Z"/>
            <path class="cls-1" d="M204.1,166c2.1-10.7-.6-15.7-7.7-15.4h-92.8c-7.1-.3-9.8,4.7-7.7,15.4l9.8,40.6h89.3l9.5-40.6h-.3Z"/>
          </g>
          <g id="body_0_Layer0_0_MEMBER_0_FILL-28">
            <path class="cls-7" d="M173.9,128.6c-6.2-5-13.6-7.4-22.2-7.4s-16.3,2.7-22.5,7.4c-6.2,5.3-9.2,11.9-9.2,19.3s0,.9,0,1.5c.3,6.8,3.3,12.5,9.2,17.2,6.2,5.3,13.6,8,22.5,8s16-2.7,22.2-8c5.6-4.7,8.9-10.4,8.9-17.2v-1.5c0-7.4-3-13.6-9.2-19.3h.3Z"/>
          </g>
          <g id="body_0_Layer0_0_MEMBER_1_FILL-28">
            <path class="cls-10" d="M141.8,207.2l-41.8,3.9c.9,4.7,1.8,10.1,2.7,15.4l36.8-4.4c.9-4.4,1.8-9.5,2.4-14.8h0Z"/>
            <path class="cls-18" d="M141.8,207.2c.6-6.8.9-14.2.6-22.2-13.3-8.3-24-21.1-31.7-38.3l-13.3-2.7c-4.2,7.4-3.3,29.7,2.7,67l41.8-3.9h0Z"/>
          </g>
          <g id="body_0_Layer0_0_MEMBER_2_FILL-28">
            <path class="cls-10" d="M201.5,210.8l-41.8-3.9c.6,5.3,1.5,10.1,2.4,14.8l37.1,4.4c.9-5.3,1.8-10.7,2.7-15.4h-.3Z"/>
            <path class="cls-18" d="M158.7,184.7c0,8,0,15.4.6,22.2l41.8,3.9c5.9-37.4,6.8-59.6,2.7-67l-13.6,2.7c-7.7,17.2-18.4,30-31.7,38.3h.3Z"/>
          </g>
          <g id="body_0_Layer0_0_MEMBER_3_FILL-28">
            <path class="cls-11" d="M112.5,147.6l-6.2,10.7,38.9,22.5,6.2-10.7-38.9-22.5M190.2,147.6l-38.9,22.5,5.9,10.7,38.9-22.5-6.2-10.7h.3Z"/>
            <path class="cls-1" d="M157.6,180.8l-5.9-10.7-6.2,10.7h12.2Z"/>
          </g>
        </g>
        <g id="hand_0_Layer0_0_FILL-63">
          <path class="cls-7" d="M273.2,186.8l-2.7-1.2c-11.6-3.9-21.9-3.9-30.6-.6,18.4-11,29.4-10.4,33.2,1.5h0v.3Z"/>
          <path class="cls-13" d="M229.6,220.6c-2.4-1.2-3-3-2.1-5.6l12.5-30c8.6-3.6,19-3.3,30.6.6l2.7,1.2h0c3,1.2,6.2,2.4,9.5,3.9l1.2.6c2.7,1.2,3.3,3.6,2.4,8-1.2,6.2-3,12.2-5.3,17.5-6.5,15.4-23.1,17.2-49.5,5l-2.4-.9.6-.3Z"/>
        </g>
        <g id="shadow_0_Layer0_0_FILL-37">
          <path class="cls-9" d="M194.6,125.7c-11.6-7.7-25.8-11.6-42.1-11.6s-30.8,3.9-42.7,11.6c-11.6,8-17.5,17.5-17.5,28.5s5.9,20.2,17.5,27.9c11.9,8,26.1,11.9,42.7,11.9s30.6-3.9,42.1-11.9c11.9-7.7,17.8-16.9,17.8-27.9s-5.9-20.5-17.8-28.5Z"/>
        </g>
        <g>
          <g id="head_0_Layer0_0_FILL-6">
            <path class="cls-3" d="M206.2,31.7l-7.1-14.5c-28.5-5.6-55.5-8-81-6.8-14.2.3-21.4,6.2-21.4,17.8v5c2.7-6.8,9.5-10.4,20.2-10.4,25.5-.9,52.5,1.2,81,6.8l8.3,1.8M235.6,48.3l.9-3.6c2.7-11-1.8-18.1-13.6-21.9l-14.8,9.5,13.3,3c8.3,2.7,13.1,6.8,14.2,13.1Z"/>
            <path class="cls-16" d="M221.3,34.9l-13.3-3-1.2.9-.6-1.2-8.3-1.8c-28.5-5.6-55.5-8-81-6.8-10.7,0-17.5,3.9-20.2,10.4v57.8c0,8.6,5,13.6,15.1,14.8l91.7,10.7c10.1,1.2,16.3-2.4,18.4-11l13.6-57.5c-1.2-6.2-5.9-10.7-14.2-13.1v-.3Z"/>
          </g>
          <g id="head_0_Layer0_1_FILL-6">
            <path class="cls-13" d="M88.2,88.9c-5,4.2-8,9.5-8.9,16s.9,12.5,5,17.5c4.2,5.3,9.5,8.3,15.7,9.2s12.5-.9,17.5-5.3c5-4.2,8-9.5,8.6-16,.6-6.5-.9-12.5-4.7-17.5-4.2-5.3-9.5-8.3-16-9.2-6.5-.9-12.2.9-17.5,5.3M91.7,116.5c-2.4-3-3.3-6.5-3-10.7.3-4.2,2.1-7.1,5.3-9.8,3-2.4,6.5-3.6,10.4-3s7.1,2.4,9.8,5.3c2.4,3.3,3.3,6.8,3,10.7-.6,4.2-2.4,7.1-5.3,9.8s-6.5,3.6-10.7,3-6.8-2.4-9.5-5.3M197,101.7c-5,4.2-8,9.5-8.9,16s.9,12.5,5,17.5c4.2,5.3,9.5,8.3,15.7,9.2,6.2.9,12.5-.9,17.5-5.3,5-4.2,8-9.5,8.6-16s-.9-12.5-4.7-17.5c-4.2-5.3-9.5-8.3-16-9.2-6.5-.9-12.2.9-17.5,5.3M202.9,109.1c3-2.4,6.5-3.6,10.4-3s7.1,2.4,9.8,5.3c2.4,3.3,3.3,6.8,3,10.7s-2.4,7.1-5.3,9.8c-3.3,2.4-6.8,3.6-10.7,3-3.9-.6-6.8-2.4-9.5-5.3s-3.6-6.5-3-10.7,2.4-7.1,5.3-9.8Z"/>
            <path class="cls-7" d="M88.8,105.8c-.6,4.2.6,7.7,3,10.7,2.4,3.3,5.6,5,9.5,5.3s7.7-.6,10.7-3,4.7-5.6,5.3-9.8c.6-3.9-.6-7.4-3-10.7-2.4-3-5.6-4.7-9.8-5.3-4.2-.6-7.4.6-10.4,3-3,2.7-4.7,5.9-5.3,9.8M213.3,106.1c-3.9-.6-7.4.6-10.4,3-3.3,2.7-5,5.9-5.3,9.8s.6,7.7,3,10.7c2.4,3.3,5.6,5,9.5,5.3,3.9.3,7.4-.6,10.7-3,3-2.4,4.7-5.6,5.3-9.8.6-4.2-.6-7.4-3-10.7-2.7-3-5.6-4.7-9.8-5.3Z"/>
          </g>
          <g id="head_0_Layer0_2_FILL-6">
            <path class="cls-13" d="M188.4,158c10.7,0,17.5-5,19.9-15.1l16.9-75.6-123.4-14.5-1.5,94.9,88.1,10.4h0Z"/>
          </g>
          <g id="head_0_Layer0_3_FILL-6">
            <path class="cls-4" d="M121.4,102c-.3,3.6.3,6.5,2.1,9.2,2.1,3,4.7,4.7,8.3,5s6.2-.6,8.9-3c2.7-2.1,4.2-5,4.4-8.3s-.3-6.5-2.4-9.2c-2.1-3-4.7-4.4-8-4.7s-6.5.6-9.2,2.7c-2.4,2.1-3.9,5-4.2,8.6M128.8,103.1v-.6c.3-2.1,1.2-3.9,2.7-5,1.5-1.5,3.3-2.1,5.3-1.8,2.1,0,3.6,1.2,4.7,3,1.2,1.5,1.5,3.6,1.5,5.6v.6c-.3,2.1-1.2,3.6-2.7,5s-3.3,2.1-5.3,1.8c-2.1,0-3.6-1.2-4.7-3-1.2-1.5-1.5-3.6-1.5-5.3M173.6,117.1c2.1,3,5,4.7,8.3,5s6.2-.6,8.6-3c2.7-2.1,4.4-5,4.7-8.3.3-3.6-.6-6.5-2.7-9.2-1.8-2.7-4.4-4.4-7.7-4.7s-6.5.6-9.2,2.7c-2.4,2.1-3.9,5-4.2,8.6s.3,6.5,2.1,9.2M185.7,103.7c1.2,1.8,1.8,3.6,1.5,5.6v.6c-.3,2.1-1.5,3.6-3,5s-3.3,2.1-5,1.8c-2.1,0-3.6-1.2-5-3-.9-1.5-1.5-3.3-1.2-5.3v-.9c.3-1.8,1.2-3.6,2.7-4.7,1.8-1.5,3.6-2.1,5.6-1.8,2.1,0,3.6,1.2,4.4,3v-.3Z"/>
            <path class="cls-16" d="M128.8,102.5v.6c0,2.1,0,3.9,1.5,5.3,1.2,1.8,2.7,2.7,4.7,3,2.1,0,3.9-.3,5.3-1.8,1.5-1.2,2.4-3,2.7-5v-.6c0-2.1,0-3.9-1.5-5.6-1.2-1.8-2.7-2.7-4.7-3-2.1,0-3.9.3-5.3,1.8-1.5,1.2-2.4,3-2.7,5M187.2,109.4c0-2.1-.3-3.9-1.5-5.6s-2.7-2.7-4.4-3c-2.1,0-3.9.3-5.6,1.8-1.5,1.5-2.1,3-2.4,4.7v.9c0,2.1,0,3.9,1.2,5.3,1.5,1.8,3,2.7,5,3,2.1,0,3.6-.3,5-1.8,1.5-1.2,2.4-3,2.7-5v-.6.3Z"/>
          </g>
          <g id="head_0_Layer0_3_MEMBER_0_FILL-6">
            <path class="cls-16" d="M150.7,96l1.5-8.3-31.7-5.3-1.5,8.3,31.4,5M170.3,89.8v8.6c-.3,0,31.4,2.4,31.4,2.4l.6-8.3-32-2.4v-.3Z"/>
          </g>
          <g id="head_0_Layer0_3_MEMBER_1_FILL-6">
            <path class="cls-16" d="M155.8,120.3c-7.1-.9-13.1,0-18.1,2.1-4.7,2.1-7.7,4.7-8.6,8.3,0,.6-.3.9,0,1.5,0,.6.3.9.6,1.5s.9.9,1.5.9c8.3,2.4,16.3,2.1,24.3,0,7.1,4.2,14.8,5.9,23.4,5.6.6,0,1.2,0,1.5-.6s.9-.9,1.2-1.2c0-.6.3-1.2.3-1.5,0-3.6-2.4-6.8-6.8-10.1-4.4-3.6-10.4-5.6-17.2-6.2h-1.8l-.3-.3Z"/>
          </g>
          <g id="head_0_Layer0_3_MEMBER_2_FILL-6">
            <path class="cls-12" d="M164.1,121.2c2.1-1.2,3.3-2.7,3.6-4.4,0-1.8-.6-3.6-2.4-5.3-1.8-1.5-4.2-2.4-7.1-2.7s-5,0-7.4,1.2c-2.1,1.2-3.3,2.7-3.6,4.4s.6,3.6,2.4,5.3c1.8,1.8,4.2,2.7,6.8,3s5.3,0,7.4-1.5h.3Z"/>
          </g>
          <g id="head_0_Layer0_4_FILL-6">
            <path class="cls-16" d="M104.2,54.8h0c-2.1,0-3.9.9-5.3,2.4-1.5,1.2-2.1,3-2.1,5v47.8c0,1.8.9,3.6,2.1,5,1.5,1.5,3.3,2.1,5,2.1h0c2.1,0,3.6-.6,5-2.1s2.1-3.3,2.1-5.3v-47.5c0-2.1-.9-3.9-2.4-5-1.5-1.5-3-2.1-4.7-2.1M217.5,69.6c-1.5.9-2.7,2.7-3.3,4.4l-11,46.3c-.3,2.1,0,3.9.9,5.6s2.4,2.7,4.4,3.3h0c1.8.6,3.6,0,5.3-.6,1.8-1.2,3-2.7,3.3-4.4l11.3-46.6c.6-2.1,0-3.6-.9-5.3-1.2-1.8-2.7-3-4.4-3.6h0c-2.1-.3-3.9,0-5.3.9h-.3Z"/>
          </g>
          <g id="head_0_Layer0_5_FILL-6">
            <path class="cls-16" d="M206.8,76.7c13.1-2.7,19.9-6.5,20.5-11.9.6-5.3-5-10.1-17.2-15.1-11.9-4.7-27-8-44.8-9.5-17.5-1.5-32.9-.9-46,1.5-13.1,2.7-19.9,6.5-20.5,11.9s5,10.4,17.2,15.1c12.2,5,27,8,44.8,9.5,17.8,1.5,33.2,1.2,46-1.5Z"/>
          </g>
        </g>
        <g id="hand_0_Layer0_0_FILL-64">
          <path class="cls-7" d="M26.8,174.6l2.7-1.2c11.6-3.9,21.9-3.9,30.6-.6-18.4-11-29.4-10.4-33.2,1.5h0v.3Z"/>
          <path class="cls-13" d="M70.4,208.4c2.4-1.2,3-3,2.1-5.6l-12.5-30c-8.6-3.6-19-3.3-30.6.6l-2.7,1.2h0c-3,1.2-6.2,2.4-9.5,3.9l-1.2.6c-2.7,1.2-3.3,3.6-2.4,8,1.2,6.2,3,12.2,5.3,17.5,6.5,15.4,23.1,17.2,49.5,5l2.4-.9-.6-.3Z"/>
        </g>
      </g>
    </g>
  </g>
</svg>