<?xml version="1.0" encoding="UTF-8"?>
<svg xmlns="http://www.w3.org/2000/svg" version="1.1" viewBox="0 0 300 300">
  <defs>
    <style>
      .cls-1 {
        fill: #784536;
      }

      .cls-1, .cls-2, .cls-3, .cls-4 {
        fill-rule: evenodd;
      }

      .cls-5, .cls-2 {
        fill: #fff;
      }

      .cls-3 {
        fill: #0b0b0b;
      }

      .cls-6 {
        fill: #231f20;
      }

      .cls-7, .cls-4 {
        fill: #4b2014;
      }

      .cls-8 {
        fill: #ea6c87;
      }

      .cls-9 {
        display: none;
      }
    </style>
  </defs>
  <!-- Generator: Adobe Illustrator 28.6.0, SVG Export Plug-In . SVG Version: 1.2.0 Build 709)  -->
  <g>
    <g id="Layer_1">
      <path class="cls-1" d="M208.1,67.4c14.3,9.1,26,22.3,35.2,39.8l13.1-11.8c22.9-21.5-10.9-58.8-35.9-38.4l-12.4,10.4Z"/>
      <path class="cls-4" d="M215.8,74.1c8.9,5.6,16.2,13.8,21.9,24.6l8-7.3c14.3-13.3-6.6-36.4-22.2-23.7l-7.7,6.5Z"/>
      <path class="cls-1" d="M92.9,67.4c-14.3,9.1-26,22.3-35.2,39.8l-13-11.8c-23-21.5,10.7-58.8,35.8-38.4l12.4,10.4Z"/>
      <path class="cls-4" d="M85.2,74.1c-8.9,5.6-16.2,13.8-21.8,24.6l-8-7.3c-14.3-13.3,6.6-36.4,22.2-23.7l7.7,6.5Z"/>
      <path class="cls-4" d="M119.1,248.9c8.2,8.7,19.5,13.6,31.4,13.6s23.3-4.8,31.4-13.6c114.9-36.9,83.9-197.5-31.4-197.8-115.3.4-146.3,161-31.4,197.8h0Z"/>
      <path class="cls-1" d="M253.8,147.2c-3.3-48.9-41-96-103.3-96.1-62.2.1-100,47.2-103.3,96.1,2.6,36.8,25.3,72.3,71.9,87.2,8.2,8.7,19.5,13.6,31.4,13.6s23.3-4.8,31.4-13.6c46.7-14.9,69.3-50.3,71.9-87.2h0Z"/>
      <path class="cls-3" d="M145.4,239.4c.7,2.4,3,3.9,5.3,3.9s4.6-1.5,5.3-3.9c2-7.7,8-12.6,15.8-18.3,2.8-1.9,6.6-5.2-1.5-10.9-8.6-5.9-30.8-5.9-39.4,0-8.2,5.7-4.4,8.9-1.7,10.9,7.9,5.7,14.2,10.6,16.2,18.3h0Z"/>
      <path class="cls-7" d="M147.3,238.8c.2.7.7,1.3,1.3,1.8.6.5,1.3.7,2.1.7s1.5-.2,2.1-.7,1.1-1.1,1.3-1.8c1.1-4.1,3.3-7.6,6.1-10.6,2.8-3.1,6.4-5.8,10.5-8.7,1.1-.7,2.2-1.7,2.5-2.7.1-1.1-.8-2.5-4.1-4.8-3.9-2.7-11.2-4-18.5-4s-14.6,1.3-18.5,4c-3.3,2.4-4.3,3.8-4.1,4.8.2,1.1,1.4,2,2.5,2.7,4,3,7.7,5.7,10.6,8.7s5.2,6.5,6.3,10.6h0ZM146.2,243.7c-1.2-.8-2.2-2.1-2.7-3.7v-.2c-.9-3.4-2.8-6.3-5.4-9-2.7-2.8-6.1-5.4-9.9-8.1-1.8-1.2-3.8-2.8-4.1-5.4-.4-2.4.8-5.3,5.8-8.7,4.6-3.2,12.8-4.7,20.8-4.7s16.2,1.5,20.8,4.7c5,3.4,6.1,6.4,5.8,8.7-.4,2.6-2.4,4.3-4.1,5.4-3.8,2.7-7.2,5.3-9.8,8.1-2.5,2.6-4.3,5.6-5.2,9v.2c-.6,1.5-1.5,2.8-2.8,3.7-1.3.9-2.8,1.5-4.5,1.5-1.7,0-3.2-.6-4.5-1.5h0Z"/>
      <ellipse class="cls-8" cx="200" cy="194.5" rx="22.7" ry="11.3"/>
      <ellipse class="cls-8" cx="101" cy="194.5" rx="22.7" ry="11.3"/>
      <path class="cls-2" d="M105,196.6c-18.3-15.7-19-52.7,5.4-64.1,15.4-7.1,31.4,4.4,30.5,21.1-1.1,17.4-23.7,21-31.1,41.8-.4.9-1.1,1.5-2.1,1.9-.9.2-1.9,0-2.7-.7h0Z"/>
      <path class="cls-2" d="M199,196.6c18.3-15.7,19.1-52.7-5.4-64.1-15.4-7.1-31.4,4.4-30.4,21.1,1.1,17.4,23.6,21,30.9,41.8.4.9,1.2,1.5,2.1,1.9.9.2,2,0,2.7-.7h0Z"/>
      <path class="cls-2" d="M117.2,147.6c3.5,0,6.5,3,6.5,6.5s-3,6.5-6.5,6.5-6.5-2.8-6.5-6.5,2.8-6.5,6.5-6.5h0Z"/>
      <path class="cls-2" d="M187,147.6c-3.7,0-6.5,3-6.5,6.5s2.8,6.5,6.5,6.5,6.5-2.8,6.5-6.5-3-6.5-6.5-6.5h0Z"/>
      <path class="cls-1" d="M145.4,239.4c.7,2.4,3,3.9,5.3,3.9s4.6-1.5,5.3-3.9c2-7.7,8-12.6,15.8-18.3,2.8-1.9,6.6-5.2-1.5-10.9-8.6-5.9-30.8-5.9-39.4,0-8.2,5.7-4.4,8.9-1.7,10.9,7.9,5.7,14.2,10.6,16.2,18.3h0Z"/>
      <path class="cls-4" d="M145.4,239.4c.7,2.4,3,3.9,5.3,3.9s4.6-1.5,5.3-3.9c2-7.7,8-12.6,15.8-18.3.5-.4.9-.7,1.4-1.1-.7-.8-1.7-1.7-3-2.5-8.6-5.9-30.8-5.9-39.4,0-1.3.8-2.2,1.7-3,2.5.5.4.9.7,1.3,1.1,7.9,5.7,14.2,10.6,16.2,18.3h0Z"/>
      <path class="cls-9" d="M133.5,249.5c-1.1.5-2.2-.1-2.6-1.1-.5-1.1.1-2.2,1.1-2.6,6.1-2.5,12.5-3.7,18.9-3.7s12.8,1.2,18.9,3.7c.9.4,1.4,1.5,1.1,2.6-.4.9-1.5,1.5-2.6,1.1-5.6-2.2-11.5-3.3-17.4-3.3-5.9,0-11.8,1.1-17.4,3.3h0Z"/>
      <g class="cls-9">
        <g id="Symbol_99_0_Layer0_0_MEMBER_0_FILL">
          <path class="cls-5" d="M117.9,131.6c-6,0-11.2,2.1-15.4,6.4-4.3,4.3-6.4,9.4-6.4,15.4s2.1,11.2,6.4,15.4c4.2,4.3,9.3,6.4,15.4,6.4s11.2-2.1,15.4-6.4c4.3-4.2,6.4-9.3,6.4-15.4s-2.1-11.1-6.4-15.4c-4.2-4.3-9.3-6.4-15.4-6.4Z"/>
        </g>
      </g>
      <g id="Symbol_99_0_Layer0_0_MEMBER_1_FILL">
        <path class="cls-7" d="M117.9,140.3c-3.6,0-6.6,1.3-9.2,3.9-2.6,2.5-3.9,5.6-3.9,9.2s1.3,6.7,3.9,9.3c2.5,2.5,5.6,3.8,9.2,3.8,3.6,0,6.7-1.3,9.3-3.8,2.5-2.5,3.8-5.6,3.8-9.3s-1.3-6.6-3.8-9.2c-2.5-2.6-5.6-3.9-9.3-3.9Z"/>
      </g>
      <g class="cls-9">
        <g id="Symbol_99_0_Layer0_1_MEMBER_0_FILL">
          <path class="cls-5" d="M183.3,131.6c-6,0-11.2,2.1-15.4,6.4-4.3,4.3-6.4,9.4-6.4,15.4s2.1,11.2,6.4,15.4c4.2,4.3,9.3,6.4,15.4,6.4s11.2-2.1,15.4-6.4c4.3-4.2,6.4-9.3,6.4-15.4s-2.1-11.1-6.4-15.4c-4.2-4.3-9.3-6.4-15.4-6.4Z"/>
        </g>
      </g>
      <g id="Symbol_99_0_Layer0_1_MEMBER_1_FILL">
        <path class="cls-7" d="M183.3,140.3c-3.6,0-6.6,1.3-9.2,3.9-2.6,2.5-3.9,5.6-3.9,9.2s1.3,6.7,3.9,9.3c2.5,2.5,5.6,3.8,9.2,3.8,3.6,0,6.7-1.3,9.3-3.8,2.5-2.5,3.8-5.6,3.8-9.3s-1.3-6.6-3.8-9.2c-2.5-2.6-5.6-3.9-9.3-3.9Z"/>
      </g>
      <g id="Symbol_99_0_Layer0_2_FILL">
        <path class="cls-6" d="M90.3,115.7c-1.2.3-2.1.9-2.6,2-.7,1-.8,2.1-.5,3.4l2.3,8.4c.3,1.2,1,2.1,2.1,2.6.9.7,2,.8,3.3.5l42.1-11.3c1.2-.3,2.1-1,2.7-2.1.6-.9.7-2,.4-3.3l-2.3-8.4c-.3-1.2-.9-2.1-2-2.7-1.1-.6-2.2-.7-3.4-.4l-42.1,11.3Z"/>
      </g>
      <g id="Symbol_99_0_Layer0_3_FILL">
        <path class="cls-6" d="M168.8,104.3c-1.2-.3-2.3-.1-3.4.4-1,.6-1.7,1.5-2,2.7l-2.3,8.4c-.3,1.2-.1,2.3.4,3.3.7,1.1,1.6,1.8,2.7,2.1l42.1,11.3c1.2.3,2.3.1,3.3-.5,1.1-.5,1.8-1.4,2.1-2.6l2.3-8.4c.3-1.2.1-2.4-.5-3.4-.5-1-1.4-1.7-2.6-2l-42.1-11.3Z"/>
      </g>
      <g id="Symbol_99_0_Layer0_4_FILL">
        <path class="cls-6" d="M171.4,247.9c-.8-.7-1.6-1.3-2.5-2-4.9-3.8-10.9-5.7-17.9-5.7s-13.2,1.9-18.2,5.7c0,0,0,.1-.1.1-.9.7-1.7,1.5-2.4,2.3-.8.9-1.2,1.9-1.1,3.2,0,1.2.6,2.1,1.5,2.9.9.8,1.9,1.2,3.2,1.1,1.2,0,2.1-.5,2.9-1.4.4-.4.8-.8,1.2-1.2,3.6-2.6,7.9-3.9,13-3.9s9.2,1.3,12.7,3.9h.1c.7.5,1.3,1,1.9,1.5.9.8,1.9,1.2,3.2,1.1,1.2,0,2.1-.5,2.9-1.4.8-.9,1.2-2,1.1-3.2,0-1.2-.5-2.3-1.4-3.1Z"/>
      </g>
    </g>
  </g>
</svg>