<?xml version="1.0" encoding="UTF-8"?>
<svg xmlns="http://www.w3.org/2000/svg" version="1.1" xmlns:xlink="http://www.w3.org/1999/xlink" viewBox="0 0 300 300">
  <defs>
    <style>
      .cls-1 {
        fill: #71a2be;
      }

      .cls-2 {
        fill: #454a51;
      }

      .cls-3 {
        fill: #fff;
      }

      .cls-4 {
        fill: url(#radial-gradient);
      }

      .cls-5 {
        fill: #a8603f;
      }

      .cls-6 {
        fill: #3dbf7b;
      }

      .cls-7 {
        fill: #bfd4e5;
      }

      .cls-8 {
        fill: #955435;
      }

      .cls-9 {
        fill: #bf7958;
      }

      .cls-10 {
        fill: #25a863;
      }

      .cls-11 {
        fill: #3c3e41;
      }

      .cls-12 {
        fill: #676ac6;
      }

      .cls-13 {
        fill: #eea160;
      }
    </style>
    <radialGradient id="radial-gradient" cx="-260.5" cy="74.4" fx="-260.5" fy="74.4" r="41.5" gradientTransform="translate(509 147.5) scale(1.4 .7)" gradientUnits="userSpaceOnUse">
      <stop offset="0" stop-color="#000" stop-opacity=".3"/>
      <stop offset="1" stop-color="#000" stop-opacity="0"/>
    </radialGradient>
  </defs>
  <!-- Generator: Adobe Illustrator 28.6.0, SVG Export Plug-In . SVG Version: 1.2.0 Build 709)  -->
  <g>
    <g id="Layer_1">
      <g>
        <g id="back_FL_FL_FL_FL_FL_FL_FL_FL_FL_FL_FL_FL_FL_FL_FL_FL_FL_FL_FL_FL">
          <g id="Symbol_1_0_Layer0_0_MEMBER_0_FILL-21">
            <path class="cls-2" d="M101.7,107.3l-11-.6c-1.2,0-2.4,0-3.3,1.2-.9.9-1.5,2.1-1.5,3.4-.6,14.3-6.3,26.8-16.7,37.8-.9.6-1.2,1.8-1.2,3.1s0,2.7.9,3.7h.3c15.5-13.7,25.6-29,31-45.5.3-.9.9-2.1,1.8-3.1h-.3Z"/>
            <path class="cls-11" d="M132.9,109.1l-31-1.8c-.9.9-1.5,1.8-1.8,3.1-5.4,16.5-15.5,31.7-31,45.5l-.3.3c.9.9,1.8,1.5,3.3,1.5,32.7,3.7,54.5-10.4,65.2-41.5,0-1.2.3-2.1,0-3.1,0-.9-.9-1.8-1.8-2.4-.9-.9-1.8-1.2-2.7-1.2v-.3Z"/>
          </g>
          <g id="Symbol_1_0_Layer0_0_MEMBER_1_FILL-21">
            <path class="cls-11" d="M201.1,110c-.3-.9-.9-2.1-1.5-3.1l-31.3,1.8c-.9,0-2.1.3-2.7,1.2-.9.6-1.5,1.5-1.8,2.4v3.1c10.7,31.4,32.4,45.2,65.2,41.5,1.2,0,2.1-.6,3-1.5h-.3c-15.5-14-25.6-29.3-31-45.8l.3.3Z"/>
            <path class="cls-2" d="M215.4,111.2c0-1.2-.6-2.4-1.5-3.4-.9-.9-2.1-1.2-3.3-1.2l-11,.6c.9.9,1.2,1.8,1.5,3.1,5.4,16.5,15.5,31.7,31,45.5h.3c0,.3,0,0,0,0,.9-.9,1.2-2.1,1.2-3.7s-.6-2.4-1.5-3.1c-10.4-11-16.1-23.5-16.7-37.8h0Z"/>
          </g>
        </g>
        <g id="leg_0_Layer0_0_FILL-55">
          <path class="cls-3" d="M208,290v-9.2c.3,0-44.1,0-44.1,0v9.2h44.1Z"/>
          <path class="cls-7" d="M208.3,280.8c-9.5-2.7-15.5-8.8-17.3-18.3h-27.4v18.3h44.7Z"/>
          <path class="cls-9" d="M191,262.5h0v-15.3c.3,0-27.7,0-27.7,0v15.3h27.7Z"/>
          <path class="cls-12" d="M193.1,219.2c0-4.9-1.8-9.2-5.7-12.5-3.6-3.4-8-5.2-13.7-5.2s-9.8,1.8-13.4,5.2c-3.9,3.4-5.7,7.6-5.7,12.5,6,4.9,8.9,14.3,8.9,28.1h28l1.5-28.1Z"/>
        </g>
        <g id="leg_0_Layer0_0_FILL-56">
          <path class="cls-3" d="M95.4,290v-9.2c-.3,0,44.1,0,44.1,0v9.2h-44.1Z"/>
          <path class="cls-7" d="M95.1,280.8c9.5-2.7,15.5-8.8,17.3-18.3h27.4v18.3h-44.7Z"/>
          <path class="cls-9" d="M112.4,262.5h0v-15.3c-.3,0,27.7,0,27.7,0v15.3h-27.7Z"/>
          <path class="cls-12" d="M110.3,219.2c0-4.9,1.8-9.2,5.7-12.5,3.6-3.4,8-5.2,13.7-5.2s9.8,1.8,13.4,5.2c3.9,3.4,5.7,7.6,5.7,12.5-6,4.9-8.9,14.3-8.9,28.1h-28l-1.5-28.1Z"/>
        </g>
        <g id="arm_0_Layer0_0_FILL-89">
          <path class="cls-9" d="M209.2,107.3c.6-7.3.9-12.8,1.2-17.1s2.4-6.4,6.5-7.3c4.2-.6,7.7,0,11,2.7,3.3,2.4,5.4,5.8,6.3,9.8,1.5,8.8,1.8,17.7.3,26.2l-26.8-7.3c.6-2.4,1.2-4.6,1.2-6.7l.3-.3Z"/>
          <path class="cls-6" d="M197.8,134.7c2.1-3.7,4.2-7,5.7-10.1l28,9.2c-1.5,4.3-3.3,8.5-5.4,12.8-4.5,8.5-10.4,17.1-18.2,25.3-3,3.1-6.5,4.9-10.7,4.9s-7.7-1.2-10.7-4c-3.3-2.7-5.1-6.1-5.1-10.4s1.2-7.6,4.2-10.7c5.1-5.5,9.2-11.3,12.2-16.8v-.3Z"/>
          <path class="cls-10" d="M234.5,121.6l3.3,1.2-2.1,12.2-3.9-1.2-28-9.2-2.7-.9,3-10.7,3.9,1.2,26.8,7.3h-.3Z"/>
        </g>
        <g id="arm_0_Layer0_0_FILL-90">
          <path class="cls-9" d="M97.2,115.8c-1.2-7.3-2.1-12.8-2.7-16.8s-3-6.1-7.1-6.4-7.7.9-11,3.7c-3.3,2.7-5.1,6.1-5.4,10.1-.9,9.2,0,17.7,2.1,26.2l26.2-9.8c-.9-2.4-1.5-4.6-2.1-6.7v-.3Z"/>
          <path class="cls-6" d="M110.6,142c-2.4-3.4-4.8-6.4-6.5-9.5l-27.1,11.6c1.8,4.3,3.9,8.2,6.5,12.5,5.1,8.2,11.9,15.9,20.2,23.5,3.3,2.7,6.8,4.3,11,4,4.2,0,7.7-1.8,10.4-5.2,3-3.1,4.5-6.4,4.2-10.7,0-4.3-1.8-7.6-5.1-10.4-5.7-5.2-10.1-10.4-13.7-15.9h0Z"/>
          <path class="cls-10" d="M73.1,132.6l-3.3,1.2,3.3,11.9,3.9-1.8,27.1-11.6,2.7-1.2-3.9-10.4-3.9,1.5-26.2,9.8.3.6Z"/>
        </g>
        <g>
          <g id="body_0_Layer0_0_FILL-41">
            <path class="cls-12" d="M110.6,229c0,4.3.6,9.2,1.8,13.7h75.3c1.2-4.9,1.8-9.5,1.8-13.7h-78.9Z"/>
            <path class="cls-10" d="M110.3,213.7h8.6c1.5-8.5-3-16.8-13.7-24.4l.6,2.4c2.1,6.7,3.6,14,4.2,22M194.3,191.8l.6-2.4c-10.4,7.6-14.9,15.9-13.4,24.4h8.6c.6-7.9,2.1-15.3,4.2-22M179.7,190.5c0-1.8-2.7-3.4-8.3-4.6-6-.9-12.8-1.5-21.1-1.5s-15.2.6-21.1,1.5c-5.7,1.2-8.3,2.7-8.3,4.6s2.7,3.1,8.3,4.3c6,1.2,12.8,2.1,21.1,2.1s15.2-.6,21.1-2.1c5.7-.9,8.3-2.4,8.3-4.3Z"/>
            <path class="cls-11" d="M193.7,213.7h-86.9l2.4,15.3h82.5l2.4-15.3h-.3Z"/>
            <path class="cls-6" d="M204.7,170.1c2.1-10.4,0-15.6-6.3-15.9h-94.7c-7.1-.3-9.8,4.9-7.7,15.9,4.5,6.4,7.7,13.7,10.1,22l-.6-2.4c10.4,7.6,15.2,15.9,13.7,24.4h62.2c-1.5-8.5,3-16.8,13.4-24.4l-.6,2.4c2.4-8.2,6-15.6,10.1-22M171.4,186c5.7,1.2,8.3,2.7,8.3,4.6s-2.7,3.1-8.3,4.3c-6,1.2-12.8,2.1-21.1,2.1s-15.2-.6-21.1-2.1c-5.7-.9-8.3-2.4-8.3-4.3s2.7-3.4,8.3-4.6c6-.9,12.8-1.5,21.1-1.5s15.2.6,21.1,1.5Z"/>
          </g>
          <g id="body_0_Layer0_1_FILL-41">
            <path class="cls-3" d="M181.8,153.6c-.6,6.4-3.6,12.2-8.9,16.8-6.3,5.5-13.7,7.9-22.6,7.9s-16.4-2.7-22.6-7.9c-5.4-4.6-8.3-10.1-8.6-16.5-1.2,2.4-1.8,5.2-1.8,7.9s0,.9,0,1.5c0,6.4,3.3,11.6,9.2,15.9,6.5,4.9,14.3,7.3,23.5,7.3s17-2.4,23.5-7.3c6-4.3,8.9-9.8,9.5-15.9v-1.5c0-2.7-.6-5.5-1.8-8.2h.6Z"/>
            <path class="cls-9" d="M181.8,151.2c0-7.6-3-14-9.2-19.5-6.3-5.2-13.7-7.6-22.6-7.6s-16.4,2.7-22.6,7.6c-6,5.5-9.2,11.9-9.2,19.5v2.7c.6,6.4,3.6,11.9,8.6,16.5,6.3,5.5,13.7,7.9,22.6,7.9s16.4-2.7,22.6-7.9c5.4-4.6,8.3-10.4,8.9-16.8v-2.4h.9Z"/>
          </g>
        </g>
        <g id="hand_0_Layer0_0_FILL-87">
          <path class="cls-5" d="M236.2,52h-2.7c-12.2.9-21.7,5.5-28.6,14,13.1-19.2,23.5-23.8,31.6-14h-.3Z"/>
          <path class="cls-9" d="M205,90.2v-24.4c6.8-8.2,16.4-13.1,28.6-14h14c3,0,4.8,2.1,5.7,6.1,1.2,6.4,1.8,12.5,1.8,18.3,0,14.9-17,19.5-50.6,14h.6Z"/>
        </g>
        <g id="hand_0_Layer0_0_FILL-88">
          <path class="cls-5" d="M66.3,65.1h2.7c12.2,2.7,21.1,8.5,26.8,17.7-10.7-20.7-20.5-26.5-29.8-18h0l.3.3Z"/>
          <path class="cls-9" d="M93.1,107.3l3-24.1c-5.7-9.2-14.9-14.9-26.8-17.4h-2.7v-.3c-3.3-.6-6.8-.9-10.4-1.2h-.9c-3-.6-5.1,1.2-6.3,5.5-2.1,6.1-3.3,12.2-3.9,18-1.8,14.9,14.6,21.7,48.5,20.1l-.6-.6Z"/>
        </g>
        <g id="shadow_0_Layer0_0_FILL-50">
          <path class="cls-4" d="M193.7,142.9c-11-5.8-24.4-8.5-39.9-8.5s-29.2,2.7-40.2,8.5c-11,5.8-16.4,12.8-16.4,21.1s5.4,14.9,16.4,20.7c11.3,5.8,24.7,8.8,40.2,8.8s28.9-3.1,39.9-8.8c11.3-5.8,17-12.5,17-20.7s-5.7-15.3-17-21.1Z"/>
        </g>
        <g>
          <g id="headFocus_0_Layer0_0_FILL-21">
            <path class="cls-11" d="M220.5,70.9c-3-14.3-11.9-25.9-26.5-34.5-15.8-9.5-33.9-12.8-53.9-9.8-19.9,3.1-36.6,11.3-49.1,24.7-11.6,12.5-16.7,25.9-15.8,40.6,3.3,16.2,12.2,29.3,26.8,39.4,16.1,11,34.2,14.9,54.2,12.2,20.2-3.1,36.3-11.9,48.8-27.2,11.3-13.7,16.7-29,15.5-45.5h0Z"/>
            <path class="cls-2" d="M220.2,66.7c-2.4-18.3-11.9-32.9-28-43.9-16.1-10.7-34.2-14.6-54.2-11.9s-36.3,11.9-48.8,26.8c-12.2,15.3-17.3,31.7-14.6,50.3,2.7,18.6.6,3.1.9,4.3-.9-14.6,4.5-28.1,15.8-40.6,12.5-13.7,29.2-22,49.1-24.7,19.9-2.7,38.1.3,53.9,9.8,14.6,8.5,23.2,20.1,26.5,34.5,0-1.5,0-2.7-.6-4.3v-.3Z"/>
          </g>
          <g id="headFocus_0_Layer0_1_FILL-21">
            <path class="cls-9" d="M78.5,96.6c-3.9,5.5-5.4,11.6-4.5,18.3s3.9,11.9,9.2,16.2c5.4,4.3,11.3,5.8,17.6,4.9s11.6-4.3,15.8-9.8c3.9-5.5,5.4-11.3,4.5-18-.9-6.7-4.2-12.2-9.2-16.5-5.4-4.3-11.3-5.8-17.6-4.9-6.3.9-11.6,4.3-15.8,9.8M88.9,123.1c-3.3-2.4-5.1-5.8-5.7-9.8-.6-4,.3-7.6,2.7-11.3,2.4-3.4,5.7-5.2,9.5-5.8s7.4.3,10.7,2.7c3.3,2.7,5.1,6.1,5.7,10.1s-.3,7.6-2.7,11-5.4,5.2-9.5,5.8-7.4-.3-10.7-3.1M192.5,115.2c5.4,4.3,11.3,5.8,17.6,4.9s11.6-4.3,15.8-9.8c3.9-5.5,5.4-11.3,4.5-18-.9-6.7-4.2-12.2-9.2-16.5-5.4-4.3-11.3-5.8-17.6-4.9s-11.6,4.3-15.8,9.8c-3.9,5.5-5.4,11.6-4.5,18.3.9,6.7,3.9,11.9,9.2,16.2M195.2,86.5c2.4-3.4,5.7-5.2,9.5-5.8s7.4.3,10.7,2.7c3.3,2.7,5.1,6.1,5.7,10.1.6,4-.3,7.6-2.7,11-2.4,3.4-5.4,5.2-9.5,5.8s-7.4-.3-10.7-3.1c-3.3-2.4-5.1-5.8-5.7-9.8-.6-4,.3-7.6,2.7-11.3v.3Z"/>
            <path class="cls-5" d="M83.5,113.4c.6,4,2.4,7.3,5.7,9.8,3.3,2.4,6.5,3.4,10.7,3.1s7.1-2.4,9.5-5.8c2.4-3.4,3.3-6.7,2.7-11s-2.4-7.3-5.7-10.1c-3-2.4-6.5-3.4-10.7-2.7s-7.1,2.4-9.5,5.8c-2.4,3.7-3.3,7.3-2.7,11.3M204.7,80.7c-3.9.6-7.1,2.4-9.5,5.8-2.4,3.7-3.3,7.3-2.7,11.3s2.4,7.3,5.7,9.8c3.3,2.4,6.5,3.4,10.7,3.1s7.1-2.4,9.5-5.8c2.4-3.4,3.3-6.7,2.7-11-.6-4-2.4-7.3-5.7-10.1-3.3-2.4-6.5-3.4-10.7-2.7v-.3Z"/>
          </g>
          <g id="headFocus_0_Layer0_2_FILL-21">
            <path class="cls-9" d="M210,118.5l-2.7-69-123.2,18,16.1,67.1c6,14.3,17.9,23.2,34.8,26.5,8.6,1.8,17,1.8,24.7.6,8-.9,15.8-3.4,23.5-7.6,15.8-8.2,24.4-20.1,26.5-35.7h.3Z"/>
          </g>
          <g id="headFocus_0_Layer0_3_FILL-21">
            <path class="cls-11" d="M115.7,114.9v-.9c-.6-3.7,0-6.7,2.1-9.5,1.5-2.1,3.6-4,6.3-4.9l-17,2.4c4.5,2.7,7.4,7,8.6,12.8M136.2,118.5c1.2-2.1,1.5-4.9.9-7.9s-1.5-5.2-3-7.3c-1.8-1.8-3.6-2.7-5.7-2.4-2.1,0-3.6,1.5-4.5,4-1.2,2.4-1.5,4.9-.9,7.9s1.5,5.5,3,7.3,3.3,2.7,5.4,2.4,3.6-1.5,4.8-4M189.8,103.3v.9c0-6.1,1.2-11,4.8-14.9l-16.7,2.4c2.7,0,5.1.9,7.4,2.7,2.7,2.1,4.2,5.2,4.8,8.5M168.1,106.3c.3,3.1,1.5,5.5,3,7.3s3.3,2.7,5.4,2.4,3.6-1.5,4.5-4c1.2-2.1,1.5-4.9.9-7.9s-1.5-5.2-3-7.3c-1.8-1.8-3.6-2.7-5.4-2.4-2.1,0-3.6,1.5-4.5,4-1.2,2.4-1.5,4.9-.9,7.9Z"/>
            <path class="cls-3" d="M125.2,99.3c-.3,0-.9,0-1.2.3-2.7.9-4.8,2.4-6.3,4.9-1.8,2.7-2.7,6.1-2.1,9.5v.9c.6,3.1,2.1,5.5,4.5,7.6,2.7,2.1,5.7,3.1,9.2,2.7s6-2.1,7.7-5.2c2.1-2.7,2.7-6.1,2.4-9.5s-2.1-6.4-4.8-8.5c-2.7-2.4-5.7-3.1-8.9-2.7h-.6M137.4,110.6c.3,3.1,0,5.5-.9,7.9-1.2,2.4-2.7,3.7-4.8,4s-3.9-.6-5.4-2.4c-1.8-1.8-2.7-4.3-3-7.3s0-5.5.9-7.9c.9-2.4,2.4-3.7,4.5-4,2.1,0,3.9.6,5.7,2.4,1.8,1.8,2.7,4.3,3,7.3M177.9,91.7h-2.1c-3.3.6-6,2.1-7.7,5.2-2.1,2.7-2.7,6.1-2.4,9.5.6,3.7,2.1,6.4,4.8,8.5,2.4,2.4,5.4,3.4,8.9,2.7s6.3-2.1,8.3-5.2c1.8-2.7,2.4-5.5,2.4-8.5v-.9c-.6-3.7-2.1-6.4-4.8-8.5-2.1-1.8-4.5-2.7-7.4-2.7M171.4,113.7c-1.8-1.8-2.7-4.3-3-7.3s0-5.5.9-7.9c.9-2.4,2.4-3.7,4.5-4,2.1,0,3.9.6,5.4,2.4,1.8,1.8,2.7,4.3,3,7.3.3,3.1,0,5.5-.9,7.9-1.2,2.4-2.7,3.7-4.5,4s-3.9-.6-5.4-2.4Z"/>
          </g>
          <g id="headFocus_0_Layer0_4_FILL-21">
            <path class="cls-8" d="M182.7,129.8c-6.3-4-11.9-4.9-17.3-2.4-5.4,2.1-8.6,7-9.8,14.3l27.1-11.9h0Z"/>
          </g>
          <g id="headFocus_0_Layer0_5_FILL-21">
            <path class="cls-8" d="M161.8,121.6c1.8-1.8,2.7-3.4,2.4-5.2,0-1.8-1.5-3.4-3.9-4.6-2.1-.9-4.8-1.2-7.4-.9s-4.8,1.2-6.5,3.1-2.4,3.7-2.4,5.5,1.5,3.4,3.6,4.3c2.1,1.2,4.5,1.5,7.1,1.2s5.1-1.5,6.8-3.4h.3Z"/>
          </g>
          <g id="headFocus_0_Layer0_6_FILL-21">
            <path class="cls-11" d="M210,75.2l-.6-25.9h-1.5l-.3-2.4-125.9,18.3,5.1,22.9c21.1-3.4,36-9.8,45.2-19.2,11.9,11.6,23.8,16.5,35.4,15.3l3-10.1c14,3.1,27.1,3.4,39.9.9l-.3.3Z"/>
          </g>
          <g id="headFocus_0_Layer0_7_FILL-21">
            <path class="cls-1" d="M197.5,48.4c-1.8-2.1-4.2-4-6.8-5.5-12.2-7.9-28.3-10.4-47.9-7.6-19.6,2.7-34.2,9.8-43.8,20.7-.6.6-1.2,1.2-1.8,2.1-1.5,1.5-2.7,3.4-3.6,5.5-.9,1.8-.9,3.7.3,6.1,11.6-9.2,28.6-15.6,50.9-18.6,22-3.1,39.9-2.1,53.6,3.4.6-2.4,0-4.3-1.2-5.8l.3-.3Z"/>
          </g>
          <g id="headFocus_0_Layer0_8_FILL-21">
            <path class="cls-11" d="M104.1,106.3c.9-1.8,1.2-3.7.6-5.8l-4.2-16.8-14.6,2.1,4.8,18.6c.6,2.1,1.8,3.7,3.6,4.9,1.8.9,3.6,1.2,5.4.6h0c2.1-.6,3.3-1.5,4.2-3.4l.3-.3Z"/>
          </g>
          <g id="headFocus_0_Layer0_9_FILL-21">
            <path class="cls-11" d="M196.1,87.4c0,2.1.9,4,2.4,5.5s3,2.1,5.1,2.1h0c2.1,0,3.6-.6,5.1-2.1s2.1-3.4,2.1-5.5v-19.2c-.3,0-15.2,2.1-15.2,2.1v17.4l.6-.3Z"/>
          </g>
          <g id="headFocus_0_Layer0_10_MEMBER_0_FILL-21">
            <path class="cls-11" d="M191.6,86.5l-2.7-6.7-26.8,7.9,2.4,5.8,27.1-6.7v-.3Z"/>
          </g>
          <g id="headFocus_0_Layer0_10_MEMBER_1_FILL-21">
            <path class="cls-11" d="M111.8,90.8l-1.8,7.3,28.3,1.8,1.5-6.1-28-2.7v-.3Z"/>
          </g>
          <g id="headFocus_0_Layer0_11_FILL-21">
            <path class="cls-13" d="M213.6,105.1c-.6,1.5-.6,3.1,0,4.3l4.5,11.3c.6,1.2,1.5,2.4,3,3.1s2.7.6,4.2,0h0c1.2-.6,2.4-1.5,3-3.1s.6-3.1,0-4.6l-4.5-11c-.6-1.2-1.5-2.4-3-3.1s-2.7-.6-4.2,0h0c-1.5.6-2.4,1.5-3,3.1Z"/>
          </g>
          <g id="headFocus_0_Layer0_12_FILL-21">
            <path class="cls-13" d="M93.7,122.5c-.9-1.2-2.1-1.8-3.6-2.1h0c-1.5,0-2.7,0-4.2,1.2-1.2.9-2.1,2.1-2.1,3.7l-1.2,11.9c0,1.5,0,3.1,1.2,4.3.9,1.2,2.1,1.8,3.6,2.1h0c1.5,0,3,0,4.2-1.2,1.2-.9,2.1-2.1,2.1-3.7l1.5-12.2c0-1.5,0-2.7-1.2-4.3l-.3.3Z"/>
          </g>
        </g>
      </g>
    </g>
  </g>
</svg>